{"_v":2,"glyphs":{"0":{"ha":511,"x_min":56,"x_max":454,"o":"m 255 -9 l 255 -9 q 188 -9 144 32 q 99 73 78 155 q 56 236 56 359 l 56 359 q 56 471 75 553 q 94 635 138 680 q 182 725 256 725 l 256 725 q 331 725 375 680 q 418 635 436 553 q 454 471 454 359 l 454 359 q 454 269 443 200 q 431 131 407 85 q 383 38 346 15 q 308 -9 255 -9 z m 255 27 l 255 27 q 300 27 331 50 q 361 72 380 115 q 399 158 408 220 q 416 281 416 359 l 416 359 q 416 431 409 491 q 401 551 383 596 q 365 640 335 665 q 304 689 256 689 l 256 689 q 209 689 178 665 q 146 640 128 596 q 110 551 102 491 q 94 430 94 359 l 94 359 q 94 280 104 219 q 113 157 133 114 q 152 71 182 49 q 212 27 255 27 z"},"1":{"ha":511,"x_min":89,"x_max":304,"o":"m 304 714 l 304 0 l 266 0 l 266 550 q 266 589 266 618 q 266 646 267 671 l 267 671 q 257 661 247 651 q 236 641 220 628 l 220 628 l 112 537 l 89 564 l 271 714 l 304 714 z"},"2":{"ha":511,"x_min":49,"x_max":445,"o":"m 445 0 l 49 0 l 49 32 l 241 259 q 286 312 317 356 q 347 399 364 443 q 380 486 380 539 l 380 539 q 380 587 362 621 q 343 654 311 671 q 278 688 234 688 l 234 688 q 192 688 155 674 q 117 659 83 633 l 83 633 l 62 662 q 89 683 118 697 q 146 710 176 717 q 206 724 237 724 l 237 724 q 291 724 332 703 q 372 681 396 640 q 419 599 419 541 l 419 541 q 419 482 401 434 q 382 385 350 339 q 318 293 274 242 l 274 242 l 101 38 l 101 37 l 444 37 l 445 0 z"},"3":{"ha":511,"x_min":38,"x_max":440,"o":"m 215 -10 l 215 -10 q 164 -10 119 -1 q 74 8 38 24 l 38 24 l 38 63 q 74 47 119 36 q 164 25 214 25 l 214 25 q 306 25 353 70 q 400 115 400 194 l 400 194 q 400 252 375 287 q 349 321 304 337 q 258 353 197 353 l 197 353 l 134 353 l 134 389 l 200 389 q 251 389 293 408 q 334 426 359 462 q 383 498 383 549 l 383 549 q 383 619 342 654 q 300 689 232 689 l 232 689 q 182 689 141 672 q 99 655 62 628 l 62 628 l 42 657 q 84 688 131 706 q 177 724 233 724 l 233 724 q 289 724 332 705 q 375 685 399 647 q 422 608 422 552 l 422 552 q 422 503 404 467 q 385 430 354 407 q 322 384 282 374 l 282 374 l 282 372 q 356 361 398 317 q 440 272 440 194 l 440 194 q 440 131 414 85 q 387 39 337 15 q 287 -10 215 -10 z"},"4":{"ha":511,"x_min":22,"x_max":491,"o":"m 382 0 l 344 0 l 344 181 l 22 181 l 22 215 l 341 718 l 382 718 l 382 217 l 491 217 l 491 181 l 382 181 l 382 0 z m 291 575 l 63 217 l 344 217 l 344 540 q 344 569 344 590 q 344 610 345 628 q 346 646 346 667 l 346 667 l 344 667 q 332 643 320 622 q 307 600 291 575 l 291 575 z"},"5":{"ha":511,"x_min":62,"x_max":451,"o":"m 219 -10 l 219 -10 q 169 -10 130 0 q 91 9 62 24 l 62 24 l 62 64 q 92 47 132 37 q 171 26 219 26 l 219 26 q 281 26 324 50 q 367 73 390 117 q 412 160 412 219 l 412 219 q 412 301 368 347 q 324 393 234 393 l 234 393 q 198 393 165 388 q 131 382 101 373 l 101 373 l 79 391 l 106 714 l 409 714 l 409 677 l 140 677 l 118 412 q 142 419 174 424 q 205 429 242 429 l 242 429 q 309 429 356 404 q 402 379 427 333 q 451 286 451 220 l 451 220 q 451 150 424 99 q 396 47 344 19 q 292 -10 219 -10 z"},"6":{"ha":511,"x_min":61,"x_max":460,"o":"m 268 -10 l 268 -10 q 212 -10 173 14 q 133 37 109 80 q 84 123 73 181 q 61 239 61 306 l 61 306 q 61 397 74 466 q 87 534 111 584 q 135 633 169 664 q 202 695 244 710 q 286 725 334 725 l 334 725 q 358 725 379 723 q 400 720 418 715 l 418 715 l 418 678 q 401 684 380 687 q 358 690 335 690 l 335 690 q 266 690 214 654 q 162 617 132 539 q 102 461 100 337 l 100 337 l 102 337 q 114 363 137 387 q 159 411 194 427 q 229 442 276 442 l 276 442 q 336 442 377 415 q 418 388 439 339 q 460 290 460 224 l 460 224 q 460 154 438 101 q 415 48 372 19 q 329 -10 268 -10 z m 267 25 l 267 25 q 342 25 382 78 q 421 130 421 224 l 421 224 q 421 308 384 358 q 347 407 271 407 l 271 407 q 220 407 182 385 q 144 362 124 327 q 103 292 103 253 l 103 253 q 103 222 111 183 q 118 144 136 108 q 154 72 186 49 q 218 25 267 25 z"},"7":{"ha":511,"x_min":43,"x_max":458,"o":"m 185 0 l 143 0 l 415 677 l 43 677 l 43 714 l 458 714 l 458 685 l 185 0 z"},"8":{"ha":511,"x_min":54,"x_max":457,"o":"m 254 -10 l 254 -10 q 194 -10 149 12 q 104 34 79 76 q 54 117 54 174 l 54 174 q 54 226 74 264 q 94 301 131 330 q 167 358 216 379 l 216 379 q 176 400 144 425 q 111 449 93 482 q 74 515 74 560 l 74 560 q 74 610 98 647 q 121 684 162 704 q 203 724 256 724 l 256 724 q 312 724 352 705 q 392 685 414 649 q 436 613 436 561 l 436 561 q 436 517 419 485 q 401 452 369 427 q 336 401 291 380 l 291 380 q 341 357 378 329 q 415 301 436 265 q 457 229 457 179 l 457 179 q 457 120 431 78 q 404 36 359 13 q 313 -10 254 -10 z m 253 25 l 253 25 q 327 25 373 65 q 418 104 418 177 l 418 177 q 418 216 403 247 q 387 277 355 303 q 323 329 273 350 l 273 350 l 251 360 q 204 341 168 316 q 132 291 112 257 q 92 223 92 174 l 92 174 q 92 104 137 65 q 181 25 253 25 z m 257 397 l 257 397 q 300 417 332 440 q 363 462 381 491 q 398 520 398 560 l 398 560 q 398 624 360 657 q 322 689 256 689 l 256 689 q 192 689 153 655 q 113 621 113 559 l 113 559 q 113 520 131 491 q 148 462 181 440 q 213 417 257 397 z"},"9":{"ha":511,"x_min":51,"x_max":449,"o":"m 177 -10 l 177 -10 q 154 -10 130 -7 q 105 -5 88 0 l 88 0 l 88 38 q 104 32 128 29 q 152 25 176 25 l 176 25 q 229 25 272 46 q 314 66 345 109 q 375 152 393 219 q 410 286 411 378 l 411 378 l 408 378 q 397 353 375 329 q 352 304 318 289 q 283 273 235 273 l 235 273 q 175 273 134 300 q 93 327 72 376 q 51 425 51 490 l 51 490 q 51 562 74 615 q 96 667 140 696 q 183 725 244 725 l 244 725 q 300 725 339 702 q 378 678 403 635 q 427 592 438 535 q 449 478 449 411 l 449 411 q 449 320 437 250 q 424 180 400 131 q 376 82 343 51 q 309 19 268 5 q 226 -10 177 -10 z m 240 308 l 240 308 q 292 308 330 331 q 367 353 388 389 q 408 424 408 462 l 408 462 q 408 493 401 532 q 393 571 375 607 q 357 643 325 666 q 293 689 244 689 l 244 689 q 169 689 130 637 q 90 585 90 491 l 90 491 q 90 406 127 357 q 164 308 240 308 z"},"\r":{"ha":277,"x_min":0,"x_max":0,"o":""}," ":{"ha":277,"x_min":0,"x_max":0,"o":""},"ഀ":{"ha":0,"x_min":-403,"x_max":-154,"o":"m -403 727 l -403 727 q -403 787 -369 826 q -335 864 -279 864 l -279 864 q -222 864 -188 826 q -154 788 -154 727 l -154 727 q -154 665 -188 627 q -222 589 -278 589 l -278 589 q -336 589 -369 628 q -403 666 -403 727 z m -367 728 l -367 728 q -367 681 -345 652 q -323 622 -279 622 l -279 622 q -234 622 -211 652 q -189 681 -189 728 l -189 728 q -189 773 -212 802 q -235 831 -279 831 l -279 831 q -321 831 -344 802 q -367 773 -367 728 z"},"ഁ":{"ha":0,"x_min":-418,"x_max":-137,"o":"m -278 668 l -278 668 q -344 668 -381 702 q -418 736 -418 808 l -418 808 q -418 818 -417 832 q -416 846 -412 858 l -412 858 l -379 851 q -381 841 -382 829 q -384 817 -384 807 l -384 807 q -384 770 -371 747 q -359 723 -335 713 q -312 702 -278 702 l -278 702 q -242 702 -218 714 q -195 726 -183 750 q -172 773 -172 808 l -172 808 q -172 818 -173 830 q -174 841 -177 851 l -177 851 l -143 858 q -140 846 -138 832 q -137 818 -137 807 l -137 807 q -137 737 -176 703 q -215 668 -278 668 z m -278 775 l -278 775 q -295 775 -301 785 q -308 795 -308 810 l -308 810 q -308 824 -301 835 q -295 845 -278 845 l -278 845 q -260 845 -254 835 q -248 824 -248 810 l -248 810 q -248 795 -254 785 q -260 775 -278 775 z"},"ം":{"ha":387,"x_min":36,"x_max":351,"o":"m 193 -12 l 193 -12 q 145 -12 110 10 q 75 32 56 72 q 36 112 36 168 l 36 168 q 36 224 56 264 q 75 304 111 326 q 146 348 194 348 l 194 348 q 241 348 276 327 q 311 305 331 265 q 351 225 351 169 l 351 169 q 351 112 332 72 q 312 31 277 10 q 241 -12 193 -12 z m 194 314 l 194 314 q 140 314 107 277 q 74 240 74 168 l 74 168 q 74 96 107 59 q 139 22 193 22 l 193 22 q 247 22 280 59 q 313 96 313 169 l 313 169 q 313 241 281 278 q 248 314 194 314 z"},"ഃ":{"ha":294,"x_min":36,"x_max":258,"o":"m 36 434 l 36 434 q 36 490 66 525 q 96 560 146 560 l 146 560 q 197 560 228 526 q 258 491 258 434 l 258 434 q 258 378 228 344 q 197 309 146 309 l 146 309 q 95 309 66 344 q 36 379 36 434 z m 71 435 l 71 435 q 71 393 91 368 q 110 343 146 343 l 146 343 q 184 343 204 368 q 223 393 223 435 l 223 435 q 223 476 204 501 q 184 526 146 526 l 146 526 q 111 526 91 501 q 71 476 71 435 z m 36 113 l 36 113 q 36 169 66 204 q 96 238 146 238 l 146 238 q 197 238 228 204 q 258 170 258 113 l 258 113 q 258 57 228 23 q 197 -12 146 -12 l 146 -12 q 95 -12 66 23 q 36 57 36 113 z m 71 114 l 71 114 q 71 72 91 47 q 110 21 146 21 l 146 21 q 184 21 204 47 q 223 72 223 114 l 223 114 q 223 155 204 180 q 184 205 146 205 l 146 205 q 111 205 91 180 q 71 155 71 114 z"},"ഄ":{"ha":507,"x_min":40,"x_max":467,"o":"m 54 306 l 54 306 l 91 299 q 85 274 82 251 q 78 227 78 202 l 78 202 q 78 120 117 73 q 156 26 253 26 l 253 26 q 351 26 390 73 q 429 120 429 201 l 429 201 q 429 226 426 250 q 423 274 416 299 l 416 299 l 453 306 q 459 285 463 257 q 467 229 467 200 l 467 200 q 467 138 446 91 q 425 43 378 17 q 330 -9 253 -9 l 253 -9 q 177 -9 130 17 q 82 43 61 91 q 40 138 40 200 l 40 200 q 40 229 44 257 q 48 285 54 306 z m 236 161 l 236 393 l 272 393 l 272 161 l 236 161 z"},"അ":{"ha":1286,"x_min":43,"x_max":1243,"o":"m 326 560 l 326 560 q 363 560 402 554 q 441 548 476 533 l 476 533 q 479 532 482 530 q 485 527 488 525 l 488 525 q 522 512 547 491 q 572 469 586 440 q 600 410 600 372 l 600 372 q 600 340 589 313 q 578 286 551 269 q 524 252 477 247 l 477 247 l 478 255 q 543 250 577 216 q 610 182 610 125 l 610 125 q 610 85 594 54 q 577 23 545 6 q 513 -12 464 -12 l 464 -12 q 402 -12 360 17 q 318 46 297 101 q 276 156 276 231 l 276 231 q 276 291 293 346 q 310 401 344 446 q 378 490 429 518 l 429 518 q 433 520 436 523 q 439 526 442 528 l 442 528 q 471 543 504 552 q 537 560 575 560 l 575 560 q 645 560 688 537 q 730 513 752 473 q 774 433 779 382 l 779 382 l 790 280 l 790 0 l 752 0 l 752 304 q 752 374 741 415 q 730 456 704 482 l 704 482 q 683 503 652 515 q 620 526 571 526 l 571 526 q 544 526 521 521 q 497 516 477 508 l 477 508 q 437 492 406 464 q 375 435 355 398 q 334 360 324 318 q 314 276 314 232 l 314 232 q 314 132 351 77 q 387 22 464 22 l 464 22 q 516 22 544 48 q 572 73 572 125 l 572 125 q 572 171 543 202 q 513 233 447 233 l 447 233 l 428 233 l 428 268 l 441 268 q 508 268 535 297 q 562 326 562 372 l 562 372 q 562 428 529 461 q 496 494 446 509 l 446 509 q 415 519 385 522 q 355 525 327 525 l 327 525 q 240 525 186 492 q 132 459 107 403 q 82 347 82 280 l 82 280 q 82 218 97 170 q 111 122 139 86 q 166 50 203 21 l 203 21 l 179 -8 q 145 19 114 58 q 82 96 63 151 q 43 206 43 281 l 43 281 q 43 340 61 391 q 78 441 114 479 q 149 517 202 539 q 255 560 326 560 z m 1075 -12 l 1075 -12 q 1022 -12 988 14 q 953 40 937 86 q 920 132 920 190 l 920 190 q 920 286 965 336 q 1009 385 1079 385 l 1079 385 q 1120 385 1150 368 q 1179 351 1200 324 q 1221 296 1233 262 l 1233 262 l 1220 247 q 1209 272 1191 296 q 1172 319 1146 335 q 1119 350 1084 350 l 1084 350 q 1020 350 989 308 q 958 266 958 191 l 958 191 q 958 142 970 104 q 981 66 1007 45 q 1033 23 1077 23 l 1077 23 q 1117 23 1146 45 q 1175 66 1191 115 q 1206 163 1206 242 l 1206 242 q 1206 255 1205 268 q 1204 280 1203 288 l 1203 288 q 1203 292 1204 297 q 1204 302 1203 307 l 1203 307 q 1195 362 1169 412 q 1143 462 1095 494 q 1046 525 970 525 l 970 525 q 930 525 900 515 q 870 504 848 485 l 848 485 q 829 468 816 445 q 803 421 797 388 q 790 355 790 306 l 790 306 l 790 250 l 764 381 q 771 437 797 477 q 823 516 867 538 q 910 560 969 560 l 969 560 q 1036 560 1088 537 q 1139 513 1174 470 q 1208 427 1226 369 q 1243 311 1243 241 l 1243 241 q 1243 148 1222 93 q 1200 37 1162 13 q 1124 -12 1075 -12 z"},"ആ":{"ha":1410,"x_min":43,"x_max":1381,"o":"m 326 560 l 326 560 q 363 560 402 554 q 441 548 476 533 l 476 533 q 479 532 482 530 q 485 527 488 525 l 488 525 q 522 512 547 491 q 572 469 586 440 q 600 410 600 372 l 600 372 q 600 340 589 313 q 578 286 551 269 q 524 252 477 247 l 477 247 l 478 255 q 543 250 577 216 q 610 182 610 125 l 610 125 q 610 85 594 54 q 577 23 545 6 q 513 -12 464 -12 l 464 -12 q 402 -12 360 17 q 318 46 297 101 q 276 156 276 231 l 276 231 q 276 291 293 346 q 310 401 344 446 q 378 490 429 518 l 429 518 q 433 520 436 523 q 439 526 442 528 l 442 528 q 471 543 504 552 q 537 560 575 560 l 575 560 q 645 560 688 537 q 730 513 752 473 q 774 433 779 382 l 779 382 l 790 280 l 790 0 l 752 0 l 752 304 q 752 374 741 415 q 730 456 704 482 l 704 482 q 683 503 652 515 q 620 526 571 526 l 571 526 q 544 526 521 521 q 497 516 477 508 l 477 508 q 437 492 406 464 q 375 435 355 398 q 334 360 324 318 q 314 276 314 232 l 314 232 q 314 132 351 77 q 387 22 464 22 l 464 22 q 516 22 544 48 q 572 73 572 125 l 572 125 q 572 171 543 202 q 513 233 447 233 l 447 233 l 428 233 l 428 268 l 441 268 q 508 268 535 297 q 562 326 562 372 l 562 372 q 562 428 529 461 q 496 494 446 509 l 446 509 q 415 519 385 522 q 355 525 327 525 l 327 525 q 240 525 186 492 q 132 459 107 403 q 82 347 82 280 l 82 280 q 82 218 97 170 q 111 122 139 86 q 166 50 203 21 l 203 21 l 179 -8 q 145 19 114 58 q 82 96 63 151 q 43 206 43 281 l 43 281 q 43 340 61 391 q 78 441 114 479 q 149 517 202 539 q 255 560 326 560 z m 965 560 l 965 560 q 1039 560 1090 530 q 1141 500 1172 449 q 1203 397 1215 332 l 1215 332 q 1220 307 1223 279 q 1225 251 1225 223 l 1225 223 q 1225 139 1203 88 q 1180 36 1142 12 q 1104 -12 1056 -12 l 1056 -12 q 1002 -12 969 14 q 936 39 922 79 q 907 119 907 163 l 907 163 q 907 259 966 311 q 1025 362 1127 362 l 1127 362 q 1141 362 1155 361 q 1169 359 1182 356 l 1182 356 l 1198 354 q 1261 339 1302 299 q 1342 258 1362 202 q 1381 146 1381 83 l 1381 83 q 1381 15 1363 -38 q 1345 -91 1311 -127 q 1277 -163 1229 -182 q 1180 -201 1118 -201 l 1118 -201 q 1076 -201 1041 -194 q 1005 -187 977 -177 l 977 -177 l 990 -144 q 1015 -154 1048 -160 q 1080 -166 1118 -166 l 1118 -166 q 1176 -166 1218 -148 q 1260 -131 1288 -98 q 1316 -65 1330 -19 q 1343 27 1343 84 l 1343 84 q 1343 140 1328 187 q 1313 234 1283 268 q 1252 301 1206 317 l 1206 317 l 1190 320 q 1175 324 1160 326 q 1144 327 1128 327 l 1128 327 q 1074 327 1033 311 q 992 294 969 258 q 945 222 945 162 l 945 162 q 945 128 955 96 q 964 64 989 44 q 1013 23 1057 23 l 1057 23 q 1122 23 1155 75 q 1187 127 1187 224 l 1187 224 q 1187 251 1185 279 q 1182 306 1176 334 l 1176 334 l 1174 348 q 1162 395 1138 435 q 1113 475 1071 500 q 1029 525 966 525 l 966 525 q 929 525 899 515 q 869 504 847 485 l 847 485 q 828 468 816 445 q 803 421 797 388 q 790 354 790 306 l 790 306 l 790 218 l 763 381 q 771 437 797 477 q 823 517 866 539 q 909 560 965 560 z"},"ഇ":{"ha":843,"x_min":43,"x_max":801,"o":"m 279 560 l 279 560 q 335 560 373 544 q 410 527 433 496 q 456 465 468 418 l 468 418 l 457 419 q 474 495 514 528 q 554 560 612 560 l 612 560 q 660 560 696 540 q 731 519 755 483 q 778 447 790 401 q 801 354 801 303 l 801 303 q 801 218 780 158 q 758 98 713 62 l 713 62 q 687 40 654 26 q 621 12 575 6 q 529 0 461 0 l 461 0 l 237 0 q 188 0 159 -5 q 130 -10 113 -26 l 113 -26 q 103 -36 98 -50 q 92 -64 92 -81 l 92 -81 q 92 -102 99 -117 q 106 -132 119 -142 l 119 -142 q 135 -154 162 -160 q 188 -166 233 -166 l 233 -166 l 785 -166 l 785 -201 l 227 -201 q 181 -201 150 -194 q 119 -187 96 -170 l 96 -170 q 75 -156 64 -134 q 53 -112 53 -82 l 53 -82 q 53 -57 62 -36 q 70 -16 86 -2 l 86 -2 q 100 11 118 19 q 136 27 163 31 q 190 35 230 35 l 230 35 l 458 35 q 525 35 568 41 q 611 47 640 60 q 668 72 690 91 l 690 91 q 729 123 746 177 q 762 231 762 301 l 762 301 q 762 361 746 412 q 730 462 697 494 q 664 525 611 525 l 611 525 q 582 525 562 517 q 541 508 526 493 l 526 493 q 501 466 492 424 q 482 382 482 322 l 482 322 l 482 112 l 444 112 l 444 322 q 444 387 431 428 q 417 468 387 493 l 387 493 q 366 510 342 518 q 317 525 279 525 l 279 525 q 231 525 195 509 q 159 492 135 465 q 111 438 98 406 q 84 373 79 340 l 79 340 q 79 338 80 335 q 80 331 80 329 l 80 329 q 79 324 79 317 q 78 310 78 303 l 78 303 q 78 226 102 183 q 125 139 181 139 l 181 139 q 227 139 250 171 q 272 202 272 252 l 272 252 q 272 280 264 304 q 255 328 235 343 q 215 357 181 357 l 181 357 q 145 357 116 339 q 86 321 61 292 l 61 292 l 51 321 q 66 340 86 356 q 105 372 130 382 q 155 391 184 391 l 184 391 q 228 391 256 372 q 284 353 297 321 q 310 289 310 253 l 310 253 q 310 211 296 178 q 281 144 253 125 q 224 105 181 105 l 181 105 q 136 105 105 128 q 74 151 59 196 q 43 240 43 305 l 43 305 q 43 372 70 430 q 97 488 150 524 q 203 560 279 560 z"},"ഈ":{"ha":1494,"x_min":43,"x_max":1450,"o":"m 280 560 l 280 560 q 336 560 374 544 q 411 527 434 496 q 457 465 469 418 l 469 418 l 458 419 q 475 495 515 528 q 555 560 613 560 l 613 560 q 661 560 697 540 q 732 519 756 483 q 779 447 791 401 q 802 354 802 303 l 802 303 q 802 218 781 158 q 759 98 714 62 l 714 62 q 688 40 655 26 q 622 12 576 6 q 530 0 462 0 l 462 0 l 238 0 q 189 0 160 -5 q 131 -10 114 -26 l 114 -26 q 104 -36 99 -50 q 93 -64 93 -81 l 93 -81 q 93 -102 100 -117 q 107 -132 120 -142 l 120 -142 q 136 -154 163 -160 q 189 -166 234 -166 l 234 -166 l 786 -166 l 786 -201 l 228 -201 q 182 -201 151 -194 q 120 -187 97 -170 l 97 -170 q 76 -156 65 -134 q 54 -112 54 -82 l 54 -82 q 54 -57 63 -36 q 71 -16 87 -2 l 87 -2 q 101 11 119 19 q 137 27 164 31 q 191 35 231 35 l 231 35 l 459 35 q 526 35 569 41 q 612 47 641 60 q 669 72 691 91 l 691 91 q 730 123 747 177 q 763 231 763 301 l 763 301 q 763 361 747 412 q 731 462 698 494 q 665 525 612 525 l 612 525 q 583 525 563 517 q 542 508 527 493 l 527 493 q 502 466 493 424 q 483 382 483 322 l 483 322 l 483 112 l 445 112 l 445 322 q 445 387 432 428 q 418 468 388 493 l 388 493 q 367 510 343 518 q 318 525 280 525 l 280 525 q 232 525 196 509 q 160 492 136 465 q 112 438 99 406 q 85 373 80 340 l 80 340 q 80 338 81 335 q 81 331 81 329 l 81 329 q 80 324 80 317 q 79 310 79 303 l 79 303 q 79 226 103 183 q 126 139 182 139 l 182 139 q 228 139 251 171 q 273 202 273 252 l 273 252 q 273 280 265 304 q 256 328 236 343 q 216 357 182 357 l 182 357 q 146 357 117 339 q 87 321 62 292 l 62 292 l 52 321 q 67 340 87 356 q 106 372 131 382 q 156 391 185 391 l 185 391 q 229 391 257 372 q 285 353 298 321 q 311 289 311 253 l 311 253 q 311 211 297 178 q 282 144 254 125 q 225 105 182 105 l 182 105 q 137 105 106 128 q 75 151 60 196 q 44 240 44 305 l 44 305 q 44 372 71 430 q 98 488 151 524 q 204 560 280 560 z m 1287 560 l 1287 560 q 1339 560 1376 529 q 1412 498 1431 441 q 1450 383 1450 302 l 1450 302 q 1450 197 1425 128 q 1400 58 1348 23 q 1296 -12 1215 -12 l 1215 -12 q 1165 -12 1124 -2 q 1083 8 1042 29 l 1042 29 l 1061 60 q 1098 41 1134 32 q 1169 23 1214 23 l 1214 23 q 1290 23 1333 56 q 1375 89 1393 151 q 1411 213 1411 302 l 1411 302 q 1411 414 1377 470 q 1343 525 1286 525 l 1286 525 q 1259 525 1241 516 q 1223 506 1211 489 l 1211 489 q 1192 464 1186 427 q 1179 390 1179 344 l 1179 344 l 1179 256 l 1142 256 l 1142 344 q 1142 398 1134 434 q 1126 469 1108 491 l 1108 491 q 1095 507 1077 516 q 1058 525 1034 525 l 1034 525 q 978 525 950 484 q 921 443 921 382 l 921 382 q 921 349 926 320 q 931 290 939 259 l 939 259 l 903 252 q 894 283 889 317 q 883 350 883 384 l 883 384 q 883 433 900 473 q 917 513 951 537 q 985 560 1033 560 l 1033 560 q 1083 560 1117 532 q 1151 503 1164 436 l 1164 436 l 1155 434 q 1167 500 1203 530 q 1238 560 1287 560 z"},"ഉ":{"ha":593,"x_min":43,"x_max":550,"o":"m 298 560 l 298 560 q 359 560 406 539 q 453 518 485 482 q 517 445 534 396 q 550 346 550 287 l 550 287 q 550 205 530 149 q 509 92 461 57 l 461 57 q 433 37 401 24 q 369 11 329 6 q 288 0 235 0 l 235 0 l 227 0 q 186 0 158 -5 q 130 -10 113 -26 l 113 -26 q 103 -36 98 -50 q 92 -64 92 -81 l 92 -81 q 92 -102 99 -117 q 106 -132 119 -142 l 119 -142 q 135 -154 162 -160 q 188 -166 233 -166 l 233 -166 l 533 -166 l 533 -201 l 227 -201 q 181 -201 150 -194 q 119 -187 96 -170 l 96 -170 q 75 -156 64 -134 q 53 -112 53 -82 l 53 -82 q 53 -57 62 -36 q 70 -16 86 -2 l 86 -2 q 107 17 139 26 q 170 34 224 35 l 224 35 l 232 35 q 287 35 325 41 q 362 46 390 58 q 417 69 438 85 l 438 85 q 480 117 496 168 q 511 218 511 285 l 511 285 q 511 337 498 381 q 484 424 457 457 q 430 489 390 507 q 350 525 297 525 l 297 525 q 242 525 203 509 q 163 492 138 465 q 112 437 98 404 q 84 371 80 340 l 80 340 q 79 338 80 335 q 80 331 80 329 l 80 329 q 79 324 79 317 q 78 310 78 303 l 78 303 q 78 226 102 183 q 125 139 181 139 l 181 139 q 227 139 250 171 q 272 202 272 252 l 272 252 q 272 280 264 304 q 255 328 235 343 q 215 357 181 357 l 181 357 q 145 357 116 339 q 86 321 61 292 l 61 292 l 51 321 q 66 340 86 356 q 105 372 130 382 q 155 391 184 391 l 184 391 q 228 391 256 372 q 284 353 297 321 q 310 289 310 253 l 310 253 q 310 211 296 178 q 281 144 253 125 q 224 105 181 105 l 181 105 q 136 105 105 128 q 74 151 59 196 q 43 240 43 305 l 43 305 q 43 355 59 401 q 74 446 106 482 q 138 518 186 539 q 233 560 298 560 z"},"ഊ":{"ha":1243,"x_min":43,"x_max":1198,"o":"m 299 560 l 299 560 q 360 560 407 539 q 454 518 486 482 q 518 445 535 396 q 551 346 551 287 l 551 287 q 551 205 531 149 q 510 92 462 57 l 462 57 q 434 37 402 24 q 370 11 330 6 q 289 0 236 0 l 236 0 l 228 0 q 187 0 159 -5 q 131 -10 114 -26 l 114 -26 q 104 -36 99 -50 q 93 -64 93 -81 l 93 -81 q 93 -102 100 -117 q 107 -132 120 -142 l 120 -142 q 136 -154 163 -160 q 189 -166 234 -166 l 234 -166 l 534 -166 l 534 -201 l 228 -201 q 182 -201 151 -194 q 120 -187 97 -170 l 97 -170 q 76 -156 65 -134 q 54 -112 54 -82 l 54 -82 q 54 -57 63 -36 q 71 -16 87 -2 l 87 -2 q 108 17 140 26 q 171 34 225 35 l 225 35 l 233 35 q 288 35 326 41 q 363 46 391 58 q 418 69 439 85 l 439 85 q 481 117 497 168 q 512 218 512 285 l 512 285 q 512 337 499 381 q 485 424 458 457 q 431 489 391 507 q 351 525 298 525 l 298 525 q 243 525 204 509 q 164 492 139 465 q 113 437 99 404 q 85 371 81 340 l 81 340 q 80 338 81 335 q 81 331 81 329 l 81 329 q 80 324 80 317 q 79 310 79 303 l 79 303 q 79 226 103 183 q 126 139 182 139 l 182 139 q 228 139 251 171 q 273 202 273 252 l 273 252 q 273 280 265 304 q 256 328 236 343 q 216 357 182 357 l 182 357 q 146 357 117 339 q 87 321 62 292 l 62 292 l 52 321 q 67 340 87 356 q 106 372 131 382 q 156 391 185 391 l 185 391 q 229 391 257 372 q 285 353 298 321 q 311 289 311 253 l 311 253 q 311 211 297 178 q 282 144 254 125 q 225 105 182 105 l 182 105 q 137 105 106 128 q 75 151 60 196 q 44 240 44 305 l 44 305 q 44 355 60 401 q 75 446 107 482 q 139 518 187 539 q 234 560 299 560 z m 1035 560 l 1035 560 q 1087 560 1124 529 q 1160 498 1179 441 q 1198 383 1198 302 l 1198 302 q 1198 197 1173 128 q 1148 58 1096 23 q 1044 -12 963 -12 l 963 -12 q 913 -12 872 -2 q 831 8 790 29 l 790 29 l 809 60 q 846 41 882 32 q 917 23 962 23 l 962 23 q 1038 23 1081 56 q 1123 89 1141 151 q 1159 213 1159 302 l 1159 302 q 1159 414 1125 470 q 1091 525 1034 525 l 1034 525 q 1007 525 989 516 q 971 506 959 489 l 959 489 q 940 464 934 427 q 927 390 927 344 l 927 344 l 927 256 l 890 256 l 890 344 q 890 398 882 434 q 874 469 856 491 l 856 491 q 843 507 825 516 q 806 525 782 525 l 782 525 q 726 525 698 484 q 669 443 669 382 l 669 382 q 669 349 674 320 q 679 290 687 259 l 687 259 l 651 252 q 642 283 637 317 q 631 350 631 384 l 631 384 q 631 433 648 473 q 665 513 699 537 q 733 560 781 560 l 781 560 q 831 560 865 532 q 899 503 912 436 l 912 436 l 903 434 q 915 500 951 530 q 986 560 1035 560 z"},"ഋ":{"ha":748,"x_min":40,"x_max":708,"o":"m 558 560 l 558 560 q 629 560 669 508 q 708 455 708 364 l 708 364 q 708 300 690 254 q 672 208 638 177 l 638 177 q 598 138 539 121 q 479 104 400 104 l 400 104 l 347 104 q 296 104 253 111 q 209 118 174 134 q 139 150 112 175 l 112 175 q 78 206 59 253 q 40 299 40 363 l 40 363 q 40 423 58 467 q 76 511 111 536 q 145 560 193 560 l 193 560 q 236 560 265 541 q 294 521 309 488 q 324 455 324 413 l 324 413 q 324 372 309 340 q 293 307 264 289 q 234 271 189 271 l 189 271 q 158 271 133 280 q 108 289 88 305 q 67 320 51 337 l 51 337 l 62 369 q 75 353 92 339 q 109 324 132 315 q 155 306 185 306 l 185 306 q 236 306 261 334 q 286 362 286 414 l 286 414 q 286 462 263 494 q 240 525 192 525 l 192 525 q 152 525 126 504 q 100 483 88 447 q 76 410 76 363 l 76 363 q 76 356 77 348 q 77 340 78 332 l 78 332 l 77 321 q 84 270 107 234 q 130 197 167 174 q 204 151 254 141 q 304 130 367 130 l 367 130 l 378 130 q 442 130 493 141 q 544 152 582 175 q 619 197 642 234 q 664 270 671 322 l 671 322 l 670 332 q 671 340 672 348 q 672 356 672 363 l 672 363 q 672 411 660 448 q 648 484 623 505 q 598 525 558 525 l 558 525 q 509 525 486 493 q 462 460 462 412 l 462 412 q 462 362 487 334 q 511 306 561 306 l 561 306 q 592 306 615 315 q 638 324 655 338 q 672 352 685 368 l 685 368 l 696 337 q 681 320 661 305 q 640 289 615 280 q 590 271 558 271 l 558 271 q 514 271 484 290 q 454 308 439 340 q 424 372 424 412 l 424 412 q 424 454 440 487 q 455 520 485 540 q 515 560 558 560 z m 373 -205 l 373 -205 q 266 -205 199 -186 q 131 -168 100 -131 q 68 -94 68 -38 l 68 -38 q 68 7 89 37 q 109 67 145 85 q 181 103 230 111 q 278 118 334 118 l 334 118 l 413 118 q 469 118 518 111 q 567 103 603 85 q 639 67 660 37 q 680 7 680 -38 l 680 -38 q 680 -92 649 -129 q 618 -167 551 -186 q 483 -205 373 -205 z m 374 -170 l 374 -170 q 473 -170 532 -155 q 590 -140 616 -110 q 641 -81 641 -37 l 641 -37 q 641 -3 625 22 q 608 47 575 64 q 542 80 493 88 q 443 95 376 95 l 376 95 l 369 95 q 281 95 223 81 q 164 67 136 38 q 107 9 107 -37 l 107 -37 q 107 -81 133 -110 q 158 -140 217 -155 q 275 -170 374 -170 z"},"ഌ":{"ha":999,"x_min":45,"x_max":957,"o":"m 305 560 l 305 560 q 384 560 430 521 q 475 482 491 411 l 491 411 l 495 376 l 503 276 l 503 0 l 466 0 l 466 316 q 466 387 452 428 q 437 468 409 492 l 409 492 q 389 509 365 517 q 340 525 304 525 l 304 525 q 236 525 186 488 q 136 450 109 385 q 82 320 82 236 l 82 236 l 82 225 q 82 153 97 109 q 112 64 140 44 q 167 23 204 23 l 204 23 q 230 23 252 35 q 273 47 286 75 q 299 103 299 151 l 299 151 q 299 206 274 239 q 248 272 197 272 l 197 272 q 157 272 123 252 q 89 232 65 204 l 65 204 l 56 235 q 88 272 126 290 q 163 307 201 307 l 201 307 q 239 307 270 290 q 300 273 319 239 q 337 205 337 152 l 337 152 q 337 95 320 59 q 302 23 272 6 q 242 -12 204 -12 l 204 -12 q 160 -12 124 11 q 88 34 67 87 q 45 139 45 228 l 45 228 q 45 332 78 406 q 111 480 170 520 q 228 560 305 560 z m 789 -12 l 789 -12 q 735 -12 701 14 q 667 40 651 86 q 634 132 634 190 l 634 190 q 634 286 678 336 q 722 385 793 385 l 793 385 q 833 385 863 368 q 893 351 914 324 q 935 296 947 262 l 947 262 l 934 247 q 923 272 904 296 q 885 319 859 335 q 833 350 797 350 l 797 350 q 734 350 703 308 q 672 266 672 191 l 672 191 q 672 142 684 104 q 695 66 721 45 q 747 23 791 23 l 791 23 q 831 23 860 45 q 889 66 905 115 q 920 163 920 242 l 920 242 q 920 255 919 268 q 918 280 917 288 l 917 288 q 917 292 918 297 q 918 302 917 307 l 917 307 q 908 362 883 412 q 857 462 809 494 q 760 525 683 525 l 683 525 q 644 525 614 515 q 584 504 562 485 l 562 485 q 543 468 530 445 q 517 421 510 388 q 503 355 503 306 l 503 306 l 503 250 l 477 381 q 484 437 511 477 q 537 516 581 538 q 624 560 682 560 l 682 560 q 750 560 802 537 q 853 513 888 470 q 922 427 940 369 q 957 311 957 241 l 957 241 q 957 148 935 93 q 913 37 876 13 q 838 -12 789 -12 z"},"എ":{"ha":1073,"x_min":36,"x_max":1027,"o":"m 191 331 l 191 331 q 239 331 274 310 q 309 289 328 252 q 347 214 347 165 l 347 165 q 347 119 331 82 q 314 45 287 20 l 287 20 l 287 35 l 742 35 l 743 0 l 271 0 l 255 27 q 282 56 296 89 q 309 122 309 162 l 309 162 q 309 226 277 261 q 245 296 191 296 l 191 296 q 154 296 128 279 q 101 261 88 232 q 74 202 74 165 l 74 165 q 74 116 92 82 q 109 47 140 19 l 140 19 l 116 -8 q 80 27 58 67 q 36 107 36 165 l 36 165 q 36 213 56 250 q 75 287 110 309 q 145 331 191 331 z m 764 560 l 764 560 q 832 560 882 532 q 931 504 964 454 q 996 403 1012 334 q 1027 265 1027 183 l 1027 183 q 1027 102 1011 28 q 995 -46 963 -110 q 931 -175 885 -228 l 885 -228 l 856 -205 q 899 -155 928 -95 q 957 -35 973 35 q 988 104 988 182 l 988 182 q 988 252 976 315 q 964 377 938 424 q 911 471 868 498 q 825 525 763 525 l 763 525 q 690 525 638 480 q 586 434 559 348 q 531 262 531 139 l 531 139 q 531 108 532 80 q 533 51 535 26 l 535 26 q 535 23 536 20 q 536 16 536 13 l 536 13 q 543 -61 561 -106 q 578 -152 604 -172 q 630 -193 663 -193 l 663 -193 q 689 -193 704 -181 l 704 -181 q 720 -169 726 -144 q 732 -120 732 -82 l 732 -82 l 732 413 l 770 413 l 770 -80 q 770 -128 761 -158 q 752 -188 729 -206 l 729 -206 q 718 -216 702 -222 q 685 -228 664 -228 l 664 -228 q 613 -228 575 -193 q 536 -158 514 -77 q 492 4 492 141 l 492 141 q 492 242 511 320 q 530 398 566 452 q 601 505 652 533 q 702 560 764 560 z"},"ഏ":{"ha":1072,"x_min":36,"x_max":1039,"o":"m 191 331 l 191 331 q 239 331 274 310 q 309 289 328 252 q 347 214 347 165 l 347 165 q 347 119 331 82 q 314 45 287 20 l 287 20 l 287 35 l 742 35 l 743 0 l 271 0 l 255 27 q 282 56 296 89 q 309 122 309 162 l 309 162 q 309 226 277 261 q 245 296 191 296 l 191 296 q 154 296 128 279 q 101 261 88 232 q 74 202 74 165 l 74 165 q 74 116 92 82 q 109 47 140 19 l 140 19 l 116 -8 q 80 27 58 67 q 36 107 36 165 l 36 165 q 36 213 56 250 q 75 287 110 309 q 145 331 191 331 z m 803 560 l 803 560 q 861 560 904 543 q 946 525 975 494 q 1003 463 1017 423 q 1030 383 1030 337 l 1030 337 q 1030 284 1013 243 q 996 202 962 175 q 927 148 875 134 l 875 134 l 875 142 q 948 134 994 88 q 1039 41 1039 -44 l 1039 -44 q 1039 -107 1019 -148 q 999 -189 963 -208 q 927 -228 879 -228 l 879 -228 q 860 -228 842 -226 q 824 -224 810 -220 l 810 -220 l 818 -187 q 830 -190 846 -191 q 862 -193 877 -193 l 877 -193 q 914 -193 942 -178 q 969 -164 985 -131 q 1000 -98 1000 -44 l 1000 -44 q 1000 27 960 71 q 920 115 845 118 l 845 118 l 845 153 q 890 165 923 187 q 955 209 973 246 q 991 283 991 337 l 991 337 q 991 388 972 431 q 953 473 912 499 q 870 525 802 525 l 802 525 q 711 525 651 478 q 590 430 561 344 q 531 257 531 139 l 531 139 q 531 108 532 80 q 533 51 535 26 l 535 26 q 535 23 536 20 q 536 16 536 13 l 536 13 q 543 -61 561 -106 q 578 -152 604 -172 q 630 -193 663 -193 l 663 -193 q 689 -193 704 -181 l 704 -181 q 721 -169 727 -144 q 732 -120 732 -82 l 732 -82 l 732 413 l 770 413 l 770 -80 q 770 -128 761 -158 q 752 -188 729 -206 l 729 -206 q 718 -216 702 -222 q 685 -228 664 -228 l 664 -228 q 613 -228 575 -193 q 536 -158 514 -77 q 492 4 492 141 l 492 141 q 492 237 512 314 q 532 391 572 446 q 611 501 669 531 q 727 560 803 560 z"},"ഐ":{"ha":1684,"x_min":42,"x_max":1638,"o":"m 202 -12 l 202 -12 q 158 -12 122 11 q 85 34 64 87 q 43 139 43 228 l 43 228 q 43 307 65 369 q 86 430 125 473 q 163 516 213 538 q 263 560 318 560 l 318 560 q 379 560 426 539 q 473 518 505 481 q 536 444 552 393 q 568 342 568 282 l 568 282 q 568 207 549 153 q 529 99 498 60 q 466 21 430 -8 l 430 -8 l 406 20 q 438 46 466 81 q 494 116 512 165 q 529 213 529 280 l 529 280 q 529 350 506 406 q 483 461 437 493 q 390 525 318 525 l 318 525 q 251 525 197 489 q 143 452 111 386 q 79 319 79 228 l 79 228 q 79 155 94 110 q 109 64 137 44 q 164 23 202 23 l 202 23 q 228 23 250 35 q 271 47 284 75 q 297 103 297 151 l 297 151 q 297 206 272 239 q 246 272 195 272 l 195 272 q 154 272 120 252 q 86 232 62 204 l 62 204 l 54 235 q 86 272 123 290 q 160 307 198 307 l 198 307 q 237 307 268 290 q 298 273 317 239 q 335 205 335 152 l 335 152 q 335 95 317 59 q 299 23 269 6 q 239 -12 202 -12 z m 802 331 l 802 331 q 850 331 885 310 q 920 289 939 252 q 958 214 958 165 l 958 165 q 958 119 942 82 q 925 45 898 20 l 898 20 l 898 35 l 1353 35 l 1354 0 l 882 0 l 866 27 q 893 56 907 89 q 920 122 920 162 l 920 162 q 920 226 888 261 q 856 296 802 296 l 802 296 q 765 296 739 279 q 712 261 699 232 q 685 202 685 165 l 685 165 q 685 116 703 82 q 720 47 751 19 l 751 19 l 727 -8 q 691 27 669 67 q 647 107 647 165 l 647 165 q 647 213 667 250 q 686 287 721 309 q 756 331 802 331 z m 1375 560 l 1375 560 q 1443 560 1493 532 q 1542 504 1575 454 q 1607 403 1623 334 q 1638 265 1638 183 l 1638 183 q 1638 102 1622 28 q 1606 -46 1574 -110 q 1542 -175 1496 -228 l 1496 -228 l 1467 -205 q 1510 -155 1539 -95 q 1568 -35 1584 35 q 1599 104 1599 182 l 1599 182 q 1599 252 1587 315 q 1575 377 1549 424 q 1522 471 1479 498 q 1436 525 1374 525 l 1374 525 q 1301 525 1249 480 q 1197 434 1170 348 q 1142 262 1142 139 l 1142 139 q 1142 108 1143 80 q 1144 51 1146 26 l 1146 26 q 1146 23 1147 20 q 1147 16 1147 13 l 1147 13 q 1154 -61 1172 -106 q 1189 -152 1215 -172 q 1241 -193 1274 -193 l 1274 -193 q 1300 -193 1315 -181 l 1315 -181 q 1331 -169 1337 -144 q 1343 -120 1343 -82 l 1343 -82 l 1343 413 l 1381 413 l 1381 -80 q 1381 -128 1372 -158 q 1363 -188 1340 -206 l 1340 -206 q 1329 -216 1313 -222 q 1296 -228 1275 -228 l 1275 -228 q 1224 -228 1186 -193 q 1147 -158 1125 -77 q 1103 4 1103 141 l 1103 141 q 1103 242 1122 320 q 1141 398 1177 452 q 1212 505 1263 533 q 1313 560 1375 560 z"},"ഒ":{"ha":645,"x_min":43,"x_max":606,"o":"m 386 560 l 386 560 q 462 560 508 538 q 554 516 575 480 q 596 443 596 400 l 596 400 q 596 367 584 339 q 571 310 542 291 q 512 272 461 267 l 461 267 l 460 275 q 530 269 568 231 q 606 193 606 133 l 606 133 q 606 65 569 27 q 531 -11 460 -11 l 460 -11 q 437 -11 415 -7 q 393 -4 376 0 l 376 0 l 384 34 q 403 29 421 27 q 438 24 456 24 l 456 24 q 513 24 540 50 q 567 76 567 133 l 567 133 q 567 164 556 187 q 545 209 524 224 l 524 224 q 504 239 477 247 q 450 254 413 254 l 413 254 l 401 254 l 401 288 l 415 288 q 457 288 485 297 q 512 306 530 323 l 530 323 q 544 337 551 356 q 558 375 558 399 l 558 399 q 558 456 516 491 q 473 525 386 525 l 386 525 q 310 525 253 501 q 196 477 157 436 q 118 395 99 342 q 79 289 79 230 l 79 230 l 79 220 q 79 151 94 108 q 109 64 137 44 q 164 23 201 23 l 201 23 q 228 23 250 35 q 271 47 284 75 q 297 103 297 151 l 297 151 q 297 206 272 239 q 246 272 195 272 l 195 272 q 155 272 122 253 q 88 233 64 205 l 64 205 l 58 240 q 90 274 126 291 q 162 307 198 307 l 198 307 q 237 307 268 290 q 298 273 317 239 q 335 205 335 152 l 335 152 q 335 95 317 59 q 299 23 269 6 q 239 -12 201 -12 l 201 -12 q 157 -12 121 11 q 85 34 64 86 q 43 137 43 223 l 43 223 q 43 293 65 354 q 87 415 131 461 q 174 507 238 534 q 302 560 386 560 z"},"ഓ":{"ha":1072,"x_min":43,"x_max":1027,"o":"m 386 560 l 386 560 q 462 560 508 538 q 554 516 575 480 q 596 443 596 400 l 596 400 q 596 367 584 339 q 571 310 542 291 q 512 272 461 267 l 461 267 l 460 275 q 530 269 568 231 q 606 193 606 133 l 606 133 q 606 65 569 27 q 531 -11 460 -11 l 460 -11 q 437 -11 415 -7 q 393 -4 376 0 l 376 0 l 384 34 q 403 29 421 27 q 438 24 456 24 l 456 24 q 513 24 540 50 q 567 76 567 133 l 567 133 q 567 164 556 187 q 545 209 524 224 l 524 224 q 504 239 477 247 q 450 254 413 254 l 413 254 l 401 254 l 401 288 l 415 288 q 457 288 485 297 q 512 306 530 323 l 530 323 q 544 337 551 356 q 558 375 558 399 l 558 399 q 558 456 516 491 q 473 525 386 525 l 386 525 q 310 525 253 501 q 196 477 157 436 q 118 395 99 342 q 79 289 79 230 l 79 230 l 79 220 q 79 151 94 108 q 109 64 137 44 q 164 23 201 23 l 201 23 q 228 23 250 35 q 271 47 284 75 q 297 103 297 151 l 297 151 q 297 206 272 239 q 246 272 195 272 l 195 272 q 155 272 122 253 q 88 233 64 205 l 64 205 l 58 240 q 90 274 126 291 q 162 307 198 307 l 198 307 q 237 307 268 290 q 298 273 317 239 q 335 205 335 152 l 335 152 q 335 95 317 59 q 299 23 269 6 q 239 -12 201 -12 l 201 -12 q 157 -12 121 11 q 85 34 64 86 q 43 137 43 223 l 43 223 q 43 293 65 354 q 87 415 131 461 q 174 507 238 534 q 302 560 386 560 z m 1026 276 l 1026 276 q 1026 211 1016 158 q 1005 105 983 67 q 961 29 926 9 q 891 -12 842 -12 l 842 -12 q 802 -12 773 2 q 744 15 723 39 q 702 63 689 95 q 676 127 668 162 l 668 162 l 706 170 q 715 129 731 96 q 747 62 774 43 q 800 23 841 23 l 841 23 q 894 23 926 54 q 958 84 973 141 q 987 198 987 276 l 987 276 q 987 353 973 409 q 958 464 927 495 q 895 525 845 525 l 845 525 q 806 525 779 505 q 752 485 736 452 q 719 419 708 380 l 708 380 l 671 387 q 680 422 694 454 q 708 485 730 509 q 751 533 780 547 q 809 560 847 560 l 847 560 q 895 560 929 538 q 963 516 985 478 q 1006 440 1016 388 q 1026 336 1026 276 z"},"ഔ":{"ha":1293,"x_min":43,"x_max":1248,"o":"m 386 560 l 386 560 q 462 560 508 538 q 554 516 575 480 q 596 443 596 400 l 596 400 q 596 367 584 339 q 571 310 542 291 q 512 272 461 267 l 461 267 l 460 275 q 530 269 568 231 q 606 193 606 133 l 606 133 q 606 65 569 27 q 531 -11 460 -11 l 460 -11 q 437 -11 415 -7 q 393 -4 376 0 l 376 0 l 384 34 q 403 29 421 27 q 438 24 456 24 l 456 24 q 513 24 540 50 q 567 76 567 133 l 567 133 q 567 164 556 187 q 545 209 524 224 l 524 224 q 504 239 477 247 q 450 254 413 254 l 413 254 l 401 254 l 401 288 l 415 288 q 457 288 485 297 q 512 306 530 323 l 530 323 q 544 337 551 356 q 558 375 558 399 l 558 399 q 558 456 516 491 q 473 525 386 525 l 386 525 q 310 525 253 501 q 196 477 157 436 q 118 395 99 342 q 79 289 79 230 l 79 230 l 79 220 q 79 151 94 108 q 109 64 137 44 q 164 23 201 23 l 201 23 q 228 23 250 35 q 271 47 284 75 q 297 103 297 151 l 297 151 q 297 206 272 239 q 246 272 195 272 l 195 272 q 155 272 122 253 q 88 233 64 205 l 64 205 l 58 240 q 90 274 126 291 q 162 307 198 307 l 198 307 q 237 307 268 290 q 298 273 317 239 q 335 205 335 152 l 335 152 q 335 95 317 59 q 299 23 269 6 q 239 -12 201 -12 l 201 -12 q 157 -12 121 11 q 85 34 64 86 q 43 137 43 223 l 43 223 q 43 293 65 354 q 87 415 131 461 q 174 507 238 534 q 302 560 386 560 z m 1085 560 l 1085 560 q 1137 560 1174 529 q 1210 498 1229 441 q 1248 383 1248 302 l 1248 302 q 1248 197 1223 128 q 1198 58 1146 23 q 1094 -12 1013 -12 l 1013 -12 q 963 -12 922 -2 q 881 8 840 29 l 840 29 l 859 60 q 896 41 932 32 q 967 23 1012 23 l 1012 23 q 1088 23 1131 56 q 1173 89 1191 151 q 1209 213 1209 302 l 1209 302 q 1209 414 1175 470 q 1141 525 1084 525 l 1084 525 q 1057 525 1039 516 q 1021 506 1009 489 l 1009 489 q 990 464 984 427 q 977 390 977 344 l 977 344 l 977 256 l 940 256 l 940 344 q 940 398 932 434 q 924 469 906 491 l 906 491 q 893 507 875 516 q 856 525 832 525 l 832 525 q 776 525 748 484 q 719 443 719 382 l 719 382 q 719 349 724 320 q 729 290 737 259 l 737 259 l 701 252 q 692 283 687 317 q 681 350 681 384 l 681 384 q 681 433 698 473 q 715 513 749 537 q 783 560 831 560 l 831 560 q 881 560 915 532 q 949 503 962 436 l 962 436 l 953 434 q 965 500 1001 530 q 1036 560 1085 560 z"},"ക":{"ha":899,"x_min":35,"x_max":864,"o":"m 186 -12 l 186 -12 q 116 -12 76 28 q 35 68 35 143 l 35 143 q 35 184 51 213 q 67 242 93 261 l 93 261 q 117 279 147 289 q 176 299 214 303 q 252 307 303 307 l 303 307 l 604 307 q 680 307 727 298 q 773 288 807 263 l 807 263 q 834 243 849 214 q 864 184 864 142 l 864 142 q 864 72 826 30 q 788 -12 714 -12 l 714 -12 q 696 -12 675 -9 q 654 -7 632 -1 l 632 -1 l 641 33 q 659 28 677 26 q 694 23 713 23 l 713 23 q 773 23 799 55 q 825 86 825 141 l 825 141 q 825 175 814 199 q 802 222 782 237 l 782 237 q 751 259 709 266 q 667 272 604 272 l 604 272 l 298 272 q 234 272 190 265 q 146 258 116 235 l 116 235 q 96 219 85 197 q 74 174 74 143 l 74 143 q 74 97 90 71 q 105 45 132 34 q 158 23 189 23 l 189 23 q 226 23 257 35 q 288 46 326 75 l 326 75 l 349 48 q 323 29 299 16 q 274 2 247 -5 q 220 -12 186 -12 z m 452 560 l 452 560 q 517 560 558 526 q 599 492 619 429 q 638 366 638 276 l 638 276 q 638 173 615 110 q 592 46 550 17 q 508 -12 451 -12 l 451 -12 q 407 -12 375 5 q 342 22 319 51 l 319 51 q 290 90 277 149 q 264 208 264 276 l 264 276 q 264 414 313 487 q 362 560 452 560 z m 452 525 l 452 525 q 378 525 340 463 q 302 400 302 275 l 302 275 q 302 186 320 131 q 337 75 371 49 q 404 23 450 23 l 450 23 q 498 23 532 48 q 565 73 583 129 q 601 185 601 276 l 601 276 q 601 364 584 419 q 566 474 534 500 q 501 525 452 525 z"},"ഖ":{"ha":867,"x_min":43,"x_max":794,"o":"m 323 560 l 323 560 q 384 560 431 539 q 477 518 509 481 q 540 444 556 394 q 572 343 572 283 l 572 283 q 572 212 555 162 q 537 111 512 78 q 487 44 462 23 l 462 23 l 471 0 l 436 0 l 420 28 q 447 51 473 84 q 498 117 516 166 q 533 214 533 281 l 533 281 q 533 350 510 406 q 486 461 440 493 q 393 525 323 525 l 323 525 q 250 525 195 487 q 140 448 110 382 q 80 316 80 232 l 80 232 l 80 219 q 80 151 95 108 q 110 64 138 44 q 165 23 202 23 l 202 23 q 229 23 251 35 q 272 47 285 75 q 297 103 297 151 l 297 151 q 297 206 272 239 q 246 272 195 272 l 195 272 q 155 272 122 253 q 88 233 65 205 l 65 205 l 59 240 q 91 274 127 291 q 163 307 199 307 l 199 307 q 237 307 268 290 q 299 273 317 239 q 335 205 335 152 l 335 152 q 335 95 318 59 q 300 23 270 6 q 240 -12 202 -12 l 202 -12 q 158 -12 122 11 q 86 34 65 86 q 43 137 43 224 l 43 224 q 43 327 79 403 q 115 478 179 519 q 242 560 323 560 z m 757 548 l 794 548 l 794 0 l 451 0 l 451 35 l 757 35 l 757 548 z"},"ഗ":{"ha":761,"x_min":43,"x_max":718,"o":"m 528 560 l 528 560 q 587 560 630 528 q 673 495 696 436 q 718 376 718 294 l 718 294 q 718 219 701 165 q 683 110 653 69 q 623 28 586 -8 l 586 -8 l 560 19 q 595 51 622 89 q 648 127 664 177 q 679 227 679 294 l 679 294 q 679 366 661 418 q 643 469 609 497 q 575 525 528 525 l 528 525 q 494 525 472 515 q 450 504 436 486 l 436 486 q 413 457 406 411 q 399 365 399 293 l 399 293 l 399 233 q 399 185 395 149 q 391 112 381 85 q 370 58 351 35 l 351 35 q 332 13 303 1 q 274 -12 234 -12 l 234 -12 q 174 -12 131 20 q 88 52 66 112 q 43 172 43 254 l 43 254 q 43 329 61 384 q 78 438 108 480 q 138 521 175 556 l 175 556 l 201 529 q 167 497 140 459 q 113 421 98 372 q 82 322 82 254 l 82 254 q 82 182 100 130 q 118 78 152 51 q 186 23 232 23 l 232 23 q 268 23 290 33 q 311 43 325 62 l 325 62 q 348 90 355 135 q 361 180 361 255 l 361 255 l 361 313 q 361 385 371 432 q 381 479 409 512 l 409 512 q 429 534 458 547 q 487 560 528 560 z"},"ഘ":{"ha":1128,"x_min":35,"x_max":1055,"o":"m 190 560 l 190 560 q 238 560 273 539 q 308 518 327 482 q 346 445 346 396 l 346 396 q 346 351 331 315 q 316 279 288 253 l 288 253 l 289 268 l 470 268 l 475 233 l 273 233 l 256 260 q 282 288 295 321 q 308 354 308 393 l 308 393 q 308 456 276 491 q 244 525 190 525 l 190 525 q 153 525 127 508 q 100 490 87 461 q 73 432 73 395 l 73 395 q 73 348 90 314 q 106 280 137 252 l 137 252 l 113 226 q 77 260 56 299 q 35 338 35 396 l 35 396 q 35 443 55 480 q 74 517 109 539 q 144 560 190 560 z m 1018 548 l 1055 548 l 1055 0 l 455 0 l 455 325 q 455 396 470 440 q 484 483 513 510 l 513 510 q 537 535 573 548 q 608 560 651 560 l 651 560 q 695 560 729 549 q 763 537 786 515 l 786 515 q 815 488 830 443 q 844 398 844 332 l 844 332 l 844 233 l 492 233 l 492 35 l 1018 35 l 1018 548 z m 651 525 l 651 525 q 572 525 532 479 q 492 432 492 326 l 492 326 l 492 268 l 807 268 l 807 324 q 807 433 770 479 q 732 525 651 525 z"},"ങ":{"ha":911,"x_min":45,"x_max":872,"o":"m 305 560 l 305 560 q 384 560 432 520 q 479 479 492 402 l 492 402 l 494 350 l 503 235 l 503 0 l 466 0 l 466 316 q 466 387 452 428 q 437 468 409 492 l 409 492 q 389 509 365 517 q 340 525 304 525 l 304 525 q 236 525 186 488 q 136 450 109 385 q 82 320 82 236 l 82 236 l 82 225 q 82 153 97 109 q 112 64 140 44 q 167 23 204 23 l 204 23 q 230 23 252 35 q 273 47 286 75 q 299 103 299 151 l 299 151 q 299 206 274 239 q 248 272 197 272 l 197 272 q 157 272 123 252 q 89 232 65 204 l 65 204 l 56 235 q 88 272 126 290 q 163 307 201 307 l 201 307 q 239 307 270 290 q 300 273 319 239 q 337 205 337 152 l 337 152 q 337 95 320 59 q 302 23 272 6 q 242 -12 204 -12 l 204 -12 q 160 -12 124 11 q 88 34 67 87 q 45 139 45 228 l 45 228 q 45 332 78 406 q 111 480 170 520 q 228 560 305 560 z m 692 560 l 692 560 q 746 560 784 540 q 822 520 842 487 q 862 453 862 410 l 862 410 q 862 373 850 343 q 837 312 808 293 q 778 273 726 267 l 726 267 l 726 275 q 796 269 834 231 q 872 193 872 133 l 872 133 q 872 65 835 27 q 797 -11 726 -11 l 726 -11 q 702 -11 681 -7 q 659 -4 642 0 l 642 0 l 650 34 q 669 29 687 27 q 704 24 722 24 l 722 24 q 778 24 806 50 q 833 76 833 133 l 833 133 q 833 164 822 187 q 810 209 790 224 l 790 224 q 769 239 742 247 q 714 254 672 254 l 672 254 l 657 254 l 657 288 l 675 288 q 719 288 748 297 q 777 305 794 324 l 794 324 q 808 338 816 359 q 823 379 823 408 l 823 408 q 823 462 788 494 q 753 525 691 525 l 691 525 q 650 525 618 512 q 585 499 561 473 l 561 473 q 543 455 530 429 q 517 403 510 367 q 503 331 503 280 l 503 280 l 503 175 l 477 177 l 475 296 l 480 370 q 488 429 516 472 q 543 514 588 537 q 633 560 692 560 z"},"ച":{"ha":802,"x_min":16,"x_max":729,"o":"m 692 548 l 729 548 l 729 0 l 16 0 l 16 35 l 360 35 l 336 22 q 364 51 387 90 q 409 128 409 183 l 409 183 q 409 246 380 280 q 350 314 299 314 l 299 314 q 246 314 217 281 q 188 247 188 189 l 188 189 q 188 175 189 162 q 190 149 193 137 l 193 137 l 156 131 q 153 144 151 159 q 149 174 149 191 l 149 191 q 149 266 192 307 q 235 348 299 348 l 299 348 q 334 348 362 337 q 389 325 408 303 q 427 281 437 251 q 447 221 447 184 l 447 184 q 447 146 437 116 q 427 86 412 63 q 396 40 381 22 l 381 22 l 367 35 l 692 35 l 692 548 z"},"ഛ":{"ha":1163,"x_min":16,"x_max":1121,"o":"m 299 348 l 299 348 q 334 348 362 337 q 389 325 408 303 q 427 281 437 251 q 447 221 447 184 l 447 184 q 447 146 437 116 q 427 86 412 63 q 396 40 381 22 l 381 22 l 367 35 l 698 35 l 701 0 l 16 0 l 16 35 l 360 35 l 336 22 q 364 51 387 90 q 409 128 409 183 l 409 183 q 409 246 380 280 q 350 314 299 314 l 299 314 q 246 314 217 281 q 188 247 188 189 l 188 189 q 188 175 189 162 q 190 149 193 137 l 193 137 l 156 131 q 153 144 151 159 q 149 174 149 191 l 149 191 q 149 266 192 307 q 235 348 299 348 z m 846 560 l 846 560 q 914 560 966 537 q 1017 513 1052 470 q 1086 427 1104 369 q 1121 311 1121 241 l 1121 241 q 1121 148 1100 93 q 1078 37 1040 13 q 1002 -12 953 -12 l 953 -12 q 900 -12 866 14 q 831 40 815 86 q 798 132 798 190 l 798 190 q 798 286 843 336 q 887 385 957 385 l 957 385 q 997 385 1027 368 q 1057 351 1078 324 q 1099 296 1111 262 l 1111 262 l 1098 247 q 1087 272 1068 296 q 1049 319 1023 335 q 997 350 962 350 l 962 350 q 898 350 867 308 q 836 266 836 191 l 836 191 q 836 142 848 104 q 859 66 885 45 q 911 23 955 23 l 955 23 q 995 23 1024 45 q 1053 66 1069 115 q 1084 163 1084 242 l 1084 242 q 1084 253 1083 267 q 1082 281 1081 289 l 1081 289 q 1081 293 1082 298 q 1082 303 1081 307 l 1081 307 q 1073 363 1047 413 q 1020 463 971 494 q 922 525 846 525 l 846 525 q 780 525 728 496 q 676 466 647 411 q 618 356 618 280 l 618 280 q 618 220 633 174 q 647 127 673 92 q 698 56 730 28 l 730 28 l 713 0 l 691 0 l 683 27 q 662 48 638 81 q 613 114 596 164 q 579 213 579 282 l 579 282 q 579 338 596 388 q 612 437 646 476 q 679 515 729 538 q 779 560 846 560 z"},"ജ":{"ha":809,"x_min":36,"x_max":767,"o":"m 256 560 l 256 560 q 306 560 344 545 q 382 530 407 500 q 432 469 445 420 l 445 420 l 431 411 q 445 490 488 525 q 530 560 593 560 l 593 560 q 652 560 691 535 q 729 509 748 468 q 767 427 767 381 l 767 381 q 767 342 757 310 q 746 277 723 253 q 699 228 660 213 l 660 213 l 607 205 l 568 195 q 547 190 518 187 q 488 183 444 183 l 444 183 l 215 183 q 170 183 143 178 q 115 173 98 158 l 98 158 q 86 150 80 137 q 74 123 74 105 l 74 105 q 74 76 87 58 q 99 39 121 31 q 143 22 170 22 l 170 22 q 207 22 240 31 q 272 39 306 56 q 340 73 380 99 l 380 99 q 419 124 445 141 q 471 157 490 168 q 508 179 523 187 q 538 194 555 201 l 555 201 q 566 206 576 210 q 586 214 597 217 q 607 220 617 222 q 626 223 634 223 l 634 223 q 665 223 690 212 q 715 200 730 175 q 744 150 744 110 l 744 110 q 744 47 710 18 q 676 -12 628 -12 l 628 -12 q 584 -12 558 6 q 532 24 521 52 q 510 80 510 111 l 510 111 q 510 143 522 165 q 533 186 557 210 l 557 210 l 584 212 q 573 201 564 187 q 555 173 550 155 q 544 137 544 114 l 544 114 q 544 70 565 46 q 585 21 627 21 l 627 21 q 665 21 687 43 q 708 65 708 110 l 708 110 q 708 144 697 163 q 685 182 666 190 q 647 198 626 198 l 626 198 q 605 198 585 190 q 565 182 548 168 l 548 168 l 541 172 q 528 161 512 148 q 495 134 471 118 q 447 101 410 76 l 410 76 q 362 46 324 27 q 286 7 250 -2 q 214 -12 170 -12 l 170 -12 q 138 -12 107 -1 q 76 10 56 36 q 36 62 36 105 l 36 105 q 36 131 45 150 q 54 169 71 182 l 71 182 q 93 202 125 210 q 156 217 209 217 l 209 217 l 487 217 q 538 217 574 222 q 610 226 636 236 q 661 245 679 259 l 679 259 q 705 279 717 309 q 728 339 728 379 l 728 379 q 728 415 715 448 q 701 481 672 503 q 642 525 591 525 l 591 525 q 561 525 540 517 q 519 509 503 494 l 503 494 q 476 468 467 429 q 457 389 457 334 l 457 334 l 457 258 l 420 258 l 420 333 q 420 389 408 430 q 395 470 363 495 l 363 495 q 342 511 317 519 q 291 526 255 526 l 255 526 q 196 526 154 506 q 111 485 89 446 l 89 446 q 87 442 87 439 q 87 435 85 431 l 85 431 q 81 419 79 407 q 77 395 77 382 l 77 382 q 77 324 101 301 q 125 277 162 277 l 162 277 q 193 277 210 291 q 227 304 234 324 q 241 343 241 364 l 241 364 q 241 402 222 424 q 202 446 161 446 l 161 446 q 132 446 107 434 q 81 421 56 397 l 56 397 l 60 428 q 81 449 109 463 q 136 476 167 476 l 167 476 q 205 476 230 460 q 254 444 267 419 q 279 394 279 366 l 279 366 q 279 332 266 305 q 252 277 227 261 q 201 245 163 245 l 163 245 q 105 245 74 281 q 42 316 42 383 l 42 383 q 42 431 67 471 q 91 511 139 536 q 186 560 256 560 z"},"ഝ":{"ha":1428,"x_min":43,"x_max":1385,"o":"m 569 560 l 569 560 q 611 560 645 549 q 678 537 702 517 l 702 517 q 740 484 757 434 q 773 383 773 298 l 773 298 l 773 237 q 773 164 781 124 q 789 84 810 59 l 810 59 q 824 42 845 33 q 866 23 897 23 l 897 23 q 923 23 942 31 q 961 39 975 53 l 975 53 q 999 78 1009 119 q 1018 159 1018 221 l 1018 221 l 1018 548 l 1056 548 l 1056 231 q 1056 167 1066 126 q 1075 84 1100 58 l 1100 58 q 1116 42 1137 33 q 1158 23 1190 23 l 1190 23 q 1242 23 1277 55 q 1311 87 1329 140 q 1346 192 1346 252 l 1346 252 q 1346 321 1331 371 q 1315 421 1289 458 q 1262 495 1228 527 l 1228 527 l 1253 554 q 1289 520 1320 480 q 1350 439 1368 385 q 1385 330 1385 252 l 1385 252 q 1385 179 1363 119 q 1340 59 1296 24 q 1252 -12 1188 -12 l 1188 -12 q 1123 -12 1086 23 q 1049 58 1034 125 l 1034 125 l 1041 127 q 1034 81 1015 50 q 995 19 965 4 q 935 -12 895 -12 l 895 -12 q 858 -12 830 0 q 802 12 783 34 l 783 34 q 767 53 756 77 q 745 101 740 136 q 735 171 735 222 l 735 222 l 735 281 q 735 339 729 379 q 723 418 711 445 q 698 471 676 489 l 676 489 q 656 506 630 516 q 603 525 568 525 l 568 525 q 535 525 508 517 q 481 509 455 493 l 455 493 l 442 485 q 401 457 373 412 q 344 366 329 313 q 314 260 314 207 l 314 207 q 314 138 330 98 q 345 57 373 40 q 400 23 435 23 l 435 23 q 470 23 497 41 q 524 59 540 100 q 555 141 555 209 l 555 209 q 555 262 540 315 q 525 368 496 414 q 466 459 424 487 l 424 487 l 414 494 q 389 510 361 518 q 332 525 300 525 l 300 525 q 226 525 178 492 q 129 459 106 403 q 82 347 82 280 l 82 280 q 82 218 97 170 q 111 122 139 86 q 166 50 203 21 l 203 21 l 179 -8 q 145 19 114 58 q 82 96 63 151 q 43 206 43 281 l 43 281 q 43 341 60 392 q 76 442 109 480 q 142 518 190 539 q 237 560 299 560 l 299 560 q 340 560 376 549 q 411 537 444 514 l 444 514 l 456 504 q 520 458 557 379 q 594 300 594 209 l 594 209 q 594 132 574 84 q 554 35 518 12 q 482 -12 435 -12 l 435 -12 q 388 -12 352 11 q 316 34 296 83 q 275 131 275 207 l 275 207 q 275 267 291 323 q 307 378 338 425 q 369 472 413 504 l 413 504 l 423 512 q 457 536 494 548 q 530 560 569 560 z"},"ഞ":{"ha":1241,"x_min":45,"x_max":1199,"o":"m 305 560 l 305 560 q 384 560 432 520 q 479 479 492 402 l 492 402 l 494 355 l 503 231 l 503 0 l 466 0 l 466 316 q 466 387 452 428 q 437 468 409 492 l 409 492 q 389 509 365 517 q 340 525 304 525 l 304 525 q 236 525 186 488 q 136 450 109 385 q 82 320 82 236 l 82 236 l 82 225 q 82 153 97 109 q 112 64 140 44 q 167 23 204 23 l 204 23 q 230 23 252 35 q 273 47 286 75 q 299 103 299 151 l 299 151 q 299 206 274 239 q 248 272 197 272 l 197 272 q 157 272 123 252 q 89 232 65 204 l 65 204 l 56 235 q 88 272 126 290 q 163 307 201 307 l 201 307 q 239 307 270 290 q 300 273 319 239 q 337 205 337 152 l 337 152 q 337 95 320 59 q 302 23 272 6 q 242 -12 204 -12 l 204 -12 q 160 -12 124 11 q 88 34 67 87 q 45 139 45 228 l 45 228 q 45 332 78 406 q 111 480 170 520 q 228 560 305 560 z m 670 560 l 670 560 q 713 560 748 549 q 783 538 815 515 l 815 515 l 828 505 q 890 459 928 381 q 965 302 965 209 l 965 209 q 965 132 945 84 q 924 35 888 12 q 852 -12 805 -12 l 805 -12 q 758 -12 722 11 q 686 34 666 83 q 646 131 646 207 l 646 207 q 646 267 663 323 q 679 378 711 425 q 743 472 787 504 l 787 504 l 796 512 q 830 535 869 548 q 907 560 951 560 l 951 560 q 1011 560 1057 539 q 1103 518 1135 481 q 1167 443 1183 393 q 1199 342 1199 282 l 1199 282 q 1199 207 1179 153 q 1159 99 1128 60 q 1097 21 1061 -8 l 1061 -8 l 1037 20 q 1069 46 1097 81 q 1125 115 1143 164 q 1160 213 1160 280 l 1160 280 q 1160 350 1137 406 q 1113 461 1066 493 q 1019 525 949 525 l 949 525 q 914 525 884 517 q 854 508 828 492 l 828 492 l 816 484 q 774 456 745 411 q 715 366 700 313 q 684 260 684 207 l 684 207 q 684 138 700 98 q 715 57 743 40 q 770 23 805 23 l 805 23 q 840 23 867 41 q 894 59 910 100 q 926 141 926 209 l 926 209 q 926 263 911 317 q 895 370 867 415 q 838 460 796 488 l 796 488 l 786 494 q 769 505 751 512 q 733 519 713 522 q 693 525 671 525 l 671 525 q 635 525 609 516 q 582 506 562 489 l 562 489 q 531 462 517 419 q 503 376 503 304 l 503 304 l 503 57 l 472 57 l 474 235 l 478 398 q 489 453 515 489 q 541 524 581 542 q 620 560 670 560 z"},"ട":{"ha":472,"x_min":20,"x_max":443,"o":"m 232 560 l 232 560 q 296 560 346 547 q 396 533 443 511 l 443 511 l 421 480 q 376 503 331 514 q 286 525 232 525 l 232 525 q 174 525 139 509 q 104 492 89 466 q 73 439 73 407 l 73 407 q 73 379 81 360 q 89 341 103 328 l 103 328 q 124 308 158 303 q 192 297 238 297 l 238 297 l 243 297 q 299 297 335 287 q 370 276 396 252 l 396 252 q 415 235 426 209 q 436 183 436 147 l 436 147 q 436 101 415 65 q 393 29 349 9 q 304 -12 235 -12 l 235 -12 q 173 -12 122 2 q 71 15 20 41 l 20 41 l 40 71 q 68 57 97 47 q 126 36 160 30 q 194 23 235 23 l 235 23 q 296 23 331 40 q 366 56 382 84 q 397 112 397 147 l 397 147 q 397 174 390 195 q 382 215 367 229 l 367 229 q 347 246 318 254 q 288 261 238 262 l 238 262 l 233 262 q 173 262 135 272 q 96 282 71 307 l 71 307 q 54 325 44 350 q 34 374 34 407 l 34 407 q 34 449 56 484 q 77 518 121 539 q 165 560 232 560 z"},"ഠ":{"ha":565,"x_min":43,"x_max":523,"o":"m 284 560 l 284 560 q 359 560 413 526 q 466 491 495 428 q 523 364 523 273 l 523 273 q 523 185 494 121 q 465 57 411 23 q 356 -12 281 -12 l 281 -12 q 204 -12 151 24 q 98 59 71 124 q 43 188 43 275 l 43 275 q 43 364 73 428 q 102 491 156 526 q 210 560 284 560 z m 281 23 l 281 23 q 348 23 393 55 q 438 86 461 143 q 483 200 483 275 l 483 275 q 483 353 461 409 q 438 465 394 495 q 349 525 283 525 l 283 525 q 188 525 135 458 q 82 391 82 275 l 82 275 q 82 155 134 89 q 185 23 281 23 z"},"ഡ":{"ha":1055,"x_min":43,"x_max":1012,"o":"m 521 -12 l 521 -12 q 484 -12 457 0 q 429 12 410 34 l 410 34 q 393 53 383 77 q 372 101 367 136 q 361 171 361 222 l 361 222 l 361 296 q 361 368 355 413 q 348 458 325 486 l 325 486 q 311 504 290 515 q 268 525 232 525 l 232 525 q 186 525 152 497 q 118 469 100 418 q 82 366 82 294 l 82 294 q 82 227 98 177 q 113 126 140 89 q 167 51 200 19 l 200 19 l 175 -8 q 138 27 108 68 q 78 109 61 164 q 43 219 43 294 l 43 294 q 43 376 66 436 q 88 495 131 528 q 174 560 234 560 l 234 560 q 274 560 303 548 q 332 535 351 512 l 351 512 q 370 491 381 464 q 391 436 395 400 q 399 364 399 314 l 399 314 l 399 237 q 399 165 408 125 q 416 84 436 59 l 436 59 q 451 42 472 33 q 493 23 523 23 l 523 23 q 550 23 569 31 q 588 39 602 53 l 602 53 q 626 77 636 118 q 645 159 645 221 l 645 221 l 645 548 l 682 548 l 682 230 q 682 167 692 126 q 702 84 727 58 l 727 58 q 742 42 764 33 q 785 23 817 23 l 817 23 q 869 23 904 55 q 938 87 956 140 q 973 192 973 252 l 973 252 q 973 321 958 371 q 942 421 915 458 q 888 495 854 527 l 854 527 l 880 554 q 916 520 946 480 q 976 439 994 385 q 1012 330 1012 252 l 1012 252 q 1012 179 989 119 q 966 59 922 24 q 878 -12 814 -12 l 814 -12 q 750 -12 713 23 q 676 58 660 125 l 660 125 l 667 127 q 657 58 619 23 q 581 -12 521 -12 z"},"ഢ":{"ha":1148,"x_min":43,"x_max":1103,"o":"m 521 -12 l 521 -12 q 484 -12 457 0 q 429 12 410 34 l 410 34 q 393 53 383 77 q 372 101 367 136 q 361 171 361 222 l 361 222 l 361 296 q 361 368 355 413 q 348 458 325 486 l 325 486 q 311 504 290 515 q 268 525 232 525 l 232 525 q 186 525 152 497 q 118 469 100 418 q 82 366 82 294 l 82 294 q 82 227 98 177 q 113 126 140 89 q 167 51 200 19 l 200 19 l 175 -9 q 138 27 108 69 q 78 110 61 165 q 43 219 43 294 l 43 294 q 43 377 66 436 q 88 495 131 528 q 174 560 234 560 l 234 560 q 274 560 303 548 q 332 535 351 512 l 351 512 q 370 491 381 464 q 391 436 395 400 q 399 364 399 314 l 399 314 l 399 237 q 399 165 408 125 q 416 84 436 59 l 436 59 q 451 42 472 33 q 493 23 523 23 l 523 23 q 550 23 569 31 q 588 39 602 53 l 602 53 q 626 78 636 119 q 645 159 645 221 l 645 221 l 645 548 l 682 548 l 682 243 l 667 127 q 657 58 619 23 q 581 -12 521 -12 z m 945 560 l 945 560 q 989 560 1025 537 q 1060 514 1082 462 q 1103 409 1103 319 l 1103 319 q 1103 217 1070 143 q 1037 68 979 28 q 920 -12 843 -12 l 843 -12 q 765 -12 718 28 q 671 68 658 144 l 658 144 l 653 288 l 654 528 l 682 528 l 682 232 q 682 161 697 121 q 711 80 740 56 l 740 56 q 760 39 784 31 q 808 23 844 23 l 844 23 q 913 23 963 61 q 1012 98 1039 164 q 1066 229 1066 312 l 1066 312 l 1066 323 q 1066 395 1051 440 q 1036 484 1009 505 q 981 525 944 525 l 944 525 q 918 525 897 513 q 875 501 862 473 q 849 445 849 397 l 849 397 q 849 343 875 309 q 900 275 951 275 l 951 275 q 992 275 1026 296 q 1060 316 1084 344 l 1084 344 l 1092 312 q 1061 276 1024 258 q 986 240 947 240 l 947 240 q 910 240 879 257 q 848 274 830 309 q 811 344 811 396 l 811 396 q 811 452 829 488 q 847 524 877 542 q 907 560 945 560 z"},"ണ":{"ha":1179,"x_min":45,"x_max":1136,"o":"m 305 560 l 305 560 q 384 560 428 523 q 471 485 489 419 l 489 419 l 480 419 q 494 485 533 523 q 571 560 637 560 l 637 560 q 703 560 742 525 q 781 490 792 421 l 792 421 l 783 422 q 799 490 837 525 q 875 560 940 560 l 940 560 q 1003 560 1047 525 q 1091 489 1114 429 q 1136 369 1136 295 l 1136 295 q 1136 219 1119 164 q 1101 109 1071 69 q 1040 29 1003 -7 l 1003 -7 l 978 21 q 1012 52 1039 90 q 1066 128 1082 178 q 1097 227 1097 295 l 1097 295 q 1097 356 1080 409 q 1062 461 1028 493 q 993 525 941 525 l 941 525 q 909 525 888 516 q 866 507 851 490 l 851 490 q 826 464 816 423 q 806 381 806 317 l 806 317 l 806 0 l 769 0 l 769 322 q 769 386 761 423 q 752 460 731 485 l 731 485 q 715 504 693 515 q 670 525 636 525 l 636 525 q 604 525 581 514 q 558 503 543 485 l 543 485 q 521 460 513 422 q 504 383 504 321 l 504 321 l 504 0 l 466 0 l 466 315 q 466 387 452 428 q 437 468 409 492 l 409 492 q 389 509 365 517 q 340 525 304 525 l 304 525 q 236 525 186 488 q 136 450 109 385 q 82 320 82 236 l 82 236 l 82 225 q 82 153 97 109 q 112 64 140 44 q 167 23 204 23 l 204 23 q 230 23 252 35 q 273 47 286 75 q 299 103 299 151 l 299 151 q 299 206 274 239 q 248 272 197 272 l 197 272 q 157 272 123 252 q 89 232 65 204 l 65 204 l 56 235 q 88 272 126 290 q 163 307 201 307 l 201 307 q 239 307 270 290 q 300 273 319 239 q 337 205 337 152 l 337 152 q 337 95 320 59 q 302 23 272 6 q 242 -12 204 -12 l 204 -12 q 160 -12 124 11 q 88 34 67 87 q 45 139 45 228 l 45 228 q 45 332 78 406 q 111 480 170 520 q 228 560 305 560 z"},"ത":{"ha":871,"x_min":43,"x_max":828,"o":"m 435 -12 l 435 -12 q 388 -12 352 11 q 316 34 296 83 q 275 131 275 207 l 275 207 q 275 267 292 323 q 309 378 341 425 q 373 472 416 504 l 416 504 l 426 512 q 460 535 499 548 q 537 560 581 560 l 581 560 q 641 560 687 539 q 733 518 765 481 q 796 443 812 393 q 828 342 828 282 l 828 282 q 828 207 809 153 q 790 99 759 60 q 727 21 691 -8 l 691 -8 l 667 20 q 699 46 727 81 q 755 115 772 164 q 789 213 789 280 l 789 280 q 789 351 766 406 q 742 461 696 493 q 649 525 579 525 l 579 525 q 543 525 513 517 q 483 508 457 492 l 457 492 l 445 484 q 404 456 375 411 q 345 366 330 313 q 314 260 314 207 l 314 207 q 314 138 330 98 q 345 57 373 40 q 400 23 435 23 l 435 23 q 470 23 497 41 q 524 59 540 100 q 555 141 555 209 l 555 209 q 555 262 540 316 q 525 369 496 414 q 466 459 424 487 l 424 487 l 414 494 q 389 510 361 518 q 332 525 300 525 l 300 525 q 226 525 178 492 q 129 459 106 404 q 82 348 82 280 l 82 280 q 82 218 97 170 q 111 122 139 86 q 166 50 203 21 l 203 21 l 179 -8 q 145 19 114 58 q 82 96 63 151 q 43 206 43 281 l 43 281 q 43 341 60 392 q 76 442 109 480 q 142 518 190 539 q 237 560 299 560 l 299 560 q 340 560 376 548 q 411 536 444 513 l 444 513 l 457 504 q 520 458 557 379 q 594 300 594 209 l 594 209 q 594 132 574 84 q 554 35 518 12 q 482 -12 435 -12 z"},"ഥ":{"ha":774,"x_min":72,"x_max":709,"o":"m 72 548 l 110 548 l 110 35 l 335 35 l 335 0 l 72 0 l 72 548 z m 509 560 l 509 560 q 557 560 593 545 q 628 529 652 504 l 652 504 q 684 470 697 423 q 709 375 709 305 l 709 305 l 709 0 l 310 0 l 310 312 q 310 356 316 392 q 322 427 335 455 q 347 483 369 505 l 369 505 q 393 530 428 545 q 463 560 509 560 z m 509 525 l 509 525 q 472 525 443 513 q 414 501 395 479 l 395 479 q 369 451 359 409 q 348 366 348 295 l 348 295 l 348 35 l 672 35 l 672 294 q 672 362 662 406 q 651 450 625 478 l 625 478 q 605 500 577 513 q 548 525 509 525 z"},"ദ":{"ha":544,"x_min":52,"x_max":505,"o":"m 322 560 l 322 560 q 378 560 417 541 q 455 521 476 488 q 496 454 496 410 l 496 410 q 496 347 464 313 q 431 278 370 269 l 370 269 l 369 275 q 435 268 470 229 q 505 190 505 131 l 505 131 q 505 62 464 26 q 422 -11 349 -11 l 349 -11 q 320 -11 298 -7 q 276 -4 259 0 l 259 0 l 267 34 q 286 30 305 27 q 324 24 347 24 l 347 24 q 405 24 436 50 q 467 76 467 132 l 467 132 q 467 161 457 183 q 447 205 429 221 l 429 221 q 409 237 381 246 q 352 254 304 254 l 304 254 l 274 254 l 274 288 l 304 288 q 349 288 378 296 q 406 303 424 321 l 424 321 q 440 335 449 356 q 457 377 457 408 l 457 408 q 457 465 421 495 q 385 525 321 525 l 321 525 q 245 525 193 485 q 141 445 116 376 q 90 306 90 219 l 90 219 q 90 160 97 107 q 104 53 116 2 l 116 2 l 80 -5 q 67 46 60 105 q 52 164 52 218 l 52 218 q 52 320 84 397 q 115 473 176 517 q 236 560 322 560 z"},"ധ":{"ha":782,"x_min":43,"x_max":740,"o":"m 541 -12 l 541 -12 q 498 -12 467 4 q 436 20 417 51 q 398 82 388 126 l 388 126 l 395 126 q 380 58 342 23 q 304 -12 240 -12 l 240 -12 q 176 -12 132 24 q 88 59 66 119 q 43 179 43 252 l 43 252 q 43 329 61 384 q 78 438 108 479 q 138 519 175 554 l 175 554 l 201 527 q 167 495 140 458 q 113 420 98 371 q 82 321 82 252 l 82 252 q 82 192 99 140 q 116 87 151 55 q 186 23 238 23 l 238 23 q 271 23 292 33 q 313 42 328 58 l 328 58 q 353 84 363 126 q 372 167 372 231 l 372 231 l 372 548 l 410 548 l 410 231 q 410 167 420 126 q 430 85 454 59 l 454 59 q 470 42 491 33 q 511 23 540 23 l 540 23 q 593 23 629 54 q 664 85 683 138 q 701 191 701 254 l 701 254 q 701 322 686 372 q 670 421 643 458 q 616 495 582 527 l 582 527 l 608 554 q 644 520 674 480 q 704 439 722 385 q 740 330 740 254 l 740 254 q 740 175 716 115 q 691 55 647 22 q 602 -12 541 -12 z"},"ന":{"ha":782,"x_min":43,"x_max":740,"o":"m 242 560 l 242 560 q 284 560 315 544 q 346 528 366 497 q 386 466 394 422 l 394 422 l 387 422 q 403 490 441 525 q 478 560 543 560 l 543 560 q 606 560 650 525 q 694 489 717 429 q 740 369 740 295 l 740 295 q 740 219 722 164 q 704 109 674 69 q 644 29 607 -6 l 607 -6 l 582 21 q 616 52 643 90 q 670 128 686 178 q 701 227 701 295 l 701 295 q 701 356 684 409 q 666 461 631 493 q 596 525 544 525 l 544 525 q 512 525 491 516 q 470 507 454 490 l 454 490 q 429 464 420 423 q 410 381 410 317 l 410 317 l 410 0 l 372 0 l 372 317 q 372 381 363 423 q 353 464 328 489 l 328 489 q 313 506 293 516 q 272 525 242 525 l 242 525 q 189 525 154 494 q 118 462 100 410 q 82 357 82 294 l 82 294 q 82 226 98 177 q 113 127 140 90 q 167 52 200 21 l 200 21 l 174 -6 q 138 28 108 69 q 78 109 61 164 q 43 218 43 294 l 43 294 q 43 373 67 433 q 91 493 136 527 q 181 560 242 560 z"},"ഩ":{"ha":876,"x_min":45,"x_max":833,"o":"m 305 560 l 305 560 q 384 560 428 523 q 472 485 489 420 l 489 420 l 481 423 q 497 491 535 526 q 572 560 636 560 l 636 560 q 700 560 744 525 q 788 489 811 429 q 833 369 833 295 l 833 295 q 833 219 816 165 q 798 110 768 70 q 738 29 701 -6 l 701 -6 l 675 21 q 710 52 737 90 q 763 128 779 178 q 794 227 794 295 l 794 295 q 794 356 777 409 q 759 461 725 493 q 690 525 638 525 l 638 525 q 606 525 585 516 q 563 507 548 490 l 548 490 q 523 464 513 423 q 503 381 503 316 l 503 316 l 503 0 l 466 0 l 466 316 q 466 387 452 428 q 437 468 409 492 l 409 492 q 389 509 365 517 q 340 525 304 525 l 304 525 q 236 525 186 488 q 136 450 109 385 q 82 320 82 236 l 82 236 l 82 225 q 82 153 97 109 q 112 64 140 44 q 167 23 204 23 l 204 23 q 230 23 252 35 q 273 47 286 75 q 299 103 299 151 l 299 151 q 299 206 274 239 q 248 272 197 272 l 197 272 q 157 272 123 252 q 89 232 65 204 l 65 204 l 56 235 q 88 272 126 290 q 163 307 201 307 l 201 307 q 239 307 270 290 q 300 273 319 239 q 337 205 337 152 l 337 152 q 337 95 320 59 q 302 23 272 6 q 242 -12 204 -12 l 204 -12 q 160 -12 124 11 q 88 34 67 87 q 45 139 45 228 l 45 228 q 45 332 78 406 q 111 480 170 520 q 228 560 305 560 z"},"പ":{"ha":767,"x_min":36,"x_max":695,"o":"m 191 331 l 191 331 q 239 331 274 310 q 309 289 328 252 q 347 214 347 165 l 347 165 q 347 119 331 82 q 314 45 287 20 l 287 20 l 287 35 l 657 35 l 657 548 l 695 548 l 695 0 l 271 0 l 255 27 q 282 56 296 89 q 309 122 309 162 l 309 162 q 309 226 277 261 q 245 296 191 296 l 191 296 q 154 296 128 279 q 101 261 88 232 q 74 202 74 165 l 74 165 q 74 116 92 82 q 109 47 140 19 l 140 19 l 116 -8 q 80 27 58 67 q 36 107 36 165 l 36 165 q 36 213 56 250 q 75 287 110 309 q 145 331 191 331 z"},"ഫ":{"ha":973,"x_min":36,"x_max":909,"o":"m 191 331 l 191 331 q 239 331 274 310 q 309 289 328 252 q 347 214 347 165 l 347 165 q 347 119 331 82 q 314 45 287 20 l 287 20 l 287 35 l 537 35 l 537 0 l 271 0 l 255 27 q 282 56 296 89 q 309 122 309 162 l 309 162 q 309 226 277 261 q 245 296 191 296 l 191 296 q 154 296 128 279 q 101 261 88 232 q 74 202 74 165 l 74 165 q 74 116 92 82 q 109 47 140 19 l 140 19 l 116 -8 q 80 27 58 67 q 36 107 36 165 l 36 165 q 36 213 56 250 q 75 287 110 309 q 145 331 191 331 z m 708 560 l 708 560 q 756 560 792 545 q 827 529 851 504 l 851 504 q 883 470 896 423 q 909 375 909 305 l 909 305 l 909 0 l 509 0 l 509 312 q 509 356 515 392 q 520 427 533 455 q 546 483 568 505 l 568 505 q 592 530 627 545 q 662 560 708 560 z m 708 525 l 708 525 q 671 525 642 513 q 613 501 594 479 l 594 479 q 568 451 558 409 q 547 366 547 295 l 547 295 l 547 35 l 871 35 l 871 294 q 871 362 861 406 q 850 450 824 478 l 824 478 q 804 500 776 513 q 747 525 708 525 z"},"ബ":{"ha":1128,"x_min":45,"x_max":1056,"o":"m 305 560 l 305 560 q 384 560 428 523 q 472 485 489 420 l 489 420 l 496 379 l 503 268 l 503 0 l 466 0 l 466 316 q 466 387 452 428 q 437 468 409 492 l 409 492 q 389 509 365 517 q 340 525 304 525 l 304 525 q 236 525 186 488 q 136 450 109 385 q 82 320 82 236 l 82 236 l 82 225 q 82 153 97 109 q 112 64 140 44 q 167 23 204 23 l 204 23 q 230 23 252 35 q 273 47 286 75 q 299 103 299 151 l 299 151 q 299 206 274 239 q 248 272 197 272 l 197 272 q 157 272 123 252 q 89 232 65 204 l 65 204 l 56 235 q 88 272 126 290 q 163 307 201 307 l 201 307 q 239 307 270 290 q 300 273 319 239 q 337 205 337 152 l 337 152 q 337 95 320 59 q 302 23 272 6 q 242 -12 204 -12 l 204 -12 q 160 -12 124 11 q 88 34 67 87 q 45 139 45 228 l 45 228 q 45 332 78 406 q 111 480 170 520 q 228 560 305 560 z m 1018 548 l 1056 548 l 1056 0 l 702 0 l 686 27 q 716 60 741 96 q 765 132 780 180 q 794 228 794 295 l 794 295 q 794 356 777 409 q 759 461 725 493 q 690 525 638 525 l 638 525 q 606 525 585 516 q 563 507 548 490 l 548 490 q 523 464 513 423 q 503 381 503 316 l 503 316 l 503 9 l 469 9 l 469 270 l 480 370 l 481 423 q 497 491 535 526 q 572 560 636 560 l 636 560 q 700 560 744 525 q 788 489 811 429 q 833 369 833 295 l 833 295 q 833 227 819 177 q 805 127 782 91 q 758 55 730 27 l 730 27 l 723 35 l 1018 35 l 1018 548 z"},"ഭ":{"ha":555,"x_min":52,"x_max":520,"o":"m 340 560 l 340 560 q 393 560 434 544 q 474 528 497 498 q 520 468 520 425 l 520 425 q 520 403 514 385 q 508 366 496 354 l 496 354 q 482 340 462 333 q 441 326 405 325 l 405 325 l 382 325 q 347 325 328 322 q 308 319 295 310 l 295 310 q 285 303 280 293 q 274 282 274 267 l 274 267 q 274 235 298 222 q 321 208 373 208 l 373 208 l 380 208 q 418 208 446 201 q 473 193 492 175 l 492 175 q 505 163 512 145 q 519 127 519 104 l 519 104 q 519 69 504 43 q 489 17 457 3 q 424 -12 373 -12 l 373 -12 q 349 -12 322 -9 q 294 -6 268 1 q 241 7 220 16 l 220 16 l 235 49 q 267 35 302 29 q 336 23 373 23 l 373 23 q 434 23 458 45 q 481 66 481 103 l 481 103 q 481 140 457 157 q 432 173 385 173 l 385 173 l 375 173 q 333 174 307 181 q 281 187 265 200 l 265 200 q 252 212 245 228 q 237 244 237 266 l 237 266 q 237 288 245 305 q 252 322 267 333 l 267 333 q 285 347 312 354 q 339 360 380 360 l 380 360 l 407 360 q 448 360 465 375 q 482 389 482 425 l 482 425 q 482 471 445 498 q 408 525 339 525 l 339 525 q 254 525 199 485 q 144 445 117 376 q 90 306 90 219 l 90 219 q 90 160 97 107 q 104 53 116 2 l 116 2 l 80 -5 q 67 46 60 105 q 52 164 52 218 l 52 218 q 52 319 85 396 q 118 473 183 517 q 247 560 340 560 z"},"മ":{"ha":617,"x_min":61,"x_max":556,"o":"m 313 560 l 313 560 q 366 560 407 546 q 448 531 477 504 l 477 504 q 504 480 522 446 q 539 412 548 367 q 556 322 556 262 l 556 262 l 556 0 l 61 0 l 61 260 q 61 317 69 361 q 76 404 92 438 q 108 471 132 496 l 132 496 q 164 526 209 543 q 253 560 313 560 z m 270 520 l 270 520 q 234 520 206 507 q 177 493 156 466 l 156 466 q 128 435 113 385 q 98 335 98 254 l 98 254 l 98 34 l 110 34 q 181 93 238 156 q 295 218 329 282 q 363 345 363 405 l 363 405 q 363 434 354 461 q 345 487 325 504 q 305 520 270 520 z m 401 404 l 401 404 q 401 339 368 275 q 335 210 277 146 q 219 82 145 17 l 145 17 l 146 32 q 175 34 215 35 q 255 35 290 35 l 290 35 l 519 35 l 519 259 q 519 341 500 400 q 481 458 439 492 q 396 525 324 528 l 324 528 l 322 533 q 367 516 384 482 q 401 447 401 404 z"},"യ":{"ha":894,"x_min":42,"x_max":849,"o":"m 580 -12 l 580 -12 q 540 -12 506 -2 q 472 7 441 25 l 441 25 q 438 27 435 30 q 431 32 428 33 l 428 33 q 381 66 350 114 q 318 161 303 219 q 287 277 287 339 l 287 339 q 287 383 297 421 q 306 458 324 488 l 324 488 l 331 497 q 345 517 364 531 q 382 545 405 553 q 427 560 453 560 l 453 560 q 531 560 575 503 q 619 445 619 338 l 619 338 q 619 236 583 157 q 547 78 477 34 l 477 34 q 474 32 471 30 q 467 27 463 25 l 463 25 q 432 7 397 -2 q 361 -12 316 -12 l 316 -12 q 250 -12 200 13 q 149 38 114 84 q 78 130 60 193 q 42 255 42 329 l 42 329 q 42 405 67 457 q 91 508 132 534 q 172 560 221 560 l 221 560 q 271 560 303 540 q 335 519 357 493 l 357 493 l 331 468 q 312 492 286 509 q 260 525 222 525 l 222 525 q 184 525 152 505 q 120 484 100 441 q 80 397 80 328 l 80 328 q 80 240 107 171 q 134 102 187 62 q 240 22 317 22 l 317 22 q 352 22 379 28 q 405 33 428 44 l 428 44 q 432 46 437 49 q 441 51 445 52 l 445 52 q 490 78 520 121 q 550 164 565 220 q 580 276 580 337 l 580 337 q 580 404 564 446 q 548 487 519 506 q 490 525 453 525 l 453 525 q 414 525 385 503 q 356 481 341 439 q 326 397 326 337 l 326 337 q 326 282 341 227 q 355 171 385 126 q 414 80 458 53 l 458 53 q 462 51 466 50 q 470 48 474 45 l 474 45 q 496 34 522 28 q 548 22 580 22 l 580 22 q 661 22 712 58 q 763 94 787 157 q 810 220 810 302 l 810 302 q 810 372 787 434 q 764 496 729 539 l 729 539 l 762 559 q 802 506 826 442 q 849 378 849 304 l 849 304 q 849 233 833 175 q 816 117 783 75 q 749 33 699 11 q 649 -12 580 -12 z"},"ര":{"ha":627,"x_min":43,"x_max":584,"o":"m 309 560 l 309 560 q 377 560 429 537 q 480 513 515 470 q 549 427 567 369 q 584 311 584 241 l 584 241 q 584 148 563 93 q 541 37 504 13 q 466 -12 417 -12 l 417 -12 q 363 -12 329 14 q 294 40 278 86 q 261 132 261 190 l 261 190 q 261 286 306 336 q 350 385 421 385 l 421 385 q 461 385 491 368 q 520 351 541 324 q 562 296 574 262 l 574 262 l 562 247 q 550 272 532 296 q 513 319 487 335 q 460 350 425 350 l 425 350 q 362 350 331 308 q 299 266 299 191 l 299 191 q 299 142 311 104 q 323 66 349 45 q 375 23 418 23 l 418 23 q 459 23 488 45 q 516 66 532 115 q 547 163 547 242 l 547 242 q 547 253 547 267 q 546 281 545 289 l 545 289 q 545 293 546 298 q 546 303 544 307 l 544 307 q 536 363 510 413 q 483 463 435 494 q 386 525 310 525 l 310 525 q 243 525 192 496 q 140 466 111 411 q 82 356 82 280 l 82 280 q 82 219 97 171 q 111 123 139 87 q 166 51 203 22 l 203 22 l 179 -7 q 145 20 114 59 q 82 97 63 152 q 43 206 43 281 l 43 281 q 43 337 60 387 q 76 437 109 476 q 142 515 193 538 q 243 560 309 560 z"},"റ":{"ha":576,"x_min":43,"x_max":533,"o":"m 291 560 l 291 560 q 349 560 395 539 q 440 518 471 481 q 502 443 518 393 q 533 342 533 282 l 533 282 q 533 207 514 153 q 494 99 463 60 q 432 21 395 -8 l 395 -8 l 372 20 q 403 46 431 81 q 459 116 477 165 q 494 213 494 281 l 494 281 q 494 350 472 406 q 449 461 404 493 q 358 525 290 525 l 290 525 q 221 525 175 492 q 128 459 105 403 q 82 347 82 280 l 82 280 q 82 219 97 172 q 111 124 139 88 q 166 51 203 22 l 203 22 l 179 -6 q 145 20 114 59 q 82 97 63 152 q 43 206 43 281 l 43 281 q 43 341 60 392 q 76 442 108 480 q 140 518 186 539 q 232 560 291 560 z"},"ല":{"ha":739,"x_min":66,"x_max":667,"o":"m 629 548 l 667 548 l 667 0 l 66 0 l 66 325 q 66 391 79 434 q 92 476 117 504 l 117 504 q 143 532 180 546 q 217 560 263 560 l 263 560 q 311 560 347 547 q 382 534 405 508 l 405 508 q 431 480 444 437 q 456 394 456 332 l 456 332 l 456 233 l 104 233 l 104 35 l 629 35 l 629 548 z m 262 525 l 262 525 q 184 525 144 479 q 104 432 104 326 l 104 326 l 104 268 l 418 268 l 418 324 q 418 433 381 479 q 344 525 262 525 z"},"ള":{"ha":617,"x_min":43,"x_max":578,"o":"m 346 525 l 346 525 q 279 525 232 509 q 184 492 153 465 q 121 437 104 404 q 86 371 81 339 l 81 339 q 80 336 80 333 q 80 329 80 326 l 80 326 q 79 320 79 313 q 78 306 78 300 l 78 300 q 78 226 102 183 q 125 139 181 139 l 181 139 q 227 139 250 171 q 272 202 272 252 l 272 252 q 272 280 264 304 q 255 328 235 343 q 215 357 181 357 l 181 357 q 145 357 116 339 q 86 321 61 292 l 61 292 l 51 321 q 66 340 86 356 q 105 372 130 382 q 155 391 184 391 l 184 391 q 228 391 256 372 q 284 353 297 321 q 310 289 310 253 l 310 253 q 310 211 296 178 q 281 144 253 125 q 224 105 181 105 l 181 105 q 136 105 105 128 q 74 150 59 193 q 43 236 43 298 l 43 298 q 43 349 61 396 q 79 443 116 480 q 153 516 211 538 q 268 560 347 560 l 347 560 q 425 560 474 539 q 522 517 545 481 q 568 444 568 399 l 568 399 q 568 371 557 341 q 546 311 516 291 q 485 270 426 265 l 426 265 l 379 269 l 379 288 l 388 288 q 422 288 447 294 q 472 299 491 312 l 491 312 q 509 326 520 347 q 530 367 530 398 l 530 398 q 530 436 510 465 q 490 493 450 509 q 410 525 346 525 z m 578 142 l 578 142 q 578 110 569 85 q 560 60 542 42 l 542 42 q 526 27 506 18 q 486 8 459 4 q 432 0 394 0 l 394 0 l 237 0 q 188 0 159 -5 q 130 -10 113 -26 l 113 -26 q 103 -36 98 -50 q 92 -64 92 -81 l 92 -81 q 92 -102 99 -117 q 106 -132 119 -142 l 119 -142 q 135 -154 162 -160 q 188 -166 233 -166 l 233 -166 l 557 -166 l 557 -201 l 227 -201 q 181 -201 150 -194 q 119 -187 96 -170 l 96 -170 q 75 -156 64 -134 q 53 -112 53 -82 l 53 -82 q 53 -57 62 -36 q 70 -16 86 -2 l 86 -2 q 100 11 118 19 q 136 27 163 31 q 190 35 230 35 l 230 35 l 393 35 q 442 35 469 42 q 496 49 513 67 l 513 67 q 526 80 533 99 q 539 118 539 143 l 539 143 q 539 173 527 195 q 515 217 492 231 l 492 231 q 475 242 452 248 q 428 254 393 254 l 393 254 l 379 254 l 379 273 l 428 277 q 501 273 540 237 q 578 200 578 142 z"},"ഴ":{"ha":559,"x_min":40,"x_max":519,"o":"m 239 413 l 239 413 q 239 475 277 518 q 314 560 379 560 l 379 560 q 428 560 459 537 q 490 514 505 478 q 519 441 519 398 l 519 398 q 519 332 492 279 q 465 226 414 196 q 363 165 292 165 l 292 165 l 283 165 q 209 165 155 191 q 100 216 70 268 q 40 319 40 397 l 40 397 q 40 439 52 480 q 63 520 86 559 l 86 559 l 117 541 q 96 503 87 469 q 78 434 78 398 l 78 398 q 78 327 104 284 q 130 240 176 220 q 222 200 283 200 l 283 200 l 292 200 q 355 200 397 227 q 439 253 460 299 q 481 344 481 399 l 481 399 q 481 453 457 489 q 433 525 379 525 l 379 525 q 345 525 323 510 q 300 494 289 469 q 277 443 277 412 l 277 412 q 277 371 290 334 q 302 296 318 261 q 333 225 345 190 q 357 154 357 116 l 357 116 q 357 84 345 55 q 333 25 305 7 q 276 -12 225 -12 l 225 -12 q 191 -12 157 -4 q 122 4 92 21 l 92 21 l 107 53 q 134 39 163 31 q 192 23 225 23 l 225 23 q 276 23 298 49 q 319 74 319 116 l 319 116 q 319 154 307 189 q 295 224 280 259 q 264 294 252 332 q 239 369 239 413 z"},"വ":{"ha":828,"x_min":43,"x_max":756,"o":"m 291 560 l 291 560 q 350 560 395 539 q 440 518 471 481 q 502 443 518 393 q 533 342 533 283 l 533 283 q 533 212 516 161 q 498 110 473 77 q 447 43 423 22 l 423 22 l 423 35 l 718 35 l 718 548 l 756 548 l 756 0 l 397 0 l 381 28 q 408 51 434 84 q 459 117 477 166 q 494 214 494 281 l 494 281 q 494 350 472 406 q 449 461 404 493 q 358 525 290 525 l 290 525 q 221 525 175 492 q 128 459 105 403 q 82 347 82 280 l 82 280 q 82 219 97 172 q 111 124 139 88 q 166 51 203 22 l 203 22 l 179 -7 q 145 20 114 59 q 82 97 63 152 q 43 206 43 281 l 43 281 q 43 341 60 392 q 76 442 108 480 q 140 518 187 539 q 233 560 291 560 z"},"ശ":{"ha":885,"x_min":43,"x_max":843,"o":"m 582 560 l 582 560 q 645 560 693 537 q 741 513 775 471 q 808 428 826 370 q 843 312 843 241 l 843 241 q 843 148 821 93 q 799 37 762 13 q 724 -12 675 -12 l 675 -12 q 621 -12 587 14 q 553 40 537 86 q 520 132 520 190 l 520 190 q 520 286 564 336 q 608 385 679 385 l 679 385 q 719 385 749 368 q 779 351 800 324 q 821 296 833 262 l 833 262 l 820 247 q 809 272 790 296 q 771 319 745 335 q 719 350 683 350 l 683 350 q 620 350 589 308 q 558 266 558 191 l 558 191 q 558 142 570 104 q 581 66 607 45 q 633 23 677 23 l 677 23 q 717 23 746 45 q 775 66 791 115 q 806 163 806 242 l 806 242 q 806 253 805 267 q 804 281 803 289 l 803 289 q 803 293 804 298 q 804 303 803 307 l 803 307 q 794 364 768 414 q 742 463 696 494 q 650 525 583 525 l 583 525 q 542 525 511 514 q 480 503 458 483 l 458 483 q 426 453 413 408 q 399 362 399 280 l 399 280 l 399 232 q 399 159 389 114 q 379 68 351 35 l 351 35 q 331 13 303 1 q 274 -12 233 -12 l 233 -12 q 174 -12 131 20 q 88 52 66 112 q 43 172 43 254 l 43 254 q 43 329 61 384 q 78 438 108 480 q 138 521 175 556 l 175 556 l 201 529 q 167 497 140 459 q 113 421 98 372 q 82 322 82 254 l 82 254 q 82 182 100 130 q 118 78 152 51 q 185 23 232 23 l 232 23 q 267 23 289 33 q 310 43 324 62 l 324 62 q 347 90 354 135 q 361 180 361 251 l 361 251 l 361 300 q 361 375 377 423 q 392 471 427 505 l 427 505 q 453 530 493 545 q 532 560 582 560 z"},"ഷ":{"ha":983,"x_min":36,"x_max":911,"o":"m 191 331 l 191 331 q 239 331 274 310 q 309 289 328 252 q 347 214 347 165 l 347 165 q 347 119 331 82 q 314 45 287 20 l 287 20 l 287 35 l 595 35 l 598 0 l 271 0 l 255 27 q 282 56 296 89 q 309 122 309 162 l 309 162 q 309 226 277 261 q 245 296 191 296 l 191 296 q 154 296 128 279 q 101 261 88 232 q 74 202 74 165 l 74 165 q 74 116 92 82 q 109 47 140 19 l 140 19 l 116 -8 q 80 27 58 67 q 36 107 36 165 l 36 165 q 36 213 56 250 q 75 287 110 309 q 145 331 191 331 z m 911 0 l 579 0 l 579 386 q 579 434 572 464 q 565 493 548 508 l 548 508 q 539 516 528 521 q 516 525 501 525 l 501 525 q 463 525 441 497 q 419 469 419 419 l 419 419 q 419 377 435 347 q 451 316 485 300 q 518 284 571 284 l 571 284 l 588 284 q 641 284 683 303 q 725 321 760 355 q 794 389 822 438 q 850 487 874 548 l 874 548 l 911 548 l 911 0 z m 500 560 l 500 560 q 522 560 540 554 q 557 548 570 538 l 570 538 q 597 516 607 482 q 617 448 617 393 l 617 393 l 617 35 l 873 35 l 873 383 q 873 399 873 419 q 873 438 874 457 q 875 475 876 490 l 876 490 l 880 489 q 851 412 809 359 q 767 305 713 277 q 658 249 590 249 l 590 249 l 576 249 q 512 249 469 269 q 425 289 403 328 q 381 366 381 420 l 381 420 q 381 457 395 489 q 409 520 436 540 q 462 560 500 560 z"},"സ":{"ha":1055,"x_min":43,"x_max":1012,"o":"m 534 560 l 534 560 q 570 560 598 548 q 626 535 645 514 l 645 514 q 663 495 673 471 q 683 447 688 413 q 693 378 693 326 l 693 326 l 693 251 q 693 180 701 135 q 708 90 729 62 l 729 62 q 744 43 766 33 q 787 23 822 23 l 822 23 q 869 23 903 51 q 937 78 955 130 q 973 182 973 254 l 973 254 q 973 322 958 372 q 942 421 915 459 q 888 497 854 529 l 854 529 l 879 556 q 916 521 947 480 q 977 438 995 384 q 1012 329 1012 254 l 1012 254 q 1012 172 989 112 q 966 52 924 20 q 881 -12 821 -12 l 821 -12 q 781 -12 752 1 q 723 13 703 35 l 703 35 q 684 58 674 85 q 664 112 660 149 q 655 185 655 234 l 655 234 l 655 311 q 655 383 647 424 q 639 464 618 488 l 618 488 q 604 506 583 516 q 562 525 531 525 l 531 525 q 506 525 487 517 q 467 509 453 494 l 453 494 q 430 471 420 431 q 410 390 410 327 l 410 327 l 410 0 l 372 0 l 372 317 q 372 381 363 423 q 353 464 328 490 l 328 490 q 312 507 291 516 q 270 525 238 525 l 238 525 q 186 525 152 493 q 117 461 100 409 q 82 356 82 295 l 82 295 q 82 227 98 178 q 113 128 140 90 q 167 52 200 21 l 200 21 l 175 -6 q 139 28 109 68 q 78 108 61 163 q 43 218 43 296 l 43 296 q 43 369 66 429 q 88 489 132 525 q 176 560 240 560 l 240 560 q 305 560 342 525 q 379 489 394 423 l 394 423 l 388 421 q 398 490 436 525 q 474 560 534 560 z"},"ഹ":{"ha":1024,"x_min":36,"x_max":982,"o":"m 191 331 l 191 331 q 239 331 274 310 q 309 289 328 252 q 347 214 347 165 l 347 165 q 347 119 331 82 q 314 45 287 20 l 287 20 l 287 35 l 607 35 l 618 0 l 271 0 l 255 27 q 282 56 296 89 q 309 122 309 162 l 309 162 q 309 226 277 261 q 245 296 191 296 l 191 296 q 154 296 128 279 q 101 261 88 232 q 74 202 74 165 l 74 165 q 74 116 92 82 q 109 47 140 19 l 140 19 l 116 -8 q 80 27 58 67 q 36 107 36 165 l 36 165 q 36 213 56 250 q 75 287 110 309 q 145 331 191 331 z m 739 560 l 739 560 q 798 560 844 539 q 889 518 920 481 q 950 443 966 393 q 982 342 982 282 l 982 282 q 982 207 962 153 q 942 99 911 60 q 880 21 844 -8 l 844 -8 l 820 20 q 852 46 880 81 q 908 116 926 165 q 943 213 943 281 l 943 281 q 943 350 920 406 q 897 461 852 493 q 807 525 738 525 l 738 525 q 669 525 623 492 q 576 459 553 403 q 530 347 530 280 l 530 280 q 530 220 545 174 q 559 127 585 92 q 610 56 642 28 l 642 28 l 625 0 l 603 0 l 593 29 q 572 51 548 84 q 524 116 508 164 q 491 212 491 281 l 491 281 q 491 341 508 392 q 524 442 556 480 q 588 518 634 539 q 680 560 739 560 z"},"ഺ":{"ha":673,"x_min":24,"x_max":657,"o":"m 65 35 l 657 35 l 657 0 l 391 0 l 391 -202 l 353 -202 l 353 0 l 48 0 l 24 30 l 222 556 l 258 545 l 65 35 z"},"഻":{"ha":0,"x_min":-296,"x_max":-261,"o":"m -296 582 l -296 864 l -261 864 l -261 582 l -296 582 z"},"഼":{"ha":0,"x_min":-208,"x_max":15,"o":"m -208 724 l -208 724 q -208 780 -178 815 q -148 849 -97 849 l -97 849 q -46 849 -15 815 q 15 781 15 724 l 15 724 q 15 668 -15 634 q -46 599 -97 599 l -97 599 q -148 599 -178 634 q -208 668 -208 724 z m -173 725 l -173 725 q -173 683 -153 658 q -133 632 -97 632 l -97 632 q -60 632 -40 658 q -21 683 -21 725 l -21 725 q -21 766 -40 791 q -60 816 -97 816 l -97 816 q -133 816 -153 791 q -173 766 -173 725 z"},"ഽ":{"ha":390,"x_min":-72,"x_max":462,"o":"m 322 786 l 322 786 q 361 786 389 768 q 417 749 435 718 q 453 687 462 646 l 462 646 l 424 639 q 416 670 404 695 q 392 720 373 736 q 353 751 321 751 l 321 751 q 298 751 281 744 q 264 737 251 723 l 251 723 q 229 699 222 659 q 214 619 214 555 l 214 555 l 214 -23 q 214 -95 204 -135 q 193 -176 167 -204 l 167 -204 q 149 -223 125 -233 q 100 -244 68 -244 l 68 -244 q 29 -244 1 -226 q -27 -208 -44 -176 q -62 -145 -72 -105 l -72 -105 l -34 -97 q -26 -128 -14 -153 q -2 -179 18 -194 q 37 -209 68 -209 l 68 -209 q 92 -209 109 -201 q 126 -194 138 -181 l 138 -181 q 161 -157 169 -117 q 176 -78 176 -15 l 176 -15 l 176 563 q 176 637 187 678 q 198 718 222 745 l 222 745 q 240 765 266 776 q 291 786 322 786 z"},"ാ":{"ha":426,"x_min":23,"x_max":381,"o":"m 381 276 l 381 276 q 381 211 371 158 q 360 105 338 67 q 316 29 281 9 q 246 -12 197 -12 l 197 -12 q 157 -12 128 2 q 99 15 78 39 q 57 63 44 95 q 31 127 23 162 l 23 162 l 61 170 q 70 129 86 96 q 102 62 129 43 q 155 23 196 23 l 196 23 q 249 23 281 54 q 313 84 328 141 q 342 198 342 276 l 342 276 q 342 353 328 409 q 313 464 282 495 q 250 525 200 525 l 200 525 q 161 525 134 505 q 107 485 91 452 q 74 419 63 380 l 63 380 l 26 387 q 35 422 49 454 q 63 485 85 509 q 106 533 135 547 q 164 560 202 560 l 202 560 q 250 560 284 538 q 318 516 340 478 q 361 440 371 388 q 381 336 381 276 z"},"ി":{"ha":182,"x_min":-181,"x_max":110,"o":"m -43 843 l -43 843 q -15 843 9 835 q 32 827 49 812 l 49 812 q 72 792 86 765 q 99 738 105 698 q 110 658 110 597 l 110 597 l 110 0 l 72 0 l 72 578 q 72 624 70 663 q 67 702 58 732 q 49 762 29 781 l 29 781 q 17 794 0 801 q -18 808 -42 808 l -42 808 q -71 808 -94 796 q -117 784 -130 759 q -143 733 -143 695 l -143 695 q -143 678 -141 663 q -139 648 -137 637 l -137 637 l -174 631 q -177 644 -179 660 q -181 676 -181 694 l -181 694 q -181 741 -163 774 q -146 807 -114 825 q -83 843 -43 843 z"},"ീ":{"ha":182,"x_min":-249,"x_max":110,"o":"m -99 843 l -99 843 q -63 843 -31 834 q 1 825 25 808 l 25 808 q 73 775 92 720 q 110 664 110 575 l 110 575 l 110 0 l 72 0 l 72 554 q 72 607 68 648 q 64 689 52 719 q 39 749 13 771 l 13 771 q -7 791 -34 801 q -62 810 -104 810 l -104 810 q -132 810 -157 800 q -182 789 -197 768 q -213 746 -213 712 l -213 712 q -213 672 -193 651 q -174 629 -138 629 l -138 629 q -99 629 -80 652 q -62 675 -62 711 l -62 711 q -62 745 -76 772 q -90 799 -115 818 l -115 818 l -73 817 q -53 798 -40 773 q -28 747 -28 711 l -28 711 q -28 679 -39 653 q -51 626 -75 610 q -100 594 -139 594 l -139 594 q -169 594 -194 608 q -219 621 -234 648 q -249 674 -249 712 l -249 712 q -249 753 -230 783 q -211 812 -177 828 q -143 843 -99 843 z"},"ു":{"ha":275,"x_min":-17,"x_max":279,"o":"m 130 -221 l 130 -221 q 63 -221 23 -176 q -17 -131 -17 -54 l -17 -54 q -17 -3 2 34 q 20 71 53 92 q 86 112 129 112 l 129 112 q 175 112 209 92 q 242 72 261 35 q 279 -2 279 -54 l 279 -54 q 279 -105 261 -142 q 242 -180 209 -200 q 175 -221 130 -221 z m 130 -188 l 130 -188 q 180 -188 211 -154 q 241 -121 241 -54 l 241 -54 q 241 11 211 45 q 181 78 129 78 l 129 78 q 80 78 50 45 q 20 11 20 -55 l 20 -55 q 20 -119 50 -153 q 80 -188 130 -188 z m 82 560 l 82 560 q 129 560 157 540 q 185 520 198 487 q 210 453 210 412 l 210 412 q 210 347 193 262 q 176 177 151 86 l 151 86 l 115 94 q 139 185 155 268 q 171 350 171 410 l 171 410 q 171 464 151 495 q 130 525 79 525 l 79 525 q 65 525 50 523 q 35 520 22 516 l 22 516 l 13 550 q 26 553 45 557 q 64 560 82 560 z"},"ൂ":{"ha":275,"x_min":-17,"x_max":279,"o":"m 130 -221 l 130 -221 q 62 -221 23 -176 q -17 -131 -17 -54 l -17 -54 q -17 -3 2 34 q 20 71 53 92 q 86 112 129 112 l 129 112 q 175 112 209 92 q 242 72 261 35 q 279 -2 279 -54 l 279 -54 q 279 -105 261 -142 q 242 -180 209 -200 q 175 -221 130 -221 z m 129 79 l 129 79 q 77 79 47 48 q 17 17 17 -55 l 17 -55 q 17 -120 48 -154 q 78 -188 130 -188 l 130 -188 q 181 -188 213 -154 q 244 -121 244 -54 l 244 -54 q 244 17 214 48 q 184 79 129 79 z m 130 -87 l 130 -87 q 77 -87 54 -59 q 30 -31 30 11 l 30 11 q 30 33 41 52 q 52 70 69 90 l 69 90 l 90 79 q 71 65 64 49 q 56 32 56 14 l 56 14 q 56 -3 63 -18 q 70 -34 87 -44 q 103 -54 131 -54 l 131 -54 q 158 -54 174 -44 q 190 -34 197 -18 q 204 -3 204 14 l 204 14 q 204 32 197 48 q 189 64 171 78 l 171 78 l 192 90 q 210 70 221 52 q 231 33 231 11 l 231 11 q 231 -16 222 -38 q 212 -61 190 -74 q 167 -87 130 -87 z m 82 560 l 82 560 q 129 560 157 540 q 185 520 198 487 q 210 453 210 412 l 210 412 q 210 347 193 262 q 176 177 151 86 l 151 86 l 115 94 q 139 185 155 268 q 171 350 171 410 l 171 410 q 171 464 151 495 q 130 525 79 525 l 79 525 q 65 525 50 523 q 35 520 22 516 l 22 516 l 13 550 q 26 553 45 557 q 64 560 82 560 z"},"ൃ":{"ha":190,"x_min":-124,"x_max":186,"o":"m 19 -302 l 19 -302 q -23 -302 -55 -286 q -87 -270 -105 -240 q -124 -211 -124 -169 l -124 -169 q -124 -111 -85 -76 q -46 -41 13 -41 l 13 -41 q 63 -41 102 -61 q 140 -81 174 -115 l 174 -115 l 166 -149 q 128 -110 91 -93 q 54 -76 14 -76 l 14 -76 q -29 -76 -57 -99 q -86 -123 -86 -170 l -86 -170 q -86 -218 -57 -242 q -29 -267 18 -267 l 18 -267 q 56 -267 86 -252 q 115 -237 132 -205 q 149 -174 149 -125 l 149 -125 q 149 -92 144 -61 q 138 -30 126 7 q 114 44 94 93 l 94 93 q 72 150 60 198 q 47 245 47 298 l 47 298 q 47 365 66 426 q 84 486 116 548 l 116 548 l 158 548 q 133 500 117 460 q 100 419 93 381 q 86 342 86 300 l 86 300 q 86 246 98 202 q 110 158 130 104 l 130 104 q 150 51 163 12 q 175 -27 181 -59 q 186 -92 186 -125 l 186 -125 q 186 -185 164 -224 q 141 -263 104 -282 q 66 -302 19 -302 z"},"ൄ":{"ha":190,"x_min":-226,"x_max":185,"o":"m -29 -302 l -29 -302 q -86 -302 -130 -286 q -175 -271 -200 -237 q -226 -204 -226 -152 l -226 -152 q -226 -106 -201 -76 q -176 -46 -133 -46 l -133 -46 q -100 -46 -82 -64 q -64 -82 -56 -111 l -56 -111 l -63 -109 q -54 -80 -34 -63 q -14 -46 15 -46 l 15 -46 q 39 -46 56 -55 q 72 -65 82 -80 q 91 -96 96 -115 q 100 -134 100 -153 l 100 -153 l 100 -174 l 66 -174 l 66 -158 q 66 -123 54 -101 q 42 -79 13 -79 l 13 -79 q -17 -79 -29 -100 q -42 -122 -42 -158 l -42 -158 l -42 -174 l -76 -174 l -76 -158 q -76 -123 -88 -101 q -101 -79 -131 -79 l -131 -79 q -158 -79 -174 -98 q -190 -118 -190 -152 l -190 -152 q -190 -212 -147 -239 q -105 -267 -27 -267 l -27 -267 q 57 -267 103 -234 q 148 -202 148 -124 l 148 -124 q 148 -92 143 -61 q 137 -30 125 7 q 113 44 94 93 l 94 93 q 72 150 60 197 q 47 244 47 298 l 47 298 q 47 365 65 425 q 82 485 113 548 l 113 548 l 155 548 q 130 500 115 459 q 99 418 92 380 q 85 341 85 299 l 85 299 q 85 242 98 198 q 111 154 130 105 l 130 105 q 150 52 163 13 q 175 -26 180 -59 q 185 -92 185 -126 l 185 -126 q 185 -189 159 -228 q 132 -267 84 -284 q 36 -302 -29 -302 z"},"െ":{"ha":611,"x_min":43,"x_max":568,"o":"m 202 -12 l 202 -12 q 158 -12 122 11 q 85 34 64 87 q 43 139 43 228 l 43 228 q 43 307 65 369 q 86 430 125 473 q 163 516 213 538 q 263 560 318 560 l 318 560 q 379 560 426 539 q 473 518 505 481 q 536 444 552 393 q 568 342 568 282 l 568 282 q 568 207 549 153 q 529 99 498 60 q 466 21 430 -8 l 430 -8 l 406 20 q 438 46 466 81 q 494 116 512 165 q 529 213 529 280 l 529 280 q 529 350 506 406 q 483 461 437 493 q 390 525 318 525 l 318 525 q 251 525 197 489 q 143 452 111 386 q 79 319 79 228 l 79 228 q 79 155 94 110 q 109 64 137 44 q 164 23 202 23 l 202 23 q 228 23 250 35 q 271 47 284 75 q 297 103 297 151 l 297 151 q 297 206 272 239 q 246 272 195 272 l 195 272 q 154 272 120 252 q 86 232 62 204 l 62 204 l 54 235 q 86 272 123 290 q 160 307 198 307 l 198 307 q 237 307 268 290 q 298 273 317 239 q 335 205 335 152 l 335 152 q 335 95 317 59 q 299 23 269 6 q 239 -12 202 -12 z"},"േ":{"ha":503,"x_min":42,"x_max":467,"o":"m 310 -12 l 310 -12 q 257 -12 209 5 q 160 22 123 57 q 85 92 64 147 q 42 202 42 278 l 42 278 q 42 351 66 405 q 89 458 128 493 q 167 527 215 544 q 263 560 312 560 l 312 560 q 364 560 399 543 q 433 525 450 496 q 467 467 467 429 l 467 429 q 467 390 453 364 q 438 337 414 324 q 390 310 360 310 l 360 310 q 321 310 296 326 q 270 341 258 368 q 245 395 245 429 l 245 429 q 245 462 258 489 q 270 516 289 537 l 289 537 l 330 538 q 308 520 295 491 q 281 462 281 430 l 281 430 q 281 392 299 368 q 317 343 359 343 l 359 343 q 394 343 412 366 q 430 389 430 429 l 430 429 q 430 476 400 502 q 369 527 321 527 l 321 527 q 315 527 308 527 q 301 527 293 526 l 293 526 q 231 522 184 490 q 136 458 109 404 q 81 350 81 277 l 81 277 q 81 200 106 146 q 130 91 176 61 q 221 30 284 22 l 284 22 q 293 21 301 21 q 308 21 318 21 l 318 21 q 348 21 372 32 q 396 43 411 66 q 425 88 425 120 l 425 120 q 425 158 407 181 q 389 203 352 203 l 352 203 q 312 203 294 179 q 275 154 275 120 l 275 120 q 275 88 288 60 q 301 32 323 12 l 323 12 l 281 14 q 264 34 252 61 q 240 88 240 121 l 240 121 q 240 153 253 179 q 265 205 290 221 q 315 237 352 237 l 352 237 q 382 237 407 224 q 432 211 447 185 q 462 159 462 120 l 462 120 q 462 81 445 52 q 427 22 393 5 q 359 -12 310 -12 z"},"ൈ":{"ha":1222,"x_min":43,"x_max":1179,"o":"m 202 -12 l 202 -12 q 158 -12 122 11 q 85 34 64 87 q 43 139 43 228 l 43 228 q 43 307 65 369 q 86 430 125 473 q 163 516 213 538 q 263 560 318 560 l 318 560 q 379 560 426 539 q 473 518 505 481 q 536 444 552 393 q 568 342 568 282 l 568 282 q 568 207 549 153 q 529 99 498 60 q 466 21 430 -8 l 430 -8 l 406 20 q 438 46 466 81 q 494 116 512 165 q 529 213 529 280 l 529 280 q 529 350 506 406 q 483 461 437 493 q 390 525 318 525 l 318 525 q 251 525 197 489 q 143 452 111 386 q 79 319 79 228 l 79 228 q 79 155 94 110 q 109 64 137 44 q 164 23 202 23 l 202 23 q 228 23 250 35 q 271 47 284 75 q 297 103 297 151 l 297 151 q 297 206 272 239 q 246 272 195 272 l 195 272 q 154 272 120 252 q 86 232 62 204 l 62 204 l 54 235 q 86 272 123 290 q 160 307 198 307 l 198 307 q 237 307 268 290 q 298 273 317 239 q 335 205 335 152 l 335 152 q 335 95 317 59 q 299 23 269 6 q 239 -12 202 -12 z m 813 -12 l 813 -12 q 769 -12 733 11 q 696 34 675 87 q 654 139 654 228 l 654 228 q 654 307 676 369 q 697 430 736 473 q 774 516 824 538 q 874 560 929 560 l 929 560 q 990 560 1037 539 q 1084 518 1116 481 q 1147 444 1163 393 q 1179 342 1179 282 l 1179 282 q 1179 207 1160 153 q 1140 99 1109 60 q 1077 21 1041 -8 l 1041 -8 l 1017 20 q 1049 46 1077 81 q 1105 116 1123 165 q 1140 213 1140 280 l 1140 280 q 1140 350 1117 406 q 1094 461 1048 493 q 1001 525 929 525 l 929 525 q 862 525 808 489 q 754 452 722 386 q 690 319 690 228 l 690 228 q 690 155 705 110 q 720 64 748 44 q 775 23 813 23 l 813 23 q 839 23 861 35 q 882 47 895 75 q 908 103 908 151 l 908 151 q 908 206 883 239 q 857 272 806 272 l 806 272 q 765 272 731 252 q 697 232 673 204 l 673 204 l 665 235 q 697 272 734 290 q 771 307 809 307 l 809 307 q 848 307 879 290 q 909 273 928 239 q 946 205 946 152 l 946 152 q 946 95 928 59 q 910 23 880 6 q 850 -12 813 -12 z"},"ൊ":{"ha":1162,"x_min":43,"x_max":1117,"o":"m 202 -12 l 202 -12 q 158 -12 122 11 q 85 34 64 87 q 43 139 43 228 l 43 228 q 43 307 65 369 q 86 430 125 473 q 163 516 213 538 q 263 560 318 560 l 318 560 q 379 560 426 539 q 473 518 505 481 q 536 444 552 393 q 568 342 568 282 l 568 282 q 568 207 549 153 q 529 99 498 60 q 466 21 430 -8 l 430 -8 l 406 20 q 438 46 466 81 q 494 116 512 165 q 529 213 529 280 l 529 280 q 529 350 506 406 q 483 461 437 493 q 390 525 318 525 l 318 525 q 251 525 197 489 q 143 452 111 386 q 79 319 79 228 l 79 228 q 79 155 94 110 q 109 64 137 44 q 164 23 202 23 l 202 23 q 228 23 250 35 q 271 47 284 75 q 297 103 297 151 l 297 151 q 297 206 272 239 q 246 272 195 272 l 195 272 q 154 272 120 252 q 86 232 62 204 l 62 204 l 54 235 q 86 272 123 290 q 160 307 198 307 l 198 307 q 237 307 268 290 q 298 273 317 239 q 335 205 335 152 l 335 152 q 335 95 317 59 q 299 23 269 6 q 239 -12 202 -12 z m 675 260 l 675 260 q 658 260 651 271 q 643 281 643 298 l 643 298 q 643 315 651 326 q 658 337 675 337 l 675 337 q 694 337 701 326 q 708 315 708 298 l 708 298 q 708 281 701 271 q 694 260 675 260 z m 1116 276 l 1116 276 q 1116 211 1106 158 q 1095 105 1073 67 q 1051 29 1016 9 q 981 -12 932 -12 l 932 -12 q 892 -12 863 2 q 834 15 813 39 q 792 63 779 95 q 766 127 758 162 l 758 162 l 796 170 q 805 129 821 96 q 837 62 864 43 q 890 23 931 23 l 931 23 q 984 23 1016 54 q 1048 84 1063 141 q 1077 198 1077 276 l 1077 276 q 1077 353 1063 409 q 1048 464 1017 495 q 985 525 935 525 l 935 525 q 896 525 869 505 q 842 485 826 452 q 809 419 798 380 l 798 380 l 761 387 q 770 422 784 454 q 798 485 820 509 q 841 533 870 547 q 899 560 937 560 l 937 560 q 985 560 1019 538 q 1053 516 1075 478 q 1096 440 1106 388 q 1116 336 1116 276 z"},"ോ":{"ha":1041,"x_min":43,"x_max":996,"o":"m 311 -12 l 311 -12 q 258 -12 210 5 q 161 22 124 57 q 86 92 65 147 q 43 202 43 278 l 43 278 q 43 351 67 405 q 90 458 129 493 q 168 527 216 544 q 264 560 313 560 l 313 560 q 365 560 400 543 q 434 525 451 496 q 468 467 468 429 l 468 429 q 468 390 454 364 q 439 337 415 324 q 391 310 361 310 l 361 310 q 322 310 297 326 q 271 341 259 368 q 246 395 246 429 l 246 429 q 246 462 259 489 q 271 516 290 537 l 290 537 l 331 538 q 309 520 296 491 q 282 462 282 430 l 282 430 q 282 392 300 368 q 318 343 360 343 l 360 343 q 395 343 413 366 q 431 389 431 429 l 431 429 q 431 476 401 502 q 370 527 322 527 l 322 527 q 316 527 309 527 q 302 527 294 526 l 294 526 q 232 522 185 490 q 137 458 110 404 q 82 350 82 277 l 82 277 q 82 200 107 146 q 131 91 177 61 q 222 30 285 22 l 285 22 q 294 21 302 21 q 309 21 319 21 l 319 21 q 349 21 373 32 q 397 43 412 66 q 426 88 426 120 l 426 120 q 426 158 408 181 q 390 203 353 203 l 353 203 q 313 203 295 179 q 276 154 276 120 l 276 120 q 276 88 289 60 q 302 32 324 12 l 324 12 l 282 14 q 265 34 253 61 q 241 88 241 121 l 241 121 q 241 153 254 179 q 266 205 291 221 q 316 237 353 237 l 353 237 q 383 237 408 224 q 433 211 448 185 q 463 159 463 120 l 463 120 q 463 81 446 52 q 428 22 394 5 q 360 -12 311 -12 z m 554 260 l 554 260 q 537 260 530 271 q 522 281 522 298 l 522 298 q 522 315 530 326 q 537 337 554 337 l 554 337 q 573 337 580 326 q 587 315 587 298 l 587 298 q 587 281 580 271 q 573 260 554 260 z m 995 276 l 995 276 q 995 211 985 158 q 974 105 952 67 q 930 29 895 9 q 860 -12 811 -12 l 811 -12 q 771 -12 742 2 q 713 15 692 39 q 671 63 658 95 q 645 127 637 162 l 637 162 l 675 170 q 684 129 700 96 q 716 62 743 43 q 769 23 810 23 l 810 23 q 863 23 895 54 q 927 84 942 141 q 956 198 956 276 l 956 276 q 956 353 942 409 q 927 464 896 495 q 864 525 814 525 l 814 525 q 775 525 748 505 q 721 485 705 452 q 688 419 677 380 l 677 380 l 640 387 q 649 422 663 454 q 677 485 699 509 q 720 533 749 547 q 778 560 816 560 l 816 560 q 864 560 898 538 q 932 516 954 478 q 975 440 985 388 q 995 336 995 276 z"},"ൌ":{"ha":1393,"x_min":43,"x_max":1348,"o":"m 202 -12 l 202 -12 q 158 -12 122 11 q 85 34 64 87 q 43 139 43 228 l 43 228 q 43 307 65 369 q 86 430 125 473 q 163 516 213 538 q 263 560 318 560 l 318 560 q 379 560 426 539 q 473 518 505 481 q 536 444 552 393 q 568 342 568 282 l 568 282 q 568 207 549 153 q 529 99 498 60 q 466 21 430 -8 l 430 -8 l 406 20 q 438 46 466 81 q 494 116 512 165 q 529 213 529 280 l 529 280 q 529 350 506 406 q 483 461 437 493 q 390 525 318 525 l 318 525 q 251 525 197 489 q 143 452 111 386 q 79 319 79 228 l 79 228 q 79 155 94 110 q 109 64 137 44 q 164 23 202 23 l 202 23 q 228 23 250 35 q 271 47 284 75 q 297 103 297 151 l 297 151 q 297 206 272 239 q 246 272 195 272 l 195 272 q 154 272 120 252 q 86 232 62 204 l 62 204 l 54 235 q 86 272 123 290 q 160 307 198 307 l 198 307 q 237 307 268 290 q 298 273 317 239 q 335 205 335 152 l 335 152 q 335 95 317 59 q 299 23 269 6 q 239 -12 202 -12 z m 675 260 l 675 260 q 658 260 651 271 q 643 281 643 298 l 643 298 q 643 315 651 326 q 658 337 675 337 l 675 337 q 694 337 701 326 q 708 315 708 298 l 708 298 q 708 281 701 271 q 694 260 675 260 z m 1186 560 l 1186 560 q 1238 560 1275 529 q 1311 498 1330 441 q 1349 383 1349 302 l 1349 302 q 1349 197 1324 128 q 1299 58 1247 23 q 1195 -12 1114 -12 l 1114 -12 q 1064 -12 1023 -2 q 982 8 941 29 l 941 29 l 960 60 q 997 41 1033 32 q 1068 23 1113 23 l 1113 23 q 1189 23 1232 56 q 1274 89 1292 151 q 1310 213 1310 302 l 1310 302 q 1310 414 1276 470 q 1242 525 1185 525 l 1185 525 q 1158 525 1140 516 q 1122 506 1110 489 l 1110 489 q 1091 464 1085 427 q 1078 390 1078 344 l 1078 344 l 1078 256 l 1041 256 l 1041 344 q 1041 398 1033 434 q 1025 469 1007 491 l 1007 491 q 994 507 976 516 q 957 525 933 525 l 933 525 q 877 525 849 484 q 820 443 820 382 l 820 382 q 820 349 825 320 q 830 290 838 259 l 838 259 l 802 252 q 793 283 788 317 q 782 350 782 384 l 782 384 q 782 433 799 473 q 816 513 850 537 q 884 560 932 560 l 932 560 q 982 560 1016 532 q 1050 503 1063 436 l 1063 436 l 1054 434 q 1066 500 1102 530 q 1137 560 1186 560 z"},"്":{"ha":0,"x_min":-242,"x_max":48,"o":"m -99 599 l -99 599 q -142 599 -174 616 q -207 632 -224 665 q -242 698 -242 747 l -242 747 q -242 762 -239 779 q -237 795 -234 808 l -234 808 l -199 801 q -202 789 -203 776 q -205 762 -205 748 l -205 748 q -205 704 -191 679 q -177 654 -153 644 q -129 633 -99 633 l -99 633 q -66 633 -41 644 q -17 655 -2 680 q 12 705 12 747 l 12 747 q 12 762 10 776 q 8 790 5 801 l 5 801 l 40 808 q 43 796 46 780 q 48 763 48 747 l 48 747 q 48 698 30 665 q 11 632 -22 616 q -55 599 -99 599 z"},"ൎ":{"ha":0,"x_min":-303,"x_max":-256,"o":"m -303 799 l -256 799 l -262 625 l -297 625 l -303 799 z"},"൏":{"ha":1073,"x_min":50,"x_max":1025,"o":"m 500 560 l 500 560 q 579 560 623 523 q 667 485 684 420 l 684 420 l 676 423 q 692 491 730 526 q 768 560 832 560 l 832 560 q 895 560 938 521 q 981 482 1003 410 q 1025 338 1025 238 l 1025 238 q 1025 87 976 -15 q 927 -118 820 -171 q 713 -224 541 -224 l 541 -224 q 424 -224 340 -199 q 256 -174 200 -129 q 144 -85 111 -27 q 78 31 64 96 q 50 161 50 228 l 50 228 q 50 310 69 382 q 87 453 119 528 l 119 528 l 154 514 q 122 445 106 374 q 89 302 89 229 l 89 229 q 89 170 100 111 q 111 51 140 -3 q 169 -57 221 -98 q 272 -140 351 -164 q 430 -188 543 -188 l 543 -188 q 660 -188 744 -161 q 828 -135 882 -82 q 935 -29 961 51 q 987 131 987 238 l 987 238 q 987 323 971 388 q 954 452 920 489 q 885 525 833 525 l 833 525 q 801 525 780 516 q 759 507 743 490 l 743 490 q 718 464 709 423 q 699 381 699 316 l 699 316 l 699 0 l 661 0 l 661 316 q 661 387 647 428 q 632 468 604 492 l 604 492 q 584 509 560 517 q 536 525 500 525 l 500 525 q 432 525 382 488 q 331 450 304 385 q 277 320 277 236 l 277 236 l 277 225 q 277 153 292 109 q 307 64 335 44 q 362 23 400 23 l 400 23 q 426 23 448 35 q 469 47 482 75 q 494 103 494 151 l 494 151 q 494 206 469 239 q 444 272 393 272 l 393 272 q 352 272 318 252 q 284 232 260 204 l 260 204 l 252 235 q 284 272 321 290 q 358 307 397 307 l 397 307 q 435 307 466 290 q 496 273 514 239 q 532 205 532 152 l 532 152 q 532 95 515 59 q 497 23 467 6 q 437 -12 399 -12 l 399 -12 q 355 -12 319 11 q 283 34 262 87 q 241 139 241 228 l 241 228 q 241 332 274 406 q 306 480 365 520 q 423 560 500 560 z"},"ൔ":{"ha":545,"x_min":53,"x_max":535,"o":"m 135 792 l 135 792 q 162 792 183 785 q 203 778 217 767 l 217 767 q 241 748 251 720 q 260 692 260 643 l 260 643 l 260 506 q 260 449 266 404 q 272 359 290 319 q 307 278 339 235 l 339 235 l 349 224 q 381 186 426 140 q 471 93 535 33 l 535 33 l 518 0 l 61 0 l 61 261 q 61 309 67 349 q 72 389 85 422 q 97 455 118 483 l 118 483 q 143 517 182 538 q 220 559 269 559 l 269 559 q 323 559 358 535 q 392 511 408 473 q 424 435 424 391 l 424 391 q 424 342 405 296 q 385 250 350 208 l 350 208 l 341 197 q 315 166 284 135 q 252 104 217 76 q 182 47 146 19 l 146 19 l 143 31 q 169 33 197 34 q 224 35 260 35 l 260 35 l 415 35 q 433 35 450 35 q 467 35 483 35 q 499 34 512 31 l 512 31 l 491 29 q 439 78 399 119 q 358 160 325 198 l 325 198 l 316 208 q 281 256 260 299 q 239 341 231 389 q 223 437 223 499 l 223 499 l 223 637 q 223 680 216 703 q 209 726 191 740 l 191 740 q 181 748 167 753 q 153 757 132 757 l 132 757 q 113 757 96 754 q 78 751 63 746 l 63 746 l 53 780 q 70 785 92 789 q 114 792 135 792 z m 98 248 l 98 34 l 110 34 q 152 66 190 98 q 228 129 261 161 q 293 193 318 225 l 318 225 l 326 235 q 354 272 370 311 q 385 349 385 390 l 385 390 q 385 428 373 459 q 360 489 334 507 q 307 525 264 525 l 264 525 q 225 525 195 507 q 164 488 145 460 l 145 460 q 129 436 119 406 q 108 375 103 337 q 98 298 98 248 l 98 248 z"},"ൕ":{"ha":884,"x_min":43,"x_max":847,"o":"m 592 -12 l 592 -12 q 561 -12 535 -8 q 509 -4 487 4 q 464 12 444 24 l 444 24 q 441 26 437 29 q 433 31 431 33 l 431 33 q 384 66 352 114 q 320 161 304 219 q 288 276 288 339 l 288 339 q 288 383 297 421 q 306 459 325 488 l 325 488 l 332 497 q 346 517 364 531 q 382 545 405 553 q 428 560 454 560 l 454 560 q 532 560 576 503 q 620 445 620 338 l 620 338 q 620 270 604 212 q 588 154 557 109 q 525 63 478 34 l 478 34 q 475 32 472 30 q 468 27 464 25 l 464 25 q 433 7 398 -2 q 362 -12 317 -12 l 317 -12 q 251 -12 201 13 q 150 38 115 84 q 79 130 61 193 q 43 255 43 329 l 43 329 q 43 405 68 457 q 92 508 133 534 q 173 560 222 560 l 222 560 q 272 560 304 540 q 336 519 358 493 l 358 493 l 332 468 q 313 492 287 509 q 261 525 223 525 l 223 525 q 185 525 153 505 q 121 484 101 441 q 81 397 81 328 l 81 328 q 81 240 108 171 q 135 102 188 62 q 241 22 318 22 l 318 22 q 353 22 380 28 q 406 33 429 44 l 429 44 q 434 46 438 49 q 442 51 446 52 l 446 52 q 491 78 521 121 q 551 164 566 220 q 581 276 581 337 l 581 337 q 581 404 565 446 q 549 487 520 506 q 491 525 454 525 l 454 525 q 415 525 386 503 q 357 481 342 439 q 327 397 327 337 l 327 337 q 327 282 342 227 q 357 171 387 126 q 416 80 461 53 l 461 53 q 465 51 469 50 q 472 48 476 45 l 476 45 q 498 34 526 28 q 554 22 591 22 l 591 22 q 670 22 716 51 q 762 79 782 128 q 802 176 802 237 l 802 237 q 802 279 792 317 q 782 355 763 393 q 744 431 717 473 l 717 473 q 689 516 671 549 q 652 581 643 609 q 633 637 633 666 l 633 666 q 633 697 647 726 q 660 755 689 774 q 717 792 763 792 l 763 792 q 785 792 807 789 q 829 785 847 779 l 847 779 l 837 745 q 820 751 803 754 q 785 757 765 757 l 765 757 q 716 757 694 729 q 672 701 672 664 l 672 664 q 672 641 680 618 q 688 595 705 565 q 722 535 750 490 l 750 490 q 777 449 798 408 q 818 367 830 326 q 841 284 841 239 l 841 239 q 841 194 832 156 q 822 117 804 86 q 785 55 755 33 q 725 11 685 0 q 644 -12 592 -12 z"},"ൖ":{"ha":591,"x_min":40,"x_max":551,"o":"m 142 148 l 142 148 q 142 115 152 87 q 162 58 187 41 q 212 23 257 23 l 257 23 q 308 23 330 48 q 352 73 352 116 l 352 116 q 352 154 340 189 q 327 224 312 259 q 296 293 284 331 q 272 369 272 413 l 272 413 q 272 453 289 487 q 305 520 337 540 q 368 560 411 560 l 411 560 q 460 560 491 537 q 522 514 537 478 q 551 441 551 398 l 551 398 q 551 332 523 279 q 495 226 441 196 q 386 165 306 165 l 306 165 l 297 165 q 249 165 210 175 q 170 185 137 205 l 137 205 l 123 212 q 97 232 78 259 q 59 286 50 321 q 40 355 40 397 l 40 397 q 40 439 52 480 q 63 520 86 559 l 86 559 l 117 541 q 96 503 87 469 q 78 434 78 397 l 78 397 q 78 346 93 310 q 107 273 134 248 l 134 248 l 146 240 q 174 219 212 210 q 250 200 295 200 l 295 200 l 308 200 q 379 200 424 227 q 469 253 491 299 q 513 344 513 399 l 513 399 q 513 453 489 489 q 465 525 411 525 l 411 525 q 377 525 355 510 q 332 494 321 469 q 309 443 309 412 l 309 412 q 309 371 322 334 q 334 296 350 261 q 365 225 377 190 q 389 154 389 116 l 389 116 q 389 92 383 69 q 376 46 361 28 q 345 9 320 -1 q 295 -12 257 -12 l 257 -12 q 206 -12 172 8 q 138 27 122 64 q 105 100 105 150 l 105 150 q 105 188 117 229 q 128 269 151 319 q 173 369 205 436 l 205 436 q 235 497 251 538 q 267 578 274 607 q 280 636 280 664 l 280 664 q 280 705 259 731 q 238 757 190 757 l 190 757 q 168 757 149 754 q 130 751 114 746 l 114 746 l 105 779 q 123 785 146 789 q 169 792 193 792 l 193 792 q 239 792 266 774 q 293 756 306 728 q 318 699 318 668 l 318 668 q 318 645 315 621 q 311 597 302 569 q 293 541 278 505 q 262 469 237 420 l 237 420 q 212 367 194 328 q 176 289 165 258 q 153 227 148 201 q 142 174 142 148 z"},"ൗ":{"ha":652,"x_min":40,"x_max":607,"o":"m 444 560 l 444 560 q 496 560 533 529 q 569 498 588 441 q 607 383 607 302 l 607 302 q 607 197 582 128 q 557 58 505 23 q 453 -12 372 -12 l 372 -12 q 322 -12 281 -2 q 240 8 199 29 l 199 29 l 218 60 q 255 41 291 32 q 326 23 371 23 l 371 23 q 447 23 490 56 q 532 89 550 151 q 568 213 568 302 l 568 302 q 568 414 534 470 q 500 525 443 525 l 443 525 q 416 525 398 516 q 380 506 368 489 l 368 489 q 349 464 343 427 q 336 390 336 344 l 336 344 l 336 256 l 299 256 l 299 344 q 299 398 291 434 q 283 469 265 491 l 265 491 q 252 507 234 516 q 215 525 191 525 l 191 525 q 135 525 107 484 q 78 443 78 382 l 78 382 q 78 349 83 320 q 88 290 96 259 l 96 259 l 60 252 q 51 283 46 317 q 40 350 40 384 l 40 384 q 40 433 57 473 q 74 513 108 537 q 142 560 190 560 l 190 560 q 240 560 274 532 q 308 503 321 436 l 321 436 l 312 434 q 324 500 360 530 q 395 560 444 560 z"},"൘":{"ha":1046,"x_min":43,"x_max":998,"o":"m 523 -12 l 523 -12 q 460 -12 423 25 q 386 61 373 128 l 373 128 l 380 125 q 367 58 331 23 q 294 -12 233 -12 l 233 -12 q 175 -12 132 21 q 89 54 66 115 q 43 175 43 254 l 43 254 q 43 330 61 384 q 78 438 108 479 q 138 520 174 554 l 174 554 l 200 527 q 167 495 140 458 q 113 421 98 372 q 82 322 82 254 l 82 254 q 82 191 99 138 q 116 85 150 54 q 184 23 234 23 l 234 23 q 260 23 281 32 q 301 41 316 58 l 316 58 q 340 85 349 127 q 358 168 358 230 l 358 230 l 358 548 l 396 548 l 396 226 q 396 165 405 127 q 413 88 434 62 l 434 62 q 449 44 471 34 q 493 23 522 23 l 522 23 q 553 23 575 34 q 597 44 611 62 l 611 62 q 631 87 640 125 q 648 162 648 225 l 648 225 l 648 548 l 685 548 l 685 238 l 671 127 q 661 58 623 23 q 584 -12 523 -12 z m 813 -12 l 813 -12 q 753 -12 716 23 q 678 57 662 125 l 662 125 l 658 225 l 658 538 l 685 538 l 685 226 q 685 165 694 125 q 703 85 727 59 l 727 59 q 743 42 764 33 q 784 23 812 23 l 812 23 q 861 23 894 56 q 926 88 943 153 q 959 218 959 314 l 959 314 q 959 414 940 494 q 920 574 884 633 q 847 692 796 731 q 744 769 680 789 q 616 808 541 808 l 541 808 q 481 808 427 802 q 373 795 326 783 l 326 783 l 321 818 q 351 826 386 832 q 420 837 459 840 q 498 843 541 843 l 541 843 q 623 843 693 822 q 762 801 819 759 q 875 717 915 654 q 955 590 977 506 q 998 421 998 314 l 998 314 q 998 205 977 133 q 955 60 914 24 q 872 -12 813 -12 z"},"൙":{"ha":940,"x_min":43,"x_max":919,"o":"m 309 560 l 309 560 q 378 560 430 536 q 482 511 516 468 q 550 424 567 365 q 584 305 584 233 l 584 233 q 584 141 563 88 q 542 34 504 11 q 466 -12 415 -12 l 415 -12 q 366 -12 334 10 q 301 31 286 66 q 271 100 271 139 l 271 139 q 271 178 285 208 q 298 237 322 257 l 322 257 q 343 276 371 287 q 399 298 438 303 q 476 308 525 308 l 525 308 l 556 308 l 556 273 l 525 273 q 463 273 420 265 q 376 257 348 232 l 348 232 q 329 217 319 194 q 309 170 309 140 l 309 140 q 309 86 337 55 q 364 23 415 23 l 415 23 q 460 23 489 44 q 518 65 533 112 q 547 158 547 233 l 547 233 q 547 249 546 262 q 545 275 544 287 l 544 287 l 543 297 q 535 367 506 418 q 477 469 428 497 q 379 525 310 525 l 310 525 q 243 525 192 496 q 140 466 111 411 q 82 356 82 280 l 82 280 q 82 219 97 171 q 111 123 139 87 q 166 51 203 22 l 203 22 l 179 -7 q 145 20 114 59 q 82 97 63 152 q 43 206 43 281 l 43 281 q 43 337 60 387 q 76 437 109 476 q 142 515 193 538 q 243 560 309 560 z m 793 548 l 793 548 q 835 548 863 530 q 890 511 905 482 q 919 452 919 416 l 919 416 q 919 383 909 357 q 898 330 878 312 l 878 312 q 862 298 842 289 q 821 280 796 277 q 771 273 740 273 l 740 273 l 543 273 l 544 308 l 740 308 q 784 308 809 315 q 833 321 849 335 l 849 335 q 865 348 873 368 q 880 388 880 415 l 880 415 q 880 459 858 486 q 836 513 793 513 l 793 513 q 746 513 721 484 q 696 455 696 403 l 696 403 q 696 368 707 340 q 717 312 732 287 l 732 287 l 694 282 q 679 310 669 340 q 658 370 658 408 l 658 408 q 658 452 676 484 q 694 515 725 532 q 755 548 793 548 z"},"൚":{"ha":926,"x_min":43,"x_max":865,"o":"m 621 560 l 621 560 q 675 560 716 546 q 757 531 786 504 l 786 504 q 813 480 830 446 q 847 412 856 367 q 865 322 865 262 l 865 262 l 865 0 l 419 0 l 419 34 q 489 93 546 156 q 603 218 637 282 q 671 345 671 405 l 671 405 q 671 434 663 461 q 654 487 634 504 q 613 520 578 520 l 578 520 q 543 520 515 506 q 487 492 465 466 l 465 466 q 435 431 423 382 q 410 332 410 260 l 410 260 l 410 230 l 372 230 l 372 317 q 372 381 363 423 q 353 464 328 489 l 328 489 q 313 506 293 516 q 272 525 242 525 l 242 525 q 189 525 154 494 q 118 462 100 410 q 82 357 82 294 l 82 294 q 82 226 98 177 q 113 127 140 90 q 167 52 200 21 l 200 21 l 174 -6 q 138 28 108 69 q 78 109 61 164 q 43 218 43 294 l 43 294 q 43 374 67 434 q 91 493 136 527 q 181 560 242 560 l 242 560 q 297 560 330 536 q 362 511 379 473 q 396 434 403 388 l 403 388 l 389 386 q 403 447 436 485 q 468 523 516 542 q 563 560 621 560 z m 710 404 l 710 404 q 710 339 677 275 q 643 210 586 146 q 528 82 453 17 l 453 17 l 454 32 q 483 34 524 35 q 564 35 599 35 l 599 35 l 827 35 l 827 259 q 827 341 809 400 q 790 458 747 492 q 704 525 633 528 l 633 528 l 631 533 q 676 516 693 482 q 710 447 710 404 z"},"൛":{"ha":828,"x_min":72,"x_max":786,"o":"m 537 -12 l 537 -12 q 478 -12 433 9 q 388 30 358 67 q 327 104 311 155 q 295 205 295 265 l 295 265 q 295 337 313 387 q 330 437 356 471 q 382 505 406 526 l 406 526 l 405 513 l 110 513 l 110 0 l 72 0 l 72 548 l 431 548 l 447 519 q 421 498 395 465 q 369 431 352 383 q 334 334 334 267 l 334 267 q 334 198 357 143 q 380 87 425 55 q 470 23 539 23 l 539 23 q 608 23 654 56 q 700 89 723 145 q 746 200 746 267 l 746 267 q 746 329 732 377 q 717 424 690 461 q 663 497 626 526 l 626 526 l 649 554 q 684 528 715 490 q 746 451 766 397 q 786 342 786 267 l 786 267 q 786 207 770 157 q 753 106 721 68 q 688 30 642 9 q 596 -12 537 -12 z"},"൜":{"ha":1308,"x_min":43,"x_max":1265,"o":"m 791 560 l 791 560 q 828 560 856 548 q 884 535 903 513 l 903 513 q 919 493 929 469 q 938 444 942 409 q 946 373 946 322 l 946 322 l 946 251 q 946 180 954 135 q 961 90 983 62 l 983 62 q 997 43 1019 33 q 1040 23 1076 23 l 1076 23 q 1123 23 1157 51 q 1190 78 1208 130 q 1226 182 1226 254 l 1226 254 q 1226 322 1211 372 q 1195 421 1169 459 q 1142 497 1107 529 l 1107 529 l 1133 556 q 1170 521 1200 480 q 1230 438 1248 384 q 1265 329 1265 254 l 1265 254 q 1265 172 1243 112 q 1220 52 1177 20 q 1134 -12 1074 -12 l 1074 -12 q 1034 -12 1005 1 q 976 13 957 35 l 957 35 q 938 57 928 85 q 917 112 913 149 q 909 185 909 233 l 909 233 l 909 316 q 909 379 903 422 q 896 464 873 490 l 873 490 q 860 507 839 516 q 818 525 791 525 l 791 525 q 764 525 743 516 q 722 507 709 490 l 709 490 q 686 464 680 421 q 673 378 673 314 l 673 314 l 673 226 q 673 176 669 140 q 664 104 654 78 q 644 51 625 31 l 625 31 q 607 12 580 0 q 552 -12 517 -12 l 517 -12 q 479 -12 452 1 q 425 13 405 35 l 405 35 q 389 55 379 80 q 369 105 365 141 q 361 176 361 225 l 361 225 l 361 296 q 361 368 355 413 q 348 458 325 486 l 325 486 q 311 504 290 515 q 268 525 232 525 l 232 525 q 186 525 152 497 q 118 469 100 418 q 82 366 82 294 l 82 294 q 82 227 97 177 q 112 126 140 89 q 167 51 200 19 l 200 19 l 175 -8 q 138 27 108 68 q 78 109 61 164 q 43 219 43 294 l 43 294 q 43 376 66 436 q 88 495 131 528 q 174 560 234 560 l 234 560 q 274 560 303 548 q 332 535 351 512 l 351 512 q 370 491 381 464 q 391 436 395 400 q 399 363 399 313 l 399 313 l 399 232 q 399 169 406 127 q 413 84 435 57 l 435 57 q 448 41 469 32 q 490 23 517 23 l 517 23 q 544 23 565 32 q 586 41 599 57 l 599 57 q 622 84 629 127 q 635 169 635 232 l 635 232 l 635 322 q 635 373 639 409 q 643 445 654 471 q 664 497 682 516 l 682 516 q 701 537 729 549 q 756 560 791 560 z"},"൝":{"ha":1758,"x_min":10,"x_max":1715,"o":"m 694 560 l 694 560 q 731 560 759 548 q 787 535 805 513 l 805 513 q 822 493 832 469 q 841 444 845 409 q 849 373 849 322 l 849 322 l 849 232 q 849 169 856 127 q 863 84 885 57 l 885 57 q 898 41 919 32 q 940 23 967 23 l 967 23 q 994 23 1015 32 q 1036 41 1049 57 l 1049 57 q 1072 84 1079 127 q 1085 169 1085 232 l 1085 232 l 1085 322 q 1085 373 1090 409 q 1094 445 1104 471 q 1114 497 1133 516 l 1133 516 q 1151 537 1179 549 q 1206 560 1241 560 l 1241 560 q 1279 560 1307 548 q 1334 535 1353 513 l 1353 513 q 1369 493 1379 469 q 1389 444 1393 409 q 1397 373 1397 322 l 1397 322 l 1397 251 q 1397 180 1404 135 q 1411 90 1433 62 l 1433 62 q 1447 43 1469 33 q 1490 23 1526 23 l 1526 23 q 1573 23 1607 51 q 1640 78 1658 130 q 1676 182 1676 254 l 1676 254 q 1676 322 1661 372 q 1645 421 1619 459 q 1592 497 1558 529 l 1558 529 l 1583 556 q 1620 521 1650 480 q 1680 438 1698 384 q 1715 329 1715 254 l 1715 254 q 1715 172 1693 112 q 1670 52 1627 20 q 1584 -12 1525 -12 l 1525 -12 q 1484 -12 1455 1 q 1426 13 1407 35 l 1407 35 q 1388 57 1378 85 q 1367 112 1363 149 q 1359 185 1359 233 l 1359 233 l 1359 316 q 1359 379 1353 422 q 1346 464 1323 490 l 1323 490 q 1310 507 1290 516 q 1269 525 1241 525 l 1241 525 q 1214 525 1193 516 q 1172 507 1159 490 l 1159 490 q 1136 464 1130 421 q 1123 378 1123 314 l 1123 314 l 1123 226 q 1123 176 1119 140 q 1115 104 1105 78 q 1094 51 1076 31 l 1076 31 q 1057 12 1030 0 q 1002 -12 967 -12 l 967 -12 q 930 -12 903 1 q 875 13 855 35 l 855 35 q 839 55 830 80 q 820 105 816 141 q 812 176 812 225 l 812 225 l 812 316 q 812 379 806 422 q 799 464 776 490 l 776 490 q 763 507 742 516 q 721 525 694 525 l 694 525 q 667 525 646 516 q 625 507 612 490 l 612 490 q 589 464 583 421 q 576 378 576 314 l 576 314 l 576 221 q 576 146 565 105 q 554 64 528 35 l 528 35 q 508 13 480 1 q 451 -12 413 -12 l 413 -12 q 352 -12 315 24 q 277 60 266 130 l 266 130 l 275 125 q 266 82 246 52 q 226 21 194 5 q 162 -12 116 -12 l 116 -12 q 90 -12 63 -6 q 35 0 10 13 l 10 13 l 24 46 q 44 35 67 29 q 90 23 117 23 l 117 23 q 150 23 172 33 q 193 42 209 58 l 209 58 q 234 84 244 126 q 253 167 253 230 l 253 230 l 253 548 l 291 548 l 291 220 q 291 159 301 118 q 310 77 334 53 l 334 53 q 348 38 368 31 q 387 23 412 23 l 412 23 q 444 23 466 33 q 487 43 501 61 l 501 61 q 522 86 530 127 q 538 168 538 241 l 538 241 l 538 322 q 538 373 542 409 q 546 445 557 471 q 567 497 585 516 l 585 516 q 604 537 631 549 q 658 560 694 560 z"},"൞":{"ha":1157,"x_min":43,"x_max":1125,"o":"m 309 560 l 309 560 q 378 560 430 536 q 482 511 516 468 q 550 424 567 365 q 584 305 584 233 l 584 233 q 584 141 563 88 q 542 34 504 11 q 466 -12 415 -12 l 415 -12 q 366 -12 334 10 q 301 31 286 66 q 271 100 271 139 l 271 139 q 271 178 285 208 q 298 237 322 257 l 322 257 q 343 276 371 287 q 399 298 438 303 q 476 308 525 308 l 525 308 l 552 308 l 552 273 l 525 273 q 463 273 420 265 q 376 257 348 232 l 348 232 q 329 217 319 194 q 309 170 309 140 l 309 140 q 309 86 337 55 q 364 23 415 23 l 415 23 q 460 23 489 44 q 518 65 533 112 q 547 158 547 233 l 547 233 q 547 249 546 262 q 545 275 544 287 l 544 287 l 543 297 q 535 367 506 418 q 477 469 428 497 q 379 525 310 525 l 310 525 q 243 525 192 496 q 140 466 111 411 q 82 356 82 280 l 82 280 q 82 219 97 171 q 111 123 139 87 q 166 51 203 22 l 203 22 l 179 -7 q 145 20 114 59 q 82 97 63 152 q 43 206 43 281 l 43 281 q 43 337 60 387 q 76 437 109 476 q 142 515 193 538 q 243 560 309 560 z m 970 217 l 970 217 q 922 217 887 238 q 852 259 833 297 q 814 334 814 382 l 814 382 q 814 428 831 466 q 847 503 874 528 l 874 528 l 874 513 l 675 513 l 688 524 q 711 498 724 468 q 736 438 736 408 l 736 408 q 736 352 711 323 q 686 293 646 283 q 605 273 559 273 l 559 273 l 538 273 l 538 308 l 557 308 q 594 308 626 314 q 658 320 678 342 q 698 363 698 408 l 698 408 q 698 438 686 464 q 673 490 653 514 l 653 514 l 667 548 l 889 548 l 906 521 q 879 492 866 459 q 852 425 852 386 l 852 386 q 852 322 884 287 q 916 251 970 251 l 970 251 q 1007 251 1033 269 q 1059 287 1073 317 q 1087 347 1087 383 l 1087 383 q 1087 431 1070 466 q 1052 501 1020 529 l 1020 529 l 1044 555 q 1081 521 1103 481 q 1125 441 1125 383 l 1125 383 q 1125 335 1106 298 q 1086 260 1051 239 q 1016 217 970 217 z"},"ൟ":{"ha":1136,"x_min":31,"x_max":1105,"o":"m 31 265 l 31 265 q 31 320 61 355 q 91 390 141 390 l 141 390 q 192 390 223 356 q 253 321 253 265 l 253 265 q 253 209 223 175 q 192 140 141 140 l 141 140 q 90 140 61 175 q 31 209 31 265 z m 66 266 l 66 266 q 66 224 86 199 q 105 173 141 173 l 141 173 q 179 173 199 199 q 218 224 218 266 l 218 266 q 218 307 199 332 q 179 357 141 357 l 141 357 q 106 357 86 332 q 66 307 66 266 z m 882 265 l 882 265 q 882 320 913 355 q 943 390 993 390 l 993 390 q 1044 390 1075 356 q 1105 321 1105 265 l 1105 265 q 1105 209 1075 175 q 1044 140 993 140 l 993 140 q 942 140 912 175 q 882 209 882 265 z m 918 266 l 918 266 q 918 224 938 199 q 957 173 993 173 l 993 173 q 1030 173 1050 199 q 1070 224 1070 266 l 1070 266 q 1070 307 1050 332 q 1030 357 993 357 l 993 357 q 957 357 938 332 q 918 307 918 266 z m 563 560 l 563 560 q 631 560 683 537 q 734 513 769 470 q 803 427 821 369 q 838 311 838 241 l 838 241 q 838 148 817 93 q 795 37 758 13 q 720 -12 671 -12 l 671 -12 q 617 -12 583 14 q 548 40 532 86 q 515 132 515 190 l 515 190 q 515 286 560 336 q 604 385 674 385 l 674 385 q 715 385 745 368 q 774 351 795 324 q 816 296 828 262 l 828 262 l 816 247 q 804 272 786 296 q 767 319 741 335 q 714 350 679 350 l 679 350 q 616 350 585 308 q 553 266 553 191 l 553 191 q 553 142 565 104 q 577 66 603 45 q 629 23 672 23 l 672 23 q 713 23 742 45 q 770 66 786 115 q 801 163 801 242 l 801 242 q 801 253 801 267 q 800 281 798 289 l 798 289 q 799 293 799 298 q 799 303 798 307 l 798 307 q 790 363 764 413 q 737 463 689 494 q 640 525 564 525 l 564 525 q 497 525 446 496 q 394 466 365 411 q 336 356 336 280 l 336 280 q 336 219 351 171 q 365 123 393 87 q 420 51 457 22 l 457 22 l 433 -7 q 399 20 368 59 q 336 97 317 152 q 297 206 297 281 l 297 281 q 297 337 314 387 q 330 437 363 476 q 396 515 446 538 q 496 560 563 560 z"},"ൠ":{"ha":748,"x_min":40,"x_max":708,"o":"m 558 560 l 558 560 q 629 560 669 508 q 708 455 708 364 l 708 364 q 708 300 690 254 q 672 208 638 177 l 638 177 q 601 141 548 124 q 494 107 426 106 l 426 106 l 388 106 l 360 106 l 326 105 q 259 106 205 122 q 150 138 112 175 l 112 175 q 78 206 59 253 q 40 299 40 363 l 40 363 q 40 423 58 467 q 76 511 111 536 q 145 560 193 560 l 193 560 q 236 560 265 541 q 294 521 309 488 q 324 455 324 413 l 324 413 q 324 372 309 340 q 293 307 264 289 q 234 271 189 271 l 189 271 q 158 271 133 280 q 108 289 88 305 q 67 320 51 337 l 51 337 l 62 369 q 75 353 92 339 q 109 324 132 315 q 155 306 185 306 l 185 306 q 236 306 261 334 q 286 362 286 414 l 286 414 q 286 462 263 494 q 240 525 192 525 l 192 525 q 152 525 126 504 q 100 483 88 447 q 76 410 76 363 l 76 363 q 76 356 77 348 q 77 340 78 332 l 78 332 l 77 321 q 84 270 107 234 q 130 197 167 174 q 204 151 254 141 q 304 130 367 130 l 367 130 l 378 130 q 442 130 493 141 q 544 152 582 175 q 619 197 642 234 q 664 270 671 322 l 671 322 l 670 332 q 671 339 672 348 q 672 356 672 363 l 672 363 q 672 411 660 448 q 648 484 623 505 q 598 525 558 525 l 558 525 q 509 525 486 493 q 462 460 462 412 l 462 412 q 462 362 487 334 q 511 306 561 306 l 561 306 q 592 306 615 315 q 638 324 655 338 q 672 352 685 368 l 685 368 l 696 337 q 681 320 661 305 q 640 289 615 280 q 590 271 558 271 l 558 271 q 514 271 484 290 q 454 308 439 340 q 424 372 424 412 l 424 412 q 424 454 440 487 q 455 520 485 540 q 515 560 558 560 z m 373 -205 l 373 -205 q 266 -205 199 -186 q 131 -168 100 -131 q 68 -94 68 -38 l 68 -38 q 68 7 89 37 q 109 67 145 85 q 181 103 230 111 q 278 118 334 118 l 334 118 l 413 118 q 469 118 518 111 q 567 103 603 85 q 639 67 660 37 q 680 7 680 -38 l 680 -38 q 680 -92 649 -129 q 618 -167 551 -186 q 483 -205 373 -205 z m 374 -171 l 374 -171 q 473 -171 532 -156 q 590 -141 616 -111 q 641 -81 641 -37 l 641 -37 q 641 -3 625 23 q 608 48 575 64 q 542 80 493 88 q 443 96 376 96 l 376 96 l 369 96 q 281 96 223 82 q 164 68 136 39 q 107 9 107 -37 l 107 -37 q 107 -82 133 -111 q 158 -141 217 -156 q 275 -171 374 -171 z m 447 36 l 447 36 q 472 36 489 26 q 505 16 515 1 q 524 -15 528 -33 q 531 -52 531 -70 l 531 -70 l 531 -101 l 498 -101 l 498 -76 q 498 -34 485 -16 q 472 2 445 2 l 445 2 q 418 2 404 -18 q 390 -39 390 -75 l 390 -75 l 390 -101 l 357 -101 l 357 -75 q 357 -39 344 -18 q 330 2 303 2 l 303 2 q 276 2 263 -16 q 250 -35 250 -76 l 250 -76 l 250 -101 l 216 -101 l 216 -69 q 216 -52 220 -33 q 224 -15 234 1 q 243 16 259 26 q 275 36 300 36 l 300 36 q 328 36 346 22 q 364 7 374 -19 l 374 -19 q 383 6 401 21 q 419 36 447 36 z"},"ൡ":{"ha":1124,"x_min":45,"x_max":1095,"o":"m 305 560 l 305 560 q 384 560 430 521 q 475 482 491 411 l 491 411 l 495 375 l 503 276 l 503 0 l 466 0 l 466 316 q 466 387 452 428 q 437 468 409 492 l 409 492 q 389 509 365 517 q 340 525 304 525 l 304 525 q 236 525 186 488 q 136 450 109 385 q 82 320 82 236 l 82 236 l 82 225 q 82 153 97 109 q 112 64 140 44 q 167 23 204 23 l 204 23 q 230 23 252 35 q 273 47 286 75 q 299 103 299 151 l 299 151 q 299 206 274 239 q 248 272 197 272 l 197 272 q 157 272 123 252 q 89 232 65 204 l 65 204 l 56 235 q 88 272 126 290 q 163 307 201 307 l 201 307 q 239 307 270 290 q 300 273 319 239 q 337 205 337 152 l 337 152 q 337 95 320 59 q 302 23 272 6 q 242 -12 204 -12 l 204 -12 q 160 -12 124 11 q 88 34 67 87 q 45 139 45 228 l 45 228 q 45 332 78 406 q 111 480 170 520 q 228 560 305 560 z m 679 560 l 679 560 q 753 560 804 530 q 855 500 886 449 q 917 397 929 332 l 929 332 q 934 307 937 279 q 939 251 939 223 l 939 223 q 939 139 917 88 q 894 36 856 12 q 818 -12 770 -12 l 770 -12 q 715 -12 682 14 q 649 39 635 79 q 621 119 621 163 l 621 163 q 621 259 680 311 q 739 362 841 362 l 841 362 q 855 362 869 361 q 883 359 896 356 l 896 356 l 912 354 q 975 339 1016 299 q 1056 258 1076 202 q 1095 146 1095 83 l 1095 83 q 1095 15 1077 -38 q 1059 -91 1025 -127 q 991 -163 943 -182 q 894 -201 832 -201 l 832 -201 q 790 -201 755 -194 q 719 -187 691 -177 l 691 -177 l 703 -144 q 729 -154 762 -160 q 794 -166 832 -166 l 832 -166 q 890 -166 932 -148 q 974 -131 1002 -98 q 1030 -65 1044 -19 q 1057 27 1057 84 l 1057 84 q 1057 140 1042 187 q 1026 234 996 268 q 965 301 920 317 l 920 317 l 904 320 q 889 324 874 326 q 858 327 841 327 l 841 327 q 788 327 747 311 q 706 294 683 258 q 659 222 659 162 l 659 162 q 659 128 669 96 q 678 64 703 44 q 727 23 771 23 l 771 23 q 836 23 869 75 q 901 127 901 224 l 901 224 q 901 251 899 279 q 896 306 890 334 l 890 334 l 888 348 q 876 395 852 435 q 827 475 785 500 q 743 525 679 525 l 679 525 q 643 525 613 515 q 583 504 561 485 l 561 485 q 542 468 529 445 q 516 421 510 388 q 503 354 503 306 l 503 306 l 503 218 l 477 381 q 485 437 511 477 q 537 517 580 539 q 623 560 679 560 z"},"ൢ":{"ha":0,"x_min":-675,"x_max":-39,"o":"m -492 5 l -492 5 q -430 5 -398 -25 q -366 -55 -353 -106 l -353 -106 l -343 -167 l -343 -332 l -378 -332 l -378 -169 q -378 -125 -386 -97 q -395 -69 -413 -53 l -413 -53 q -427 -39 -447 -33 q -468 -27 -492 -27 l -492 -27 q -531 -27 -562 -42 q -593 -58 -612 -86 q -632 -114 -638 -153 l -638 -153 q -639 -160 -639 -168 q -640 -176 -640 -184 l -640 -184 q -640 -243 -620 -274 q -601 -305 -565 -305 l -565 -305 q -528 -305 -512 -282 q -496 -259 -496 -223 l -496 -223 q -496 -183 -514 -163 q -533 -144 -565 -144 l -565 -144 q -590 -144 -612 -155 q -635 -166 -656 -189 l -656 -189 l -664 -163 q -644 -141 -618 -126 q -592 -112 -562 -112 l -562 -112 q -516 -112 -488 -141 q -461 -170 -461 -223 l -461 -223 q -461 -272 -487 -304 q -514 -337 -565 -337 l -565 -337 q -619 -337 -647 -293 q -675 -249 -675 -181 l -675 -181 q -675 -126 -651 -84 q -628 -43 -587 -19 q -546 5 -492 5 z m -218 4 l -218 4 q -154 4 -114 -22 q -75 -49 -57 -92 q -39 -135 -39 -184 l -39 -184 q -39 -268 -71 -302 q -103 -337 -151 -337 l -151 -337 q -189 -337 -213 -321 q -237 -305 -249 -277 q -261 -250 -261 -217 l -261 -217 q -261 -178 -247 -152 q -233 -126 -208 -112 q -184 -98 -152 -98 l -152 -98 q -120 -98 -98 -112 q -77 -126 -64 -145 q -52 -165 -47 -184 l -47 -184 l -58 -196 q -67 -170 -89 -150 q -112 -130 -147 -130 l -147 -130 q -187 -130 -206 -153 q -226 -177 -226 -218 l -226 -218 q -226 -254 -209 -279 q -192 -304 -151 -304 l -151 -304 q -114 -304 -93 -275 q -73 -247 -73 -185 l -73 -185 q -73 -177 -73 -167 q -74 -158 -75 -151 l -75 -151 l -76 -142 q -80 -114 -96 -87 q -112 -61 -141 -44 q -171 -27 -218 -27 l -218 -27 q -246 -27 -266 -34 q -286 -41 -300 -55 l -300 -55 q -323 -76 -333 -108 q -343 -141 -343 -190 l -343 -190 l -370 -143 q -367 -103 -350 -69 q -334 -36 -301 -16 q -269 4 -218 4 z"},"ൣ":{"ha":0,"x_min":-675,"x_max":65,"o":"m -492 5 l -492 5 q -430 5 -398 -25 q -366 -55 -353 -106 l -353 -106 l -343 -167 l -343 -332 l -378 -332 l -378 -169 q -378 -125 -386 -97 q -395 -69 -413 -53 l -413 -53 q -427 -39 -447 -33 q -468 -27 -492 -27 l -492 -27 q -531 -27 -562 -42 q -593 -58 -612 -86 q -632 -114 -638 -153 l -638 -153 q -639 -160 -639 -168 q -640 -176 -640 -184 l -640 -184 q -640 -243 -620 -274 q -601 -305 -565 -305 l -565 -305 q -528 -305 -512 -282 q -496 -259 -496 -223 l -496 -223 q -496 -183 -514 -163 q -533 -144 -565 -144 l -565 -144 q -590 -144 -612 -155 q -635 -166 -656 -189 l -656 -189 l -664 -163 q -644 -141 -618 -126 q -592 -112 -562 -112 l -562 -112 q -516 -112 -488 -141 q -461 -170 -461 -223 l -461 -223 q -461 -272 -487 -304 q -514 -337 -565 -337 l -565 -337 q -619 -337 -647 -293 q -675 -249 -675 -181 l -675 -181 q -675 -126 -651 -84 q -628 -43 -587 -19 q -546 5 -492 5 z m -218 4 l -218 4 q -156 4 -117 -22 q -78 -48 -60 -91 q -42 -134 -42 -184 l -42 -184 q -42 -239 -56 -273 q -71 -307 -96 -322 q -121 -337 -154 -337 l -154 -337 q -189 -337 -213 -322 q -237 -307 -249 -281 q -261 -256 -261 -225 l -261 -225 q -261 -162 -219 -130 q -178 -98 -113 -98 l -113 -98 q -103 -98 -93 -98 q -83 -99 -73 -101 l -73 -101 q -33 -108 -1 -129 q 30 -151 48 -185 q 65 -220 65 -269 l 65 -269 q 65 -293 60 -319 q 54 -346 42 -365 l 42 -365 l 10 -352 q 20 -333 25 -312 q 30 -292 30 -271 l 30 -271 q 30 -217 7 -183 q -17 -149 -57 -136 l -57 -136 l -70 -133 q -80 -131 -90 -130 q -101 -129 -111 -129 l -111 -129 q -166 -129 -196 -154 q -226 -179 -226 -227 l -226 -227 q -226 -257 -209 -280 q -193 -304 -154 -304 l -154 -304 q -116 -304 -96 -276 q -76 -249 -76 -185 l -76 -185 q -76 -168 -78 -151 q -80 -134 -85 -120 l -85 -120 l -89 -108 q -99 -82 -117 -63 q -136 -45 -161 -36 q -187 -27 -218 -27 l -218 -27 q -246 -27 -266 -34 q -286 -41 -300 -55 l -300 -55 q -323 -76 -333 -108 q -343 -141 -343 -190 l -343 -190 l -370 -143 q -368 -113 -358 -86 q -349 -60 -330 -39 q -312 -19 -284 -7 q -256 4 -218 4 z"},"൦":{"ha":498,"x_min":43,"x_max":456,"o":"m 249 48 l 249 48 q 186 48 140 76 q 93 104 68 157 q 43 210 43 282 l 43 282 q 43 355 68 407 q 93 459 140 487 q 187 515 249 515 l 249 515 q 312 515 359 488 q 405 460 431 408 q 456 356 456 282 l 456 282 q 456 209 431 157 q 405 104 359 76 q 312 48 249 48 z m 249 83 l 249 83 q 299 83 337 105 q 374 127 396 172 q 417 216 417 282 l 417 282 q 417 381 371 431 q 324 480 249 480 l 249 480 q 174 480 128 431 q 82 381 82 281 l 82 281 q 82 183 128 133 q 174 83 249 83 z"},"൧":{"ha":774,"x_min":13,"x_max":709,"o":"m 335 -166 l 335 -201 l 187 -201 q 140 -201 110 -194 q 79 -187 55 -170 l 55 -170 q 34 -156 24 -134 q 13 -112 13 -82 l 13 -82 q 13 -57 21 -36 q 29 -16 45 -2 l 45 -2 q 59 11 78 19 q 96 27 123 31 q 150 35 190 35 l 190 35 l 342 35 l 343 0 l 196 0 q 147 0 119 -5 q 90 -10 73 -26 l 73 -26 q 62 -36 57 -50 q 51 -64 51 -81 l 51 -81 q 51 -121 78 -142 l 78 -142 q 95 -154 122 -160 q 148 -166 193 -166 l 193 -166 l 335 -166 z m 509 560 l 509 560 q 557 560 593 545 q 628 529 652 504 l 652 504 q 684 470 697 423 q 709 375 709 305 l 709 305 l 709 0 l 310 0 l 310 312 q 310 356 316 392 q 322 427 335 455 q 347 483 369 505 l 369 505 q 393 530 428 545 q 463 560 509 560 z m 509 525 l 509 525 q 472 525 443 513 q 414 501 395 479 l 395 479 q 369 451 359 409 q 348 366 348 295 l 348 295 l 348 35 l 672 35 l 672 294 q 672 362 662 406 q 651 450 625 478 l 625 478 q 605 500 577 513 q 548 525 509 525 z"},"൨":{"ha":752,"x_min":43,"x_max":736,"o":"m 291 560 l 291 560 q 350 560 395 539 q 440 518 471 481 q 502 443 518 393 q 533 342 533 283 l 533 283 q 533 212 516 161 q 498 110 473 77 q 447 43 423 22 l 423 22 l 423 35 l 736 35 l 736 0 l 397 0 l 381 28 q 408 51 434 84 q 459 117 477 166 q 494 214 494 281 l 494 281 q 494 350 472 406 q 449 461 404 493 q 358 525 290 525 l 290 525 q 221 525 175 492 q 128 459 105 403 q 82 347 82 280 l 82 280 q 82 219 97 172 q 111 124 139 88 q 166 51 203 22 l 203 22 l 179 -7 q 145 20 114 59 q 82 97 63 152 q 43 206 43 281 l 43 281 q 43 341 60 392 q 76 442 108 480 q 140 518 187 539 q 233 560 291 560 z"},"൩":{"ha":946,"x_min":43,"x_max":930,"o":"m 242 560 l 242 560 q 284 560 315 544 q 346 528 366 497 q 386 466 394 422 l 394 422 l 387 422 q 403 490 441 525 q 478 560 543 560 l 543 560 q 606 560 650 525 q 694 489 717 429 q 740 369 740 295 l 740 295 q 740 227 726 177 q 711 127 688 91 q 664 55 637 27 l 637 27 l 634 0 l 608 0 l 592 27 q 622 60 647 96 q 672 132 687 180 q 701 228 701 295 l 701 295 q 701 356 684 409 q 666 461 631 493 q 596 525 544 525 l 544 525 q 512 525 491 516 q 470 507 454 490 l 454 490 q 429 464 420 423 q 410 381 410 317 l 410 317 l 410 0 l 372 0 l 372 317 q 372 381 363 423 q 353 464 328 489 l 328 489 q 313 506 293 516 q 272 525 242 525 l 242 525 q 189 525 154 494 q 118 462 100 410 q 82 357 82 294 l 82 294 q 82 226 98 177 q 113 127 140 90 q 167 52 200 21 l 200 21 l 174 -6 q 138 28 108 69 q 78 109 61 164 q 43 218 43 294 l 43 294 q 43 373 67 433 q 91 493 136 527 q 181 560 242 560 z m 623 0 l 631 35 l 930 35 l 930 0 l 623 0 z"},"൪":{"ha":675,"x_min":43,"x_max":669,"o":"m 309 560 l 309 560 q 372 560 421 536 q 470 512 507 471 l 507 471 q 549 424 572 359 q 595 294 595 219 l 595 219 q 595 136 573 85 q 550 34 511 11 q 472 -12 423 -12 l 423 -12 q 367 -12 331 14 q 295 39 279 82 q 262 124 262 173 l 262 173 q 262 234 286 283 q 309 332 358 377 q 406 421 482 467 l 482 467 q 539 502 572 525 q 604 547 617 569 q 630 591 630 621 l 630 621 q 630 645 622 664 q 614 683 601 702 l 601 702 l 636 719 q 650 700 660 675 q 669 650 669 622 l 669 622 q 669 585 654 558 q 638 530 602 503 q 565 476 502 439 l 502 439 q 432 397 387 356 q 342 315 322 271 q 301 226 301 173 l 301 173 q 301 102 332 63 q 363 23 425 23 l 425 23 q 463 23 493 42 q 522 60 539 103 q 556 146 556 218 l 556 218 q 556 284 537 345 q 518 405 480 448 l 480 448 q 448 484 406 505 q 364 525 310 525 l 310 525 q 243 525 192 496 q 140 466 111 412 q 82 357 82 280 l 82 280 q 82 219 97 171 q 111 123 139 87 q 166 51 203 22 l 203 22 l 179 -7 q 145 20 114 59 q 82 97 63 152 q 43 206 43 281 l 43 281 q 43 337 60 388 q 76 438 109 477 q 142 515 192 538 q 242 560 309 560 z"},"൫":{"ha":831,"x_min":49,"x_max":783,"o":"m 428 723 l 428 723 q 520 723 587 689 q 654 654 698 594 q 741 534 762 457 q 783 379 783 293 l 783 293 q 783 208 768 134 q 752 60 719 -12 l 719 -12 l 685 4 q 706 49 719 96 q 732 143 738 193 q 744 242 744 294 l 744 294 q 744 372 726 443 q 708 514 670 569 q 631 624 572 656 q 512 688 428 688 l 428 688 q 331 688 254 640 q 177 591 133 495 q 88 399 88 255 l 88 255 q 88 173 105 101 q 121 28 156 -26 q 190 -81 243 -112 q 295 -143 367 -143 l 367 -143 q 469 -143 519 -91 q 568 -39 568 54 l 568 54 q 568 109 549 150 q 529 191 491 214 q 453 236 400 236 l 400 236 l 390 236 l 390 271 l 408 271 q 451 271 481 280 q 510 288 528 306 l 528 306 q 542 321 549 341 q 556 360 556 387 l 556 387 q 556 444 523 476 q 489 508 430 508 l 430 508 q 374 508 336 479 q 297 450 278 399 q 258 348 258 281 l 258 281 q 258 208 281 143 q 303 77 343 11 l 343 11 l 310 -7 q 268 65 244 133 q 219 200 219 283 l 219 283 q 219 359 245 418 q 270 476 318 510 q 365 543 431 543 l 431 543 q 483 543 520 523 q 556 503 576 469 q 595 434 595 390 l 595 390 q 595 355 583 325 q 570 294 540 274 q 510 253 457 247 l 457 247 l 457 256 q 527 241 567 190 q 607 138 607 54 l 607 54 q 607 -21 578 -73 q 549 -125 495 -151 q 441 -178 364 -178 l 364 -178 q 268 -178 197 -125 q 126 -72 88 25 q 49 121 49 255 l 49 255 q 49 372 78 460 q 107 547 159 606 q 211 664 280 694 q 349 723 428 723 z"},"൬":{"ha":1047,"x_min":43,"x_max":998,"o":"m 523 560 l 523 560 q 584 560 623 525 q 661 490 671 421 l 671 421 l 685 310 l 685 0 l 648 0 l 648 322 q 648 386 640 424 q 631 461 611 486 l 611 486 q 597 504 575 515 q 553 525 522 525 l 522 525 q 493 525 471 515 q 449 504 434 486 l 434 486 q 413 460 405 422 q 396 383 396 321 l 396 321 l 396 0 l 358 0 l 358 318 q 358 380 349 422 q 340 463 316 489 l 316 489 q 301 507 281 516 q 260 525 234 525 l 234 525 q 184 525 150 494 q 116 462 99 410 q 82 358 82 294 l 82 294 q 82 226 98 177 q 113 127 140 90 q 167 52 200 21 l 200 21 l 174 -7 q 138 28 108 69 q 78 109 61 164 q 43 218 43 294 l 43 294 q 43 374 66 434 q 89 493 132 527 q 175 560 233 560 l 233 560 q 294 560 331 525 q 367 490 380 423 l 380 423 l 373 420 q 386 487 423 524 q 460 560 523 560 z m 813 560 l 813 560 q 902 560 950 475 q 998 389 998 225 l 998 225 q 998 91 968 -4 q 938 -100 871 -150 q 804 -201 693 -201 l 693 -201 q 671 -201 645 -199 q 618 -197 595 -192 l 595 -192 l 599 -157 q 622 -162 647 -164 q 672 -166 692 -166 l 692 -166 q 770 -166 822 -138 q 873 -111 903 -59 q 933 -8 946 64 q 959 136 959 225 l 959 225 q 959 322 943 389 q 926 456 894 491 q 861 525 812 525 l 812 525 q 784 525 764 516 q 743 507 727 489 l 727 489 q 703 463 694 423 q 685 382 685 321 l 685 321 l 685 10 l 658 10 l 658 323 l 662 423 q 678 490 716 525 q 753 560 813 560 z"},"൭":{"ha":641,"x_min":43,"x_max":593,"o":"m 324 560 l 324 560 q 391 560 442 535 q 492 510 526 464 q 559 417 576 351 q 593 285 593 203 l 593 203 q 593 118 577 45 q 560 -29 523 -84 q 485 -139 424 -170 q 363 -201 274 -201 l 274 -201 q 249 -201 222 -199 q 194 -197 168 -192 l 168 -192 l 172 -157 q 195 -161 221 -163 q 246 -166 274 -166 l 274 -166 q 357 -166 411 -136 q 465 -107 497 -55 q 528 -4 541 63 q 554 129 554 204 l 554 204 q 554 358 496 442 q 437 525 323 525 l 323 525 q 248 525 194 488 q 139 451 110 385 q 80 319 80 233 l 80 233 l 80 220 q 80 151 95 108 q 110 64 138 44 q 165 23 202 23 l 202 23 q 229 23 251 35 q 272 47 285 76 q 297 104 297 151 l 297 151 q 297 206 272 239 q 246 272 195 272 l 195 272 q 155 272 122 253 q 88 233 65 205 l 65 205 l 54 235 q 86 272 124 290 q 161 307 199 307 l 199 307 q 237 307 268 290 q 299 273 317 239 q 335 205 335 152 l 335 152 q 335 95 318 59 q 300 23 270 6 q 240 -12 202 -12 l 202 -12 q 158 -12 122 11 q 86 34 65 86 q 43 138 43 226 l 43 226 q 43 331 79 406 q 114 480 177 520 q 240 560 324 560 z"},"൮":{"ha":828,"x_min":43,"x_max":756,"o":"m 291 560 l 291 560 q 350 560 395 539 q 440 518 471 481 q 502 443 518 393 q 533 342 533 283 l 533 283 q 533 212 516 161 q 498 110 473 77 q 447 43 423 22 l 423 22 l 423 35 l 718 35 l 718 548 l 756 548 l 756 83 l 729 0 l 397 0 l 381 28 q 408 51 434 84 q 459 117 477 166 q 494 214 494 281 l 494 281 q 494 350 472 406 q 449 461 404 493 q 358 525 290 525 l 290 525 q 221 525 175 492 q 128 459 105 403 q 82 347 82 280 l 82 280 q 82 219 97 172 q 111 124 139 88 q 166 51 203 22 l 203 22 l 179 -7 q 145 20 114 59 q 82 97 63 152 q 43 206 43 281 l 43 281 q 43 341 60 392 q 76 442 108 480 q 140 518 187 539 q 233 560 291 560 z m 477 -201 l 477 -201 q 450 -201 425 -198 q 400 -196 376 -191 l 376 -191 l 381 -156 q 400 -160 425 -163 q 449 -166 476 -166 l 476 -166 q 550 -166 596 -149 q 642 -132 668 -104 q 694 -76 705 -42 q 716 -8 718 27 l 718 27 l 756 107 l 756 55 q 756 6 747 -33 q 737 -72 718 -101 q 698 -130 669 -152 l 669 -152 q 635 -176 588 -188 q 540 -201 477 -201 z"},"൯":{"ha":957,"x_min":43,"x_max":951,"o":"m 242 560 l 242 560 q 287 560 319 542 q 351 524 371 490 q 390 456 398 406 l 398 406 l 410 263 l 410 0 l 372 0 l 372 316 q 372 381 363 423 q 353 464 328 489 l 328 489 q 313 506 293 516 q 272 525 242 525 l 242 525 q 189 525 154 494 q 118 462 100 410 q 82 357 82 294 l 82 294 q 82 226 98 177 q 113 127 140 90 q 167 52 200 21 l 200 21 l 174 -6 q 138 28 108 69 q 78 109 61 164 q 43 218 43 294 l 43 294 q 43 373 67 433 q 91 493 136 527 q 181 560 242 560 z m 586 560 l 586 560 q 650 560 701 536 q 751 512 788 470 l 788 470 q 830 423 854 358 q 877 293 877 219 l 877 219 q 877 136 855 85 q 832 34 793 11 q 753 -12 705 -12 l 705 -12 q 648 -12 613 14 q 577 39 561 82 q 544 124 544 173 l 544 173 q 544 234 568 283 q 591 332 640 377 q 688 421 764 467 l 764 467 q 821 502 854 525 q 886 547 899 569 q 912 591 912 621 l 912 621 q 912 645 904 664 q 896 683 883 702 l 883 702 l 917 719 q 932 700 942 675 q 951 650 951 622 l 951 622 q 951 585 935 558 q 919 530 883 503 q 847 476 784 439 l 784 439 q 713 397 669 356 q 624 315 603 271 q 582 226 582 173 l 582 173 q 582 102 613 63 q 644 23 706 23 l 706 23 q 744 23 774 42 q 804 60 821 103 q 838 146 838 218 l 838 218 q 838 285 819 345 q 799 405 761 447 l 761 447 q 730 484 686 505 q 641 525 586 525 l 586 525 q 544 525 516 516 q 488 506 468 487 l 468 487 q 449 471 436 447 q 423 423 417 388 q 410 353 410 301 l 410 301 l 410 160 l 383 160 l 383 283 l 385 396 q 396 453 423 489 q 449 525 491 543 q 532 560 586 560 z"},"൰":{"ha":948,"x_min":-30,"x_max":906,"o":"m 236 548 l 273 548 l 273 120 l 272 93 q 272 18 262 -38 q 251 -95 218 -135 l 218 -135 q 193 -166 151 -183 q 109 -201 49 -201 l 49 -201 q 31 -201 11 -199 q -10 -198 -30 -192 l -30 -192 l -27 -158 q -11 -161 8 -163 q 26 -166 47 -166 l 47 -166 q 100 -166 135 -151 q 169 -137 190 -111 l 190 -111 q 217 -78 227 -30 q 236 18 236 95 l 236 95 l 236 548 z m 707 -12 l 707 -12 q 643 -12 606 23 q 569 58 554 125 l 554 125 l 561 128 q 548 62 510 25 q 472 -12 404 -12 l 404 -12 q 361 -12 330 5 q 299 21 281 53 q 262 84 253 130 l 253 130 l 249 248 l 248 523 l 273 524 l 273 226 q 273 162 282 125 q 290 87 311 62 l 311 62 q 327 45 350 34 q 372 23 406 23 l 406 23 q 438 23 461 34 q 483 45 499 63 l 499 63 q 521 89 530 127 q 538 165 538 227 l 538 227 l 538 548 l 576 548 l 576 230 q 576 167 586 126 q 595 84 620 58 l 620 58 q 636 41 657 32 q 678 23 709 23 l 709 23 q 762 23 797 55 q 832 87 850 140 q 867 192 867 252 l 867 252 q 867 321 852 371 q 836 421 809 458 q 782 495 748 527 l 748 527 l 774 554 q 809 520 840 480 q 870 440 888 385 q 906 330 906 253 l 906 253 q 906 179 883 119 q 860 59 816 24 q 771 -12 707 -12 z"},"൱":{"ha":774,"x_min":43,"x_max":726,"o":"m 242 560 l 242 560 q 287 560 319 542 q 350 524 370 490 q 389 456 396 407 l 396 407 l 410 263 l 410 0 l 372 0 l 372 316 q 372 381 363 423 q 353 464 328 489 l 328 489 q 313 506 293 516 q 272 525 242 525 l 242 525 q 189 525 154 494 q 118 462 100 410 q 82 357 82 294 l 82 294 q 82 226 98 177 q 113 127 140 90 q 167 52 200 21 l 200 21 l 174 -6 q 138 28 108 69 q 78 109 61 164 q 43 218 43 294 l 43 294 q 43 373 67 433 q 91 493 136 527 q 181 560 242 560 z m 539 560 l 539 560 q 599 560 641 522 q 683 484 705 410 q 726 335 726 225 l 726 225 q 726 91 696 -4 q 665 -100 599 -150 q 532 -201 421 -201 l 421 -201 q 398 -201 372 -199 q 345 -197 321 -192 l 321 -192 l 326 -157 q 349 -161 374 -163 q 399 -166 420 -166 l 420 -166 q 497 -166 549 -138 q 600 -111 631 -59 q 661 -8 674 64 q 687 136 687 225 l 687 225 q 687 322 670 389 q 653 456 621 491 q 588 525 538 525 l 538 525 q 510 525 489 516 q 468 507 453 489 l 453 489 q 429 463 420 423 q 410 383 410 322 l 410 322 l 410 10 l 383 10 l 383 321 l 387 423 q 403 491 441 526 q 478 560 539 560 z"},"൲":{"ha":1184,"x_min":43,"x_max":1162,"o":"m 1036 548 l 1036 548 q 1078 548 1106 530 q 1134 511 1148 482 q 1162 452 1162 416 l 1162 416 q 1162 383 1152 357 q 1141 330 1122 312 l 1122 312 q 1105 298 1085 289 q 1065 280 1040 277 q 1014 273 983 273 l 983 273 l 797 273 l 798 308 l 983 308 q 1027 308 1052 315 q 1076 321 1093 335 l 1093 335 q 1108 348 1116 368 q 1124 388 1124 415 l 1124 415 q 1124 459 1102 486 q 1079 513 1036 513 l 1036 513 q 989 513 964 484 q 939 455 939 403 l 939 403 q 939 368 950 340 q 960 312 975 287 l 975 287 l 938 282 q 922 310 912 340 q 902 370 902 408 l 902 408 q 902 452 920 484 q 937 515 968 532 q 998 548 1036 548 z m 242 560 l 242 560 q 287 560 319 542 q 351 524 371 490 q 390 456 398 407 l 398 407 l 410 263 l 410 0 l 372 0 l 372 316 q 372 381 363 423 q 353 464 328 489 l 328 489 q 313 506 293 516 q 272 525 242 525 l 242 525 q 189 525 154 494 q 118 462 100 410 q 82 357 82 294 l 82 294 q 82 226 98 177 q 113 127 140 90 q 167 52 200 21 l 200 21 l 174 -6 q 138 28 108 69 q 78 109 61 164 q 43 218 43 294 l 43 294 q 43 373 67 433 q 91 493 136 527 q 181 560 242 560 z m 577 560 l 577 560 q 634 560 681 537 q 727 514 760 472 q 792 430 810 371 q 828 312 828 238 l 828 238 q 828 143 807 88 q 785 33 747 11 q 709 -12 659 -12 l 659 -12 q 609 -12 577 10 q 544 32 529 66 q 514 100 514 139 l 514 139 q 514 178 528 208 q 541 237 565 257 l 565 257 q 586 276 615 287 q 643 298 681 303 q 719 308 769 308 l 769 308 l 975 308 l 975 273 l 768 273 q 706 273 663 265 q 619 257 591 232 l 591 232 q 573 217 563 194 q 552 170 552 140 l 552 140 q 552 86 580 55 q 608 23 658 23 l 658 23 q 703 23 732 44 q 761 64 776 112 q 790 159 790 238 l 790 238 q 790 251 790 265 q 789 278 787 290 l 787 290 l 787 299 q 778 369 750 419 q 722 469 678 497 q 634 525 576 525 l 576 525 q 543 525 516 516 q 489 507 468 488 l 468 488 q 449 472 436 448 q 423 423 417 390 q 410 356 410 311 l 410 311 l 410 199 l 384 201 l 383 376 q 390 440 417 481 q 443 521 485 541 q 526 560 577 560 z"},"൳":{"ha":693,"x_min":43,"x_max":671,"o":"m 201 -12 l 201 -12 q 157 -12 121 11 q 85 33 64 83 q 43 133 43 215 l 43 215 q 43 296 67 352 q 91 408 135 443 l 135 443 q 168 468 208 484 q 247 499 300 506 q 353 512 425 512 l 425 512 l 671 512 l 671 476 l 437 476 q 364 476 313 471 q 261 465 224 452 q 186 439 157 414 l 157 414 q 123 387 104 347 q 85 306 80 247 l 80 247 l 80 235 q 80 230 80 225 q 80 219 80 213 l 80 213 q 80 147 95 105 q 109 63 137 43 q 164 23 201 23 l 201 23 q 228 23 250 35 q 271 47 284 75 q 297 103 297 151 l 297 151 q 297 205 272 239 q 246 272 195 272 l 195 272 q 156 272 122 253 q 88 233 65 205 l 65 205 l 58 240 q 90 274 126 291 q 162 307 199 307 l 199 307 q 237 307 268 290 q 298 273 317 239 q 335 205 335 152 l 335 152 q 335 95 317 59 q 299 23 269 6 q 239 -12 201 -12 z"},"൴":{"ha":793,"x_min":43,"x_max":750,"o":"m 441 792 l 479 792 l 479 211 q 479 173 482 143 q 484 112 492 89 q 500 66 515 51 l 515 51 q 528 37 547 30 q 566 23 592 23 l 592 23 q 633 23 660 46 q 686 68 699 110 q 711 151 711 207 l 711 207 q 711 268 695 320 q 678 372 647 414 q 615 455 570 483 q 524 510 466 520 l 466 520 l 450 521 q 438 523 425 524 q 411 525 397 525 l 397 525 q 317 525 258 502 q 198 478 159 437 q 119 396 100 343 q 80 290 80 232 l 80 232 l 80 222 q 80 152 95 108 q 109 64 137 44 q 165 23 202 23 l 202 23 q 228 23 250 35 q 271 47 284 75 q 297 103 297 151 l 297 151 q 297 206 272 239 q 246 272 195 272 l 195 272 q 155 272 122 253 q 88 233 65 205 l 65 205 l 59 240 q 91 274 127 291 q 163 307 199 307 l 199 307 q 237 307 268 290 q 298 273 317 239 q 335 205 335 152 l 335 152 q 335 95 318 59 q 300 22 270 5 q 240 -12 202 -12 l 202 -12 q 158 -12 122 11 q 86 34 65 86 q 43 138 43 225 l 43 225 q 43 294 65 355 q 87 415 132 461 q 176 507 243 534 q 309 560 397 560 l 397 560 q 412 560 425 559 q 438 558 452 556 l 452 556 l 468 555 q 531 545 583 516 q 635 487 673 442 q 710 396 730 337 q 750 277 750 207 l 750 207 q 750 138 732 89 q 713 40 678 14 q 642 -12 591 -12 l 591 -12 q 558 -12 533 -2 q 508 7 490 24 l 490 24 q 472 42 461 66 q 450 89 446 123 q 441 157 441 203 l 441 203 l 441 792 z"},"൵":{"ha":1051,"x_min":45,"x_max":1044,"o":"m 305 560 l 305 560 q 384 560 432 520 q 479 479 492 402 l 492 402 l 494 351 l 503 235 l 503 0 l 466 0 l 466 316 q 466 387 452 428 q 437 468 409 492 l 409 492 q 389 509 365 517 q 340 525 304 525 l 304 525 q 236 525 186 488 q 136 450 109 385 q 82 320 82 236 l 82 236 l 82 225 q 82 153 97 109 q 112 64 140 44 q 167 23 204 23 l 204 23 q 230 23 252 35 q 273 47 286 75 q 299 103 299 151 l 299 151 q 299 206 274 239 q 248 272 197 272 l 197 272 q 157 272 123 252 q 89 232 65 204 l 65 204 l 56 235 q 88 272 126 290 q 163 307 201 307 l 201 307 q 239 307 270 290 q 300 273 319 239 q 337 205 337 152 l 337 152 q 337 95 320 59 q 302 23 272 6 q 242 -12 204 -12 l 204 -12 q 160 -12 124 11 q 88 34 67 87 q 45 139 45 228 l 45 228 q 45 332 78 406 q 111 480 170 520 q 228 560 305 560 z m 679 560 l 679 560 q 743 560 794 536 q 844 512 882 470 l 882 470 q 924 423 947 358 q 970 293 970 219 l 970 219 q 970 136 948 85 q 925 34 886 11 q 847 -12 799 -12 l 799 -12 q 742 -12 706 14 q 670 39 654 82 q 637 124 637 173 l 637 173 q 637 234 661 283 q 684 332 733 377 q 782 421 858 467 l 858 467 q 915 502 947 525 q 979 547 992 569 q 1005 591 1005 621 l 1005 621 q 1005 645 997 664 q 989 683 977 702 l 977 702 l 1011 719 q 1025 700 1035 675 q 1044 650 1044 622 l 1044 622 q 1044 585 1029 558 q 1013 530 977 503 q 941 476 878 439 l 878 439 q 807 397 763 356 q 718 315 697 271 q 676 226 676 173 l 676 173 q 676 102 707 63 q 738 23 800 23 l 800 23 q 838 23 868 42 q 897 60 914 103 q 931 146 931 218 l 931 218 q 931 285 912 345 q 893 405 855 447 l 855 447 q 823 484 779 505 q 734 525 680 525 l 680 525 q 637 525 609 516 q 581 506 561 487 l 561 487 q 542 471 529 447 q 516 423 510 388 q 503 353 503 301 l 503 301 l 503 160 l 476 160 l 476 283 l 478 396 q 489 453 516 489 q 543 525 584 543 q 625 560 679 560 z"},"൶":{"ha":1174,"x_min":36,"x_max":1114,"o":"m 191 331 l 191 331 q 239 331 274 310 q 309 289 328 252 q 347 214 347 165 l 347 165 q 347 119 331 82 q 314 45 287 20 l 287 20 l 287 35 l 636 35 l 635 0 l 271 0 l 255 27 q 282 56 296 89 q 309 122 309 162 l 309 162 q 309 226 277 261 q 245 296 191 296 l 191 296 q 154 296 128 279 q 101 261 88 232 q 74 202 74 165 l 74 165 q 74 116 92 82 q 109 47 140 19 l 140 19 l 116 -8 q 80 27 58 67 q 36 107 36 165 l 36 165 q 36 213 56 250 q 75 287 110 309 q 145 331 191 331 z m 870 560 l 870 560 q 924 560 965 546 q 1006 531 1035 504 l 1035 504 q 1061 480 1079 446 q 1096 412 1105 367 q 1114 322 1114 262 l 1114 262 l 1114 0 l 618 0 l 618 260 q 618 317 626 361 q 633 404 649 438 q 665 471 690 496 l 690 496 q 721 526 766 543 q 810 560 870 560 z m 827 520 l 827 520 q 792 520 764 507 q 735 493 713 466 l 713 466 q 686 435 671 385 q 656 335 656 254 l 656 254 l 656 34 l 667 34 q 738 93 795 156 q 852 218 886 282 q 920 345 920 405 l 920 405 q 920 434 911 461 q 902 487 882 504 q 862 520 827 520 z m 958 404 l 958 404 q 958 339 925 275 q 892 210 834 146 q 776 82 702 17 l 702 17 l 703 32 q 732 34 773 35 q 813 35 847 35 l 847 35 l 1076 35 l 1076 259 q 1076 341 1057 400 q 1038 458 996 492 q 953 525 881 528 l 881 528 l 879 533 q 924 516 941 482 q 958 447 958 404 z"},"൷":{"ha":1483,"x_min":36,"x_max":1461,"o":"m 191 331 l 191 331 q 239 331 274 310 q 309 289 328 252 q 347 214 347 165 l 347 165 q 347 119 331 82 q 314 45 287 20 l 287 20 l 287 35 l 607 35 l 620 0 l 271 0 l 255 27 q 282 56 296 89 q 309 122 309 162 l 309 162 q 309 226 277 261 q 245 296 191 296 l 191 296 q 154 296 128 279 q 101 261 88 232 q 74 202 74 165 l 74 165 q 74 116 92 82 q 109 47 140 19 l 140 19 l 116 -8 q 80 27 58 67 q 36 107 36 165 l 36 165 q 36 213 56 250 q 75 287 110 309 q 145 331 191 331 z m 693 560 l 693 560 q 739 560 771 542 q 802 524 822 490 q 842 456 850 407 l 850 407 l 862 299 l 862 230 l 824 230 l 824 316 q 824 380 815 422 q 805 464 780 489 l 780 489 q 764 506 744 516 q 723 525 694 525 l 694 525 q 641 525 606 494 q 570 462 552 411 q 533 360 533 298 l 533 298 q 533 205 565 141 q 596 77 643 27 l 643 27 l 627 0 l 604 0 l 597 27 q 568 60 545 99 q 522 138 509 187 q 495 235 495 298 l 495 298 q 495 375 519 434 q 543 493 588 527 q 633 560 693 560 z m 1029 560 l 1029 560 q 1086 560 1132 537 q 1178 514 1211 472 q 1244 430 1262 371 q 1279 311 1279 238 l 1279 238 q 1279 143 1258 88 q 1237 33 1199 11 q 1161 -12 1110 -12 l 1110 -12 q 1060 -12 1028 10 q 996 31 981 66 q 966 100 966 139 l 966 139 q 966 178 980 208 q 993 237 1017 257 l 1017 257 q 1038 276 1066 287 q 1094 298 1133 303 q 1171 308 1220 308 l 1220 308 l 1255 308 l 1255 273 l 1220 273 q 1158 273 1115 265 q 1071 257 1043 232 l 1043 232 q 1025 217 1015 194 q 1004 170 1004 140 l 1004 140 q 1004 86 1032 55 q 1059 23 1110 23 l 1110 23 q 1155 23 1184 44 q 1213 64 1228 112 q 1242 159 1242 238 l 1242 238 q 1242 251 1242 265 q 1241 278 1239 290 l 1239 290 l 1238 299 q 1230 369 1202 419 q 1174 469 1130 497 q 1086 525 1028 525 l 1028 525 q 995 525 968 516 q 941 507 919 488 l 919 488 q 901 472 888 448 q 875 423 869 390 q 862 356 862 311 l 862 311 l 862 253 l 836 252 l 835 376 q 842 440 869 481 q 895 521 937 541 q 978 560 1029 560 z m 1415 453 l 1452 460 q 1457 448 1459 433 q 1461 418 1461 403 l 1461 403 q 1461 371 1452 348 q 1442 325 1424 310 l 1424 310 q 1400 289 1367 281 q 1333 273 1284 273 l 1284 273 l 1260 273 l 1260 308 l 1280 308 q 1324 308 1350 313 q 1376 318 1394 332 l 1394 332 q 1408 343 1415 361 q 1422 378 1422 404 l 1422 404 q 1422 413 1421 428 q 1419 443 1415 453 l 1415 453 z"},"൸":{"ha":1912,"x_min":10,"x_max":1852,"o":"m 1240 560 l 1240 560 q 1281 560 1308 546 q 1335 531 1352 507 q 1368 483 1376 455 q 1384 427 1387 400 l 1387 400 l 1376 386 q 1390 447 1423 485 q 1455 523 1503 542 q 1550 560 1608 560 l 1608 560 q 1661 560 1703 546 q 1744 531 1772 504 l 1772 504 q 1799 480 1817 446 q 1834 412 1843 367 q 1852 322 1852 262 l 1852 262 l 1852 0 l 1405 0 l 1405 34 q 1476 93 1533 156 q 1590 218 1624 282 q 1658 345 1658 405 l 1658 405 q 1658 434 1649 461 q 1640 487 1620 504 q 1600 520 1564 520 l 1564 520 q 1529 520 1502 507 q 1474 493 1452 468 l 1452 468 q 1422 432 1410 383 q 1397 333 1397 260 l 1397 260 l 1397 230 l 1359 230 l 1359 315 q 1359 379 1353 422 q 1346 464 1323 490 l 1323 490 q 1310 507 1290 516 q 1269 525 1241 525 l 1241 525 q 1214 525 1193 516 q 1172 507 1159 490 l 1159 490 q 1136 464 1130 421 q 1123 378 1123 314 l 1123 314 l 1123 226 q 1123 176 1119 140 q 1115 104 1105 78 q 1094 51 1076 31 l 1076 31 q 1057 12 1030 0 q 1002 -12 967 -12 l 967 -12 q 930 -12 903 1 q 875 13 855 35 l 855 35 q 839 55 830 80 q 820 105 816 141 q 812 176 812 225 l 812 225 l 812 316 q 812 379 806 422 q 799 464 776 490 l 776 490 q 763 507 742 516 q 721 525 694 525 l 694 525 q 667 525 646 516 q 625 507 612 490 l 612 490 q 589 464 583 421 q 576 378 576 314 l 576 314 l 576 221 q 576 146 565 105 q 554 64 528 35 l 528 35 q 508 13 480 1 q 451 -12 413 -12 l 413 -12 q 352 -12 315 24 q 277 60 266 130 l 266 130 l 275 125 q 266 82 246 52 q 226 21 194 5 q 162 -12 116 -12 l 116 -12 q 90 -12 63 -6 q 35 0 10 13 l 10 13 l 24 46 q 44 35 67 29 q 90 23 117 23 l 117 23 q 150 23 172 33 q 193 42 209 58 l 209 58 q 234 84 244 126 q 253 167 253 230 l 253 230 l 253 548 l 291 548 l 291 220 q 291 159 301 118 q 310 77 334 53 l 334 53 q 348 38 368 31 q 387 23 412 23 l 412 23 q 444 23 466 33 q 487 43 501 61 l 501 61 q 522 87 530 128 q 538 168 538 241 l 538 241 l 538 322 q 538 373 542 409 q 546 445 557 471 q 567 497 585 516 l 585 516 q 604 537 631 549 q 658 560 694 560 l 694 560 q 731 560 759 548 q 787 535 805 513 l 805 513 q 822 493 832 469 q 841 444 845 409 q 849 373 849 322 l 849 322 l 849 232 q 849 169 856 127 q 863 84 885 57 l 885 57 q 898 41 919 32 q 940 23 967 23 l 967 23 q 994 23 1015 32 q 1036 41 1049 57 l 1049 57 q 1072 84 1079 127 q 1085 169 1085 232 l 1085 232 l 1085 322 q 1085 373 1090 409 q 1094 445 1104 471 q 1114 497 1133 516 l 1133 516 q 1151 537 1179 549 q 1206 560 1240 560 z m 1696 404 l 1696 404 q 1696 339 1663 275 q 1630 210 1572 146 q 1514 82 1440 17 l 1440 17 l 1441 32 q 1470 34 1511 35 q 1551 35 1585 35 l 1585 35 l 1814 35 l 1814 259 q 1814 341 1795 400 q 1776 458 1734 492 q 1691 525 1619 528 l 1619 528 l 1617 533 q 1662 516 1679 482 q 1696 447 1696 404 z"},"൹":{"ha":997,"x_min":43,"x_max":975,"o":"m 242 560 l 242 560 q 287 560 319 542 q 351 524 371 490 q 390 456 398 407 l 398 407 l 410 263 l 410 0 l 372 0 l 372 316 q 372 381 363 423 q 353 464 328 489 l 328 489 q 313 506 293 516 q 272 525 242 525 l 242 525 q 189 525 154 494 q 118 462 100 410 q 82 357 82 294 l 82 294 q 82 226 98 177 q 113 127 140 90 q 167 52 200 21 l 200 21 l 174 -6 q 138 28 108 69 q 78 109 61 164 q 43 218 43 294 l 43 294 q 43 373 67 433 q 91 493 136 527 q 181 560 242 560 z m 577 560 l 577 560 q 634 560 681 537 q 727 514 760 472 q 792 430 810 371 q 828 312 828 238 l 828 238 q 828 143 807 88 q 785 33 747 11 q 709 -12 659 -12 l 659 -12 q 609 -12 577 10 q 544 32 529 66 q 514 100 514 139 l 514 139 q 514 178 528 208 q 541 237 565 257 l 565 257 q 586 276 615 287 q 643 298 681 303 q 719 308 769 308 l 769 308 l 975 308 l 975 273 l 768 273 q 706 273 663 265 q 619 257 591 232 l 591 232 q 573 217 563 194 q 552 170 552 140 l 552 140 q 552 86 580 55 q 608 23 658 23 l 658 23 q 703 23 732 44 q 761 64 776 112 q 790 159 790 238 l 790 238 q 790 251 790 265 q 789 278 787 290 l 787 290 l 787 299 q 778 369 750 419 q 722 469 678 497 q 634 525 576 525 l 576 525 q 543 525 516 516 q 489 507 468 488 l 468 488 q 449 472 436 448 q 423 423 417 390 q 410 356 410 311 l 410 311 l 410 199 l 384 201 l 383 376 q 390 440 417 481 q 443 521 485 541 q 526 560 577 560 z"},"ൺ":{"ha":1307,"x_min":45,"x_max":1265,"o":"m 305 560 l 305 560 q 384 560 428 523 q 471 485 489 419 l 489 419 l 480 419 q 494 485 533 523 q 571 560 638 560 l 638 560 q 703 560 743 525 q 782 489 793 419 l 793 419 l 794 395 l 806 317 l 806 0 l 769 0 l 769 322 q 769 386 761 423 q 752 460 731 485 l 731 485 q 715 504 693 515 q 670 525 636 525 l 636 525 q 604 525 581 514 q 558 503 543 485 l 543 485 q 521 460 513 422 q 504 383 504 321 l 504 321 l 504 0 l 466 0 l 466 315 q 466 387 452 428 q 437 468 409 492 l 409 492 q 389 509 365 517 q 340 525 304 525 l 304 525 q 236 525 186 488 q 136 450 109 385 q 82 320 82 236 l 82 236 l 82 225 q 82 153 97 109 q 112 64 140 44 q 167 23 204 23 l 204 23 q 230 23 252 35 q 273 47 286 75 q 299 103 299 151 l 299 151 q 299 206 274 239 q 248 272 197 272 l 197 272 q 157 272 123 252 q 89 232 65 204 l 65 204 l 56 235 q 88 272 126 290 q 163 307 201 307 l 201 307 q 239 307 270 290 q 300 273 319 239 q 337 205 337 152 l 337 152 q 337 95 320 59 q 302 23 272 6 q 242 -12 204 -12 l 204 -12 q 160 -12 124 11 q 88 34 67 87 q 45 139 45 228 l 45 228 q 45 332 78 406 q 111 480 170 520 q 228 560 305 560 z m 1107 -12 l 1107 -12 q 1061 -12 1025 10 q 989 32 969 80 q 948 128 948 205 l 948 205 q 948 274 968 329 q 988 384 1020 429 q 1051 474 1085 513 l 1085 513 l 1095 525 q 1129 564 1149 599 q 1168 633 1168 670 l 1168 670 q 1168 707 1148 732 q 1127 757 1078 757 l 1078 757 q 1056 757 1037 754 q 1018 750 1002 746 l 1002 746 l 993 779 q 1011 785 1034 789 q 1057 792 1081 792 l 1081 792 q 1128 792 1155 774 q 1182 756 1195 729 q 1207 701 1207 673 l 1207 673 q 1207 629 1184 590 q 1161 551 1124 507 l 1124 507 l 1114 494 q 1077 451 1049 408 q 1020 364 1004 315 q 987 265 987 204 l 987 204 q 987 132 1004 93 q 1020 54 1048 39 q 1076 23 1108 23 l 1108 23 q 1162 23 1194 67 q 1226 111 1226 208 l 1226 208 q 1226 272 1211 329 q 1195 385 1166 429 q 1136 473 1092 498 l 1092 498 q 1068 512 1041 519 q 1013 525 979 525 l 979 525 q 939 525 912 516 q 885 506 865 489 l 865 489 q 844 471 831 446 q 818 421 812 386 q 806 350 806 301 l 806 301 l 806 69 l 776 69 l 779 246 l 781 397 q 792 453 819 489 q 845 525 885 543 q 925 560 977 560 l 977 560 q 1017 560 1050 552 q 1082 543 1110 527 l 1110 527 q 1112 526 1115 525 q 1118 523 1120 521 l 1120 521 q 1167 491 1200 443 q 1232 395 1249 336 q 1265 276 1265 210 l 1265 210 q 1265 99 1223 44 q 1180 -12 1107 -12 z"},"ൻ":{"ha":910,"x_min":43,"x_max":869,"o":"m 242 560 l 242 560 q 287 560 319 542 q 351 524 371 490 q 390 456 397 406 l 397 406 l 410 271 l 410 0 l 372 0 l 372 316 q 372 381 363 423 q 353 464 328 489 l 328 489 q 313 506 293 516 q 272 525 242 525 l 242 525 q 189 525 154 494 q 118 462 100 410 q 82 357 82 294 l 82 294 q 82 226 98 177 q 113 127 140 90 q 167 52 200 21 l 200 21 l 174 -6 q 138 28 108 69 q 78 109 61 164 q 43 218 43 294 l 43 294 q 43 373 67 433 q 91 493 136 527 q 181 560 242 560 z m 711 -12 l 711 -12 q 665 -12 629 10 q 593 32 573 80 q 552 128 552 205 l 552 205 q 552 274 572 329 q 592 384 623 429 q 654 474 688 513 l 688 513 l 699 525 q 733 564 753 599 q 772 633 772 670 l 772 670 q 772 707 751 732 q 730 757 682 757 l 682 757 q 660 757 641 754 q 622 750 606 746 l 606 746 l 597 779 q 614 785 638 789 q 661 792 685 792 l 685 792 q 731 792 759 774 q 786 756 798 729 q 810 701 810 673 l 810 673 q 810 629 788 590 q 765 551 728 507 l 728 507 l 718 494 q 681 451 652 408 q 623 364 607 315 q 590 265 590 204 l 590 204 q 590 132 607 93 q 624 54 652 39 q 680 23 711 23 l 711 23 q 765 23 798 67 q 830 111 830 208 l 830 208 q 830 272 815 329 q 799 385 770 429 q 740 473 696 498 l 696 498 q 672 512 645 519 q 617 525 582 525 l 582 525 q 542 525 515 516 q 488 506 469 489 l 469 489 q 448 471 435 446 q 422 421 416 386 q 410 350 410 301 l 410 301 l 410 69 l 380 69 l 383 246 l 385 397 q 395 453 422 489 q 449 525 489 543 q 529 560 581 560 l 581 560 q 621 560 653 552 q 685 543 713 527 l 713 527 q 716 526 719 525 q 722 523 724 521 l 724 521 q 771 491 804 443 q 836 395 853 336 q 869 276 869 210 l 869 210 q 869 99 827 44 q 784 -12 711 -12 z"},"ർ":{"ha":626,"x_min":42,"x_max":584,"o":"m 427 -12 l 427 -12 q 381 -12 345 10 q 309 32 288 80 q 267 128 267 205 l 267 205 q 267 274 288 329 q 308 384 340 429 q 371 474 404 513 l 404 513 l 414 525 q 448 565 468 599 q 487 633 487 670 l 487 670 q 487 707 467 732 q 446 757 398 757 l 398 757 q 376 757 357 754 q 337 750 322 746 l 322 746 l 313 779 q 330 785 353 789 q 376 792 401 792 l 401 792 q 447 792 475 774 q 502 756 514 729 q 526 701 526 673 l 526 673 q 526 629 504 590 q 481 550 443 507 l 443 507 l 433 494 q 396 452 368 408 q 339 364 323 315 q 306 265 306 204 l 306 204 q 306 132 323 93 q 340 54 368 39 q 395 23 427 23 l 427 23 q 481 23 514 67 q 546 111 546 208 l 546 208 q 546 256 537 300 q 528 343 511 382 q 494 420 469 450 q 444 479 412 498 l 412 498 q 387 512 360 519 q 332 525 300 525 l 300 525 q 232 525 183 494 q 134 462 108 407 q 81 352 81 280 l 81 280 q 81 219 96 171 q 110 123 138 87 q 165 51 202 22 l 202 22 l 178 -7 q 144 20 113 59 q 81 97 62 152 q 42 206 42 281 l 42 281 q 42 342 60 393 q 78 444 112 482 q 146 519 194 540 q 241 560 300 560 l 300 560 q 338 560 370 552 q 401 543 429 527 l 429 527 q 431 526 434 525 q 437 523 440 521 l 440 521 q 487 491 520 443 q 552 395 568 336 q 584 276 584 210 l 584 210 q 584 99 542 44 q 499 -12 427 -12 z"},"ൽ":{"ha":1006,"x_min":43,"x_max":964,"o":"m 620 560 l 620 560 q 655 560 687 555 q 719 550 749 541 q 778 532 803 517 l 803 517 l 815 511 q 888 468 926 391 q 964 314 964 210 l 964 210 q 964 99 922 44 q 879 -12 807 -12 l 807 -12 q 760 -12 724 10 q 688 32 668 80 q 647 128 647 205 l 647 205 q 647 272 666 326 q 685 379 715 423 q 745 467 778 506 l 778 506 l 788 518 q 824 558 846 596 q 867 633 867 670 l 867 670 q 867 707 847 732 q 826 757 778 757 l 778 757 q 756 757 737 754 q 717 750 702 746 l 702 746 l 692 779 q 710 785 733 789 q 756 792 781 792 l 781 792 q 827 792 854 774 q 881 756 894 729 q 906 701 906 673 l 906 673 q 906 629 883 589 q 859 548 820 502 l 820 502 l 808 488 q 773 447 746 404 q 718 361 702 313 q 686 264 686 204 l 686 204 q 686 132 703 93 q 720 54 748 39 q 775 23 807 23 l 807 23 q 861 23 894 67 q 926 111 926 208 l 926 208 q 926 275 910 329 q 894 382 864 422 q 833 461 789 486 l 789 486 l 777 492 q 744 508 705 517 q 665 525 621 525 l 621 525 q 575 525 534 516 q 493 507 459 489 l 459 489 l 447 482 q 385 445 350 376 q 314 306 314 207 l 314 207 q 314 138 330 98 q 345 57 373 40 q 400 23 435 23 l 435 23 q 470 23 497 41 q 524 59 540 100 q 555 141 555 209 l 555 209 q 555 262 540 316 q 525 369 496 414 q 466 459 424 487 l 424 487 l 415 494 q 389 510 361 518 q 332 525 300 525 l 300 525 q 226 525 178 492 q 129 459 106 403 q 82 347 82 280 l 82 280 q 82 218 97 170 q 111 122 139 86 q 166 50 203 21 l 203 21 l 179 -8 q 145 19 114 58 q 82 96 63 151 q 43 206 43 281 l 43 281 q 43 341 60 392 q 76 442 109 480 q 142 518 190 539 q 237 560 299 560 l 299 560 q 340 560 376 549 q 412 537 445 514 l 445 514 l 457 504 q 520 457 557 379 q 594 300 594 209 l 594 209 q 594 132 574 84 q 554 35 518 12 q 482 -12 435 -12 l 435 -12 q 388 -12 352 11 q 316 34 296 83 q 275 131 275 207 l 275 207 q 275 276 292 332 q 309 387 341 430 q 372 473 416 503 l 416 503 l 429 511 q 468 536 517 548 q 565 560 620 560 z"},"ൾ":{"ha":891,"x_min":45,"x_max":849,"o":"m 665 792 l 665 792 q 712 792 740 774 q 767 756 779 729 q 791 701 791 673 l 791 673 q 791 629 769 590 q 746 550 708 507 l 708 507 l 698 494 q 661 452 632 408 q 603 364 587 315 q 571 265 571 204 l 571 204 q 571 132 588 93 q 605 54 633 39 q 660 23 692 23 l 692 23 q 746 23 779 67 q 811 111 811 208 l 811 208 q 811 256 802 300 q 793 344 776 382 q 759 420 735 450 q 710 479 678 498 l 678 498 q 654 513 628 519 q 602 525 573 525 l 573 525 q 536 525 507 515 q 478 505 459 487 l 459 487 q 428 459 415 414 q 401 369 401 292 l 401 292 l 401 234 q 401 185 397 149 q 393 112 383 85 q 372 58 353 35 l 353 35 q 333 13 305 1 q 276 -12 235 -12 l 235 -12 q 176 -12 133 20 q 90 52 68 112 q 45 172 45 254 l 45 254 q 45 329 63 384 q 80 438 110 480 q 140 521 177 556 l 177 556 l 203 529 q 169 497 142 459 q 115 421 100 372 q 84 322 84 254 l 84 254 q 84 182 102 130 q 120 78 154 51 q 188 23 234 23 l 234 23 q 269 23 291 33 q 312 43 327 62 l 327 62 q 349 90 356 136 q 363 181 363 251 l 363 251 l 363 303 q 363 378 379 428 q 394 477 431 511 l 431 511 q 456 534 492 547 q 527 560 572 560 l 572 560 q 606 560 636 552 q 665 544 694 528 l 694 528 l 705 522 q 751 492 784 444 q 816 396 833 337 q 849 277 849 210 l 849 210 q 849 99 807 44 q 764 -12 692 -12 l 692 -12 q 646 -12 610 10 q 573 32 553 80 q 532 128 532 205 l 532 205 q 532 274 553 329 q 573 384 605 429 q 636 474 669 513 l 669 513 l 679 525 q 713 565 733 599 q 752 633 752 670 l 752 670 q 752 707 732 732 q 711 757 663 757 l 663 757 q 641 757 622 754 q 602 750 587 746 l 587 746 l 577 779 q 595 785 618 789 q 641 792 665 792 z"},"ൿ":{"ha":1015,"x_min":35,"x_max":979,"o":"m 452 560 l 452 560 q 517 560 558 526 q 599 492 619 429 q 638 366 638 276 l 638 276 q 638 173 615 110 q 592 46 550 17 q 508 -12 451 -12 l 451 -12 q 407 -12 375 5 q 342 22 319 51 l 319 51 q 290 90 277 149 q 264 208 264 276 l 264 276 q 264 414 313 487 q 362 560 452 560 z m 452 525 l 452 525 q 378 525 340 463 q 302 400 302 275 l 302 275 q 302 186 320 131 q 337 75 371 49 q 404 23 450 23 l 450 23 q 498 23 532 48 q 565 73 583 129 q 601 185 601 276 l 601 276 q 601 364 584 419 q 566 474 534 500 q 501 525 452 525 z m 186 -12 l 186 -12 q 116 -12 76 28 q 35 68 35 143 l 35 143 q 35 183 50 212 q 65 240 90 258 l 90 258 q 114 278 144 289 q 174 299 213 303 q 252 307 303 307 l 303 307 l 756 307 q 814 307 854 298 q 894 288 924 265 l 924 265 q 949 245 964 215 q 979 185 979 142 l 979 142 q 979 66 943 27 q 906 -12 843 -12 l 843 -12 q 780 -12 742 31 q 704 74 704 149 l 704 149 q 704 179 712 214 q 720 248 735 285 l 735 285 q 737 288 738 291 q 739 294 740 298 l 740 298 q 752 326 768 360 q 783 393 803 435 l 803 435 q 834 497 850 538 q 866 578 873 607 q 879 636 879 664 l 879 664 q 879 705 858 731 q 837 757 789 757 l 789 757 q 767 757 748 754 q 728 750 713 746 l 713 746 l 704 779 q 721 785 745 789 q 768 792 792 792 l 792 792 q 838 792 866 774 q 893 756 905 728 q 917 699 917 668 l 917 668 q 917 645 914 621 q 910 597 901 569 q 892 540 876 504 q 860 468 836 419 l 836 419 q 818 383 804 353 q 789 323 779 298 l 779 298 q 778 294 777 290 q 775 286 773 283 l 773 283 q 757 244 750 211 q 742 178 742 149 l 742 149 q 742 104 756 77 q 770 49 793 36 q 816 23 844 23 l 844 23 q 892 23 917 53 q 941 82 941 141 l 941 141 q 941 174 930 199 q 918 223 898 239 l 898 239 q 876 257 843 265 q 810 272 757 272 l 757 272 l 298 272 q 233 272 189 265 q 144 257 113 232 l 113 232 q 95 217 85 195 q 74 173 74 143 l 74 143 q 74 97 90 71 q 105 45 132 34 q 158 23 189 23 l 189 23 q 226 23 257 35 q 288 46 326 75 l 326 75 l 349 48 q 323 29 299 16 q 274 2 247 -5 q 220 -12 186 -12 z"},"!":{"ha":227,"x_min":81,"x_max":146,"o":"m 129 179 l 98 179 l 92 714 l 135 714 l 129 179 z m 113 -9 l 113 -9 q 95 -9 88 2 q 81 12 81 29 l 81 29 q 81 45 88 57 q 95 68 113 68 l 113 68 q 133 68 140 57 q 146 46 146 29 l 146 29 q 146 12 139 2 q 132 -9 113 -9 z"},"\"":{"ha":357,"x_min":83,"x_max":274,"o":"m 119 542 l 90 542 l 83 800 l 127 800 l 119 542 z m 267 542 l 238 542 l 231 800 l 274 800 l 267 542 z"},"#":{"ha":593,"x_min":27,"x_max":566,"o":"m 145 0 l 109 0 l 152 223 l 27 223 l 27 257 l 158 257 l 196 457 l 69 457 l 69 491 l 202 491 l 244 714 l 280 714 l 237 491 l 405 491 l 448 714 l 483 714 l 441 491 l 566 491 l 566 457 l 434 457 l 397 257 l 524 257 l 524 223 l 391 223 l 348 0 l 313 0 l 355 223 l 187 223 l 145 0 z m 231 457 l 194 257 l 362 257 l 399 457 l 231 457 z"},"%":{"ha":730,"x_min":54,"x_max":675,"o":"m 216 0 l 178 0 l 514 714 l 551 714 l 216 0 z m 179 276 l 179 276 q 119 276 87 333 q 54 389 54 501 l 54 501 q 54 613 87 669 q 120 724 180 724 l 180 724 q 243 724 275 668 q 306 612 306 501 l 306 501 q 306 388 273 332 q 240 276 179 276 z m 179 310 l 179 310 q 225 310 248 358 q 270 406 270 501 l 270 501 q 270 596 248 644 q 226 691 180 691 l 180 691 q 137 691 114 645 q 90 598 90 501 l 90 501 q 90 405 113 358 q 136 310 179 310 z m 549 -10 l 549 -10 q 489 -10 457 47 q 424 103 424 215 l 424 215 q 424 327 457 383 q 490 438 550 438 l 550 438 q 613 438 644 382 q 675 325 675 215 l 675 215 q 675 102 643 46 q 610 -10 549 -10 z m 549 24 l 549 24 q 595 24 618 72 q 640 119 640 215 l 640 215 q 640 310 618 358 q 596 405 550 405 l 550 405 q 507 405 484 359 q 460 312 460 215 l 460 215 q 460 118 483 71 q 506 24 549 24 z"},"'":{"ha":210,"x_min":83,"x_max":127,"o":"m 119 542 l 90 542 l 83 800 l 127 800 l 119 542 z"},"(":{"ha":280,"x_min":57,"x_max":251,"o":"m 57 277 l 57 277 q 57 381 75 475 q 92 569 126 651 q 160 733 208 800 l 208 800 l 251 800 q 199 728 164 644 q 129 560 113 468 q 96 376 96 277 l 96 277 q 96 179 113 88 q 129 -4 164 -87 q 199 -171 251 -244 l 251 -244 l 208 -244 q 159 -176 126 -94 q 92 -13 75 81 q 57 174 57 277 z"},")":{"ha":280,"x_min":30,"x_max":224,"o":"m 224 279 l 224 279 q 224 176 206 82 q 188 -13 155 -94 q 121 -176 73 -244 l 73 -244 l 30 -244 q 82 -172 117 -88 q 151 -4 168 88 q 185 180 185 279 l 185 279 q 185 378 168 469 q 151 560 117 644 q 83 727 30 800 l 30 800 l 73 800 q 121 732 155 651 q 189 569 207 476 q 224 383 224 279 z"},"*":{"ha":512,"x_min":44,"x_max":468,"o":"m 235 800 l 277 800 l 271 603 l 459 666 l 468 626 l 279 578 l 398 420 l 363 397 l 256 564 l 151 398 l 115 420 l 233 578 l 44 626 l 54 666 l 242 603 l 235 800 z"},"+":{"ha":511,"x_min":46,"x_max":464,"o":"m 273 123 l 238 123 l 238 335 l 46 335 l 46 370 l 238 370 l 238 583 l 273 583 l 273 370 l 464 370 l 464 335 l 273 335 l 273 123 z"},",":{"ha":215,"x_min":37,"x_max":137,"o":"m 92 116 l 131 116 l 137 106 q 131 66 121 25 q 110 -16 97 -55 q 83 -94 68 -129 l 68 -129 l 37 -129 q 50 -93 61 -50 q 72 -7 81 37 q 89 80 92 116 l 92 116 z"},"-":{"ha":315,"x_min":39,"x_max":275,"o":"m 275 251 l 39 251 l 39 287 l 275 287 l 275 251 z"},".":{"ha":217,"x_min":76,"x_max":141,"o":"m 108 -9 l 108 -9 q 91 -9 84 2 q 76 12 76 29 l 76 29 q 76 46 84 57 q 91 68 108 68 l 108 68 q 127 68 134 57 q 141 46 141 29 l 141 29 q 141 12 134 2 q 127 -9 108 -9 z"},"/":{"ha":352,"x_min":25,"x_max":328,"o":"m 63 -244 l 25 -244 l 290 800 l 328 800 l 63 -244 z"},":":{"ha":217,"x_min":76,"x_max":141,"o":"m 108 -9 l 108 -9 q 91 -9 84 2 q 76 12 76 29 l 76 29 q 76 46 84 57 q 91 68 108 68 l 108 68 q 127 68 134 57 q 141 46 141 29 l 141 29 q 141 12 134 2 q 127 -9 108 -9 z m 108 466 l 108 466 q 91 466 84 477 q 76 487 76 504 l 76 504 q 76 521 84 532 q 91 542 108 542 l 108 542 q 128 542 135 532 q 141 521 141 504 l 141 504 q 141 487 134 477 q 127 466 108 466 z"},";":{"ha":217,"x_min":37,"x_max":141,"o":"m 92 116 l 131 116 l 137 106 q 131 66 121 25 q 110 -16 97 -55 q 83 -94 68 -129 l 68 -129 l 37 -129 q 51 -93 62 -49 q 73 -6 81 37 q 89 80 92 116 l 92 116 z m 108 466 l 108 466 q 91 466 84 477 q 76 487 76 504 l 76 504 q 76 521 84 532 q 91 542 108 542 l 108 542 q 128 542 135 532 q 141 521 141 504 l 141 504 q 141 487 134 477 q 127 466 108 466 z"},"<":{"ha":511,"x_min":47,"x_max":464,"o":"m 464 171 l 464 133 l 47 342 l 47 370 l 464 576 l 464 537 l 91 357 l 464 171 z"},"=":{"ha":511,"x_min":47,"x_max":463,"o":"m 463 232 l 47 232 l 47 267 l 463 267 l 463 232 z m 463 438 l 47 438 l 47 473 l 463 473 l 463 438 z"},">":{"ha":511,"x_min":47,"x_max":464,"o":"m 464 342 l 47 133 l 47 171 l 420 356 l 47 537 l 47 576 l 464 370 l 464 342 z"},"?":{"ha":379,"x_min":36,"x_max":341,"o":"m 173 724 l 173 724 q 249 724 295 682 q 341 639 341 557 l 341 557 q 341 510 328 476 q 315 442 291 414 q 266 385 233 355 l 233 355 q 206 330 192 308 q 177 285 172 258 q 166 231 166 193 l 166 193 l 166 178 l 132 178 l 132 195 q 132 239 138 270 q 144 300 161 325 q 177 350 206 378 l 206 378 q 236 405 258 430 q 280 455 292 485 q 303 514 303 555 l 303 555 q 303 622 267 655 q 231 688 171 688 l 171 688 q 139 688 109 679 q 78 670 51 655 l 51 655 l 36 688 q 66 704 101 714 q 135 724 173 724 z m 149 -9 l 149 -9 q 132 -9 125 2 q 117 12 117 29 l 117 29 q 117 46 125 57 q 132 68 149 68 l 149 68 q 169 68 176 57 q 183 46 183 29 l 183 29 q 183 12 176 2 q 169 -9 149 -9 z"},"[":{"ha":310,"x_min":88,"x_max":270,"o":"m 270 -244 l 88 -244 l 88 800 l 270 800 l 270 765 l 126 765 l 126 -209 l 270 -209 l 270 -244 z"},"\\":{"ha":352,"x_min":25,"x_max":328,"o":"m 328 -244 l 290 -244 l 25 800 l 63 800 l 328 -244 z"},"]":{"ha":314,"x_min":43,"x_max":225,"o":"m 225 -244 l 43 -244 l 43 -209 l 188 -209 l 188 765 l 43 765 l 43 800 l 225 800 l 225 -244 z"},"^":{"ha":511,"x_min":35,"x_max":474,"o":"m 74 310 l 35 310 l 241 719 l 270 719 l 474 310 l 435 310 l 255 675 l 74 310 z"},"_":{"ha":412,"x_min":-2,"x_max":414,"o":"m 414 -123 l -2 -123 l -2 -90 l 414 -90 l 414 -123 z"},"{":{"ha":349,"x_min":30,"x_max":310,"o":"m 310 -209 l 310 -244 q 253 -244 216 -230 q 179 -216 162 -185 q 144 -155 144 -104 l 144 -104 l 144 148 q 144 211 118 236 q 91 260 30 260 l 30 260 l 30 296 q 91 296 118 322 q 144 348 144 410 l 144 410 l 144 658 q 144 705 163 736 q 182 767 219 784 q 256 800 310 800 l 310 800 l 310 765 q 243 765 213 739 q 182 713 182 653 l 182 653 l 182 407 q 182 355 163 322 q 143 288 97 279 l 97 279 l 97 277 q 143 266 163 237 q 182 208 182 151 l 182 151 l 182 -100 q 182 -142 194 -166 q 206 -190 234 -199 q 262 -209 310 -209 l 310 -209 z"},"|":{"ha":520,"x_min":242,"x_max":278,"o":"m 278 -244 l 242 -244 l 242 800 l 278 800 l 278 -244 z"},"}":{"ha":349,"x_min":39,"x_max":319,"o":"m 39 765 l 39 800 q 97 800 134 786 q 170 772 188 742 q 205 711 205 660 l 205 660 l 205 408 q 205 345 232 320 q 258 295 319 295 l 319 295 l 319 260 q 258 260 232 235 q 205 209 205 146 l 205 146 l 205 -102 q 205 -148 186 -179 q 166 -211 129 -227 q 92 -244 39 -244 l 39 -244 l 39 -209 q 105 -209 136 -183 q 167 -157 167 -97 l 167 -97 l 167 148 q 167 201 187 235 q 206 268 251 276 l 251 276 l 251 279 q 206 289 187 319 q 167 348 167 405 l 167 405 l 167 656 q 167 698 155 722 q 143 746 115 756 q 87 765 39 765 l 39 765 z"},"~":{"ha":511,"x_min":46,"x_max":465,"o":"m 249 337 l 249 337 q 223 351 201 359 q 178 366 153 366 l 153 366 q 125 366 99 353 q 72 339 46 311 l 46 311 l 46 353 q 67 375 95 388 q 122 401 154 401 l 154 401 q 183 401 209 393 q 235 385 263 370 l 263 370 q 291 356 313 348 q 335 340 362 340 l 362 340 q 389 340 415 354 q 440 367 465 394 l 465 394 l 465 352 q 445 331 418 318 q 391 305 360 305 l 360 305 q 330 305 305 313 q 279 321 249 337 z"}," ":{"ha":277,"x_min":0,"x_max":0,"o":""},"­":{"ha":315,"x_min":39,"x_max":275,"o":"m 275 251 l 39 251 l 39 287 l 275 287 l 275 251 z"},"–":{"ha":500,"x_min":40,"x_max":460,"o":"m 460 251 l 40 251 l 40 288 l 460 288 l 460 251 z"},"—":{"ha":1000,"x_min":40,"x_max":960,"o":"m 960 251 l 40 251 l 40 288 l 960 288 l 960 251 z"},"‘":{"ha":190,"x_min":44,"x_max":144,"o":"m 89 555 l 50 555 l 44 564 q 51 605 61 646 q 71 686 85 726 q 98 766 114 800 l 114 800 l 144 800 q 131 764 120 721 q 108 677 101 634 q 93 591 89 555 l 89 555 z"},"’":{"ha":190,"x_min":44,"x_max":144,"o":"m 99 800 l 138 800 l 144 791 q 138 750 128 710 q 117 669 104 630 q 90 590 75 555 l 75 555 l 44 555 q 55 582 64 614 q 72 645 79 678 q 86 711 91 742 q 96 773 99 800 l 99 800 z"},"“":{"ha":338,"x_min":44,"x_max":292,"o":"m 237 555 l 198 555 l 192 564 q 199 605 209 646 q 219 686 233 726 q 247 766 262 800 l 262 800 l 292 800 q 279 764 268 721 q 256 677 249 634 q 241 591 237 555 l 237 555 z m 89 555 l 50 555 l 44 564 q 51 605 61 646 q 71 686 85 726 q 98 766 114 800 l 114 800 l 144 800 q 131 764 120 721 q 108 677 101 634 q 93 591 89 555 l 89 555 z"},"”":{"ha":338,"x_min":44,"x_max":292,"o":"m 247 800 l 286 800 l 292 791 q 286 750 276 710 q 265 669 252 630 q 238 590 223 555 l 223 555 l 192 555 q 206 591 217 635 q 228 678 236 721 q 244 764 247 800 l 247 800 z m 99 800 l 138 800 l 144 791 q 138 750 128 710 q 117 669 104 630 q 90 590 75 555 l 75 555 l 44 555 q 55 582 64 614 q 72 645 79 678 q 86 711 91 742 q 96 773 99 800 l 99 800 z"},"…":{"ha":645,"x_min":76,"x_max":569,"o":"m 108 -9 l 108 -9 q 91 -9 84 2 q 76 12 76 29 l 76 29 q 76 46 84 57 q 91 68 108 68 l 108 68 q 127 68 134 57 q 141 46 141 29 l 141 29 q 141 12 134 2 q 127 -9 108 -9 z m 321 -9 l 321 -9 q 304 -9 297 2 q 289 12 289 29 l 289 29 q 289 46 297 57 q 304 68 321 68 l 321 68 q 341 68 348 57 q 355 46 355 29 l 355 29 q 355 12 348 2 q 341 -9 321 -9 z m 535 -9 l 535 -9 q 518 -9 511 2 q 503 12 503 29 l 503 29 q 503 46 511 57 q 518 68 535 68 l 535 68 q 555 68 562 57 q 569 46 569 29 l 569 29 q 569 12 562 2 q 555 -9 535 -9 z"},"×":{"ha":511,"x_min":58,"x_max":452,"o":"m 255 377 l 428 550 l 452 526 l 279 353 l 452 180 l 428 156 l 255 329 l 83 156 l 58 180 l 231 353 l 58 525 l 83 550 l 255 377 z"},"÷":{"ha":511,"x_min":47,"x_max":464,"o":"m 464 335 l 47 335 l 47 370 l 464 370 l 464 335 z m 255 137 l 255 137 q 237 137 231 148 q 224 159 224 176 l 224 176 q 224 193 231 204 q 238 214 255 214 l 255 214 q 273 214 280 203 q 287 192 287 176 l 287 176 q 287 159 280 148 q 273 137 255 137 z m 255 491 l 255 491 q 238 491 231 502 q 224 513 224 530 l 224 530 q 224 546 231 557 q 237 568 255 568 l 255 568 q 273 568 280 557 q 287 546 287 529 l 287 529 q 286 512 280 502 q 273 491 255 491 z"},"−":{"ha":511,"x_min":47,"x_max":464,"o":"m 464 336 l 47 336 l 47 371 l 464 371 l 464 336 z"},"₹":{"ha":511,"x_min":68,"x_max":453,"o":"m 336 0 l 289 0 l 72 307 l 76 340 l 98 340 q 149 340 180 351 q 210 362 229 383 l 229 383 q 248 405 257 436 q 265 467 265 508 l 265 508 q 265 548 258 577 q 251 606 234 628 l 234 628 q 217 653 188 667 q 158 681 105 681 l 105 681 l 68 681 l 68 714 l 453 714 l 453 681 l 216 681 q 257 664 280 624 q 303 583 303 509 l 303 509 q 303 445 283 401 q 262 356 219 333 q 176 309 107 306 l 107 306 l 111 315 l 336 0 z m 453 495 l 68 495 l 68 528 l 453 528 l 453 495 z"},"꠰":{"ha":195,"x_min":79,"x_max":116,"o":"m 79 0 l 79 548 l 116 548 l 116 0 l 79 0 z"},"꠱":{"ha":368,"x_min":79,"x_max":289,"o":"m 79 0 l 79 548 l 116 548 l 116 0 l 79 0 z m 252 0 l 252 548 l 289 548 l 289 0 l 252 0 z"},"꠲":{"ha":541,"x_min":79,"x_max":462,"o":"m 79 0 l 79 548 l 116 548 l 116 0 l 79 0 z m 252 0 l 252 548 l 289 548 l 289 0 l 252 0 z m 425 0 l 425 548 l 462 548 l 462 0 l 425 0 z"},"॑":{"ha":0,"x_min":-295,"x_max":-260,"o":"m -295 653 l -295 864 l -260 864 l -260 653 l -295 653 z"},"॒":{"ha":0,"x_min":-461,"x_max":-95,"o":"m -95 -128 l -95 -162 l -461 -162 l -461 -128 l -95 -128 z"},"।":{"ha":293,"x_min":170,"x_max":208,"o":"m 208 -49 l 170 -49 l 170 597 l 208 597 l 208 -49 z"},"॥":{"ha":484,"x_min":170,"x_max":399,"o":"m 399 -49 l 361 -49 l 361 597 l 399 597 l 399 -49 z m 208 -49 l 170 -49 l 170 597 l 208 597 l 208 -49 z"},"᳚":{"ha":0,"x_min":-351,"x_max":-206,"o":"m -351 653 l -351 864 l -316 864 l -316 653 l -351 653 z m -241 653 l -241 864 l -206 864 l -206 653 l -241 653 z"},"̇":{"ha":0,"x_min":-309,"x_max":-247,"o":"m -309 701 l -309 701 q -309 716 -302 727 q -295 737 -279 737 l -279 737 q -260 737 -253 727 q -247 716 -247 701 l -247 701 q -247 685 -253 675 q -260 665 -279 665 l -279 665 q -295 665 -302 675 q -309 685 -309 701 z"},"̣":{"ha":0,"x_min":-309,"x_max":-247,"o":"m -309 -135 l -309 -135 q -309 -120 -302 -109 q -295 -99 -279 -99 l -279 -99 q -260 -99 -253 -109 q -247 -120 -247 -135 l -247 -135 q -247 -151 -253 -161 q -260 -171 -279 -171 l -279 -171 q -295 -171 -302 -161 q -309 -151 -309 -135 z"},"‐":{"ha":315,"x_min":39,"x_max":275,"o":"m 275 251 l 39 251 l 39 287 l 275 287 l 275 251 z"},"​":{"ha":0,"x_min":0,"x_max":0,"o":""},"‌":{"ha":0,"x_min":0,"x_max":0,"o":""},"‍":{"ha":0,"x_min":-161,"x_max":161,"o":"m 29 -244 l -29 -244 l -29 565 l -121 474 l -161 514 l -40 631 l -161 748 l -121 788 l 0 669 l 121 788 l 161 748 l 40 631 l 161 514 l 121 474 l 29 565 l 29 -244 z"},"◌":{"ha":562,"x_min":57,"x_max":504,"o":"m 89 231 l 89 231 q 57 231 57 264 l 57 264 q 57 295 89 295 l 89 295 q 121 295 121 264 l 121 264 q 121 231 89 231 z m 138 95 l 138 95 q 106 95 106 127 l 106 127 q 106 158 138 158 l 138 158 q 169 158 169 127 l 169 127 q 169 95 138 95 z m 281 40 l 281 40 q 249 40 249 72 l 249 72 q 249 104 281 104 l 281 104 q 312 104 312 72 l 312 72 q 312 40 281 40 z m 138 369 l 138 369 q 106 369 106 401 l 106 401 q 106 432 138 432 l 138 432 q 169 432 169 401 l 169 401 q 169 369 138 369 z m 423 95 l 423 95 q 391 95 391 127 l 391 127 q 391 158 423 158 l 423 158 q 455 158 455 127 l 455 127 q 455 95 423 95 z m 281 424 l 281 424 q 249 424 249 456 l 249 456 q 249 487 281 487 l 281 487 q 312 487 312 456 l 312 456 q 312 424 281 424 z m 472 231 l 472 231 q 441 231 441 264 l 441 264 q 441 295 472 295 l 472 295 q 504 295 504 264 l 504 264 q 504 231 472 231 z m 423 369 l 423 369 q 391 369 391 401 l 391 401 q 391 432 423 432 l 423 432 q 455 432 455 401 l 455 401 q 455 369 423 369 z"},"«":{"ha":415,"x_min":33,"x_max":383,"o":"m 33 269 l 33 282 l 183 468 l 208 452 l 77 276 l 208 100 l 183 84 l 33 269 z m 207 269 l 207 282 l 358 468 l 383 452 l 252 276 l 383 100 l 358 84 l 207 269 z"},"»":{"ha":412,"x_min":33,"x_max":380,"o":"m 380 283 l 380 270 l 229 84 l 204 100 l 335 276 l 204 452 l 229 468 l 380 283 z m 208 283 l 208 270 l 58 84 l 33 100 l 164 276 l 33 452 l 58 468 l 208 283 z"},"̈":{"ha":0,"x_min":-114,"x_max":114,"o":"m -115 673 l -115 673 q -115 689 -107 699 q -100 709 -87 709 l -87 709 q -71 709 -64 699 q -58 689 -58 673 l -58 673 q -58 657 -64 648 q -71 638 -87 638 l -87 638 q -100 638 -107 648 q -115 658 -115 673 z m 56 673 l 56 673 q 56 689 64 699 q 71 709 84 709 l 84 709 q 100 709 107 699 q 113 689 113 674 l 113 674 q 113 658 107 648 q 100 638 84 638 l 84 638 q 71 638 64 648 q 56 658 56 673 z"},"̀":{"ha":0,"x_min":-435,"x_max":-267,"o":"m -435 765 l -390 765 q -375 742 -354 715 q -333 688 -310 662 q -287 635 -268 615 l -268 615 l -268 606 l -294 606 q -312 621 -331 640 q -351 659 -370 680 q -389 701 -406 721 q -423 740 -435 758 l -435 758 l -435 765 z"},"́":{"ha":0,"x_min":-238,"x_max":-72,"o":"m -72 765 l -72 758 q -84 741 -101 721 q -118 701 -137 681 q -156 660 -175 641 q -194 622 -212 606 l -212 606 l -238 606 l -238 615 q -216 637 -194 664 q -172 690 -151 716 q -131 742 -117 765 l -117 765 l -72 765 z"},"̋":{"ha":0,"x_min":-97,"x_max":193,"o":"m 193 766 l 193 758 q 184 743 170 724 q 156 704 140 683 q 123 661 106 642 q 89 622 74 606 l 74 606 l 49 606 l 49 614 q 66 634 86 662 q 105 689 123 718 q 141 746 151 766 l 151 766 l 193 766 z m 47 766 l 47 758 q 38 743 24 724 q 10 704 -6 683 q -23 661 -40 642 q -57 622 -72 606 l -72 606 l -97 606 l -97 614 q -80 635 -60 663 q -41 690 -23 718 q -6 746 4 766 l 4 766 l 47 766 z"},"̄":{"ha":0,"x_min":-126,"x_max":118,"o":"m -126 647 l 118 647 l 118 614 l -126 614 l -126 647 z"},"˙":{"ha":141,"x_min":40,"x_max":101,"o":"m 70 725 l 70 725 q 88 725 95 715 q 101 704 101 688 l 101 688 q 101 672 94 662 q 87 651 70 651 l 70 651 q 54 651 47 662 q 40 672 40 688 l 40 688 q 40 704 47 715 q 54 725 70 725 z"},"°":{"ha":403,"x_min":63,"x_max":340,"o":"m 201 450 l 201 450 q 162 450 131 467 q 99 484 81 515 q 63 546 63 587 l 63 587 q 63 629 81 660 q 99 690 131 707 q 162 724 201 724 l 201 724 q 240 724 272 707 q 303 690 322 660 q 340 629 340 587 l 340 587 q 340 546 322 515 q 304 484 273 467 q 241 450 201 450 z m 201 481 l 201 481 q 248 481 277 511 q 306 541 306 587 l 306 587 q 306 635 277 664 q 248 693 201 693 l 201 693 q 152 693 124 664 q 96 635 96 587 l 96 587 q 96 540 125 511 q 154 481 201 481 z"},"A":{"ha":517,"x_min":0,"x_max":517,"o":"m 517 0 l 477 0 l 390 264 l 129 264 l 40 0 l 0 0 l 241 715 l 282 715 l 517 0 z m 378 300 l 288 585 q 284 598 280 613 q 275 627 271 643 q 266 659 261 675 l 261 675 q 257 660 252 645 q 247 629 243 614 q 238 599 233 585 l 233 585 l 140 300 l 378 300 z"},"Á":{"ha":517,"x_min":0,"x_max":517,"o":"m 517 0 l 477 0 l 390 264 l 129 264 l 40 0 l 0 0 l 241 715 l 282 715 l 517 0 z m 378 300 l 288 585 q 284 598 280 613 q 275 627 271 643 q 266 659 261 675 l 261 675 q 257 660 252 645 q 247 629 243 614 q 238 599 233 585 l 233 585 l 140 300 l 378 300 z m 380 950 l 380 943 q 368 926 351 906 q 334 886 315 866 q 296 845 277 826 q 258 807 240 791 l 240 791 l 214 791 l 214 800 q 236 822 258 849 q 280 875 301 901 q 321 927 335 950 l 335 950 l 380 950 z"},"Ă":{"ha":517,"x_min":0,"x_max":517,"o":"m 517 0 l 477 0 l 390 264 l 129 264 l 40 0 l 0 0 l 241 715 l 282 715 l 517 0 z m 378 300 l 288 585 q 284 598 280 613 q 275 627 271 643 q 266 659 261 675 l 261 675 q 257 660 252 645 q 247 629 243 614 q 238 599 233 585 l 233 585 l 140 300 l 378 300 z m 349 906 l 379 906 q 376 871 361 846 q 346 820 320 806 q 294 792 258 792 l 258 792 q 206 792 175 822 q 143 851 139 906 l 139 906 l 169 906 q 172 881 183 863 q 193 844 213 835 q 232 825 259 825 l 259 825 q 287 825 306 835 q 325 845 336 863 q 346 881 349 906 l 349 906 z"},"Â":{"ha":517,"x_min":0,"x_max":517,"o":"m 517 0 l 477 0 l 390 264 l 129 264 l 40 0 l 0 0 l 241 715 l 282 715 l 517 0 z m 378 300 l 288 585 q 284 598 280 613 q 275 627 271 643 q 266 659 261 675 l 261 675 q 257 660 252 645 q 247 629 243 614 q 238 599 233 585 l 233 585 l 140 300 l 378 300 z m 240 949 l 277 949 q 290 927 310 899 q 329 870 349 843 q 369 816 384 798 l 384 798 l 384 791 l 358 791 q 332 816 306 849 q 280 881 259 910 l 259 910 q 237 882 211 849 q 184 816 159 791 l 159 791 l 133 791 l 133 798 q 150 818 170 845 q 190 872 209 900 q 228 928 240 949 l 240 949 z"},"Ä":{"ha":517,"x_min":0,"x_max":517,"o":"m 517 0 l 477 0 l 390 264 l 129 264 l 40 0 l 0 0 l 241 715 l 282 715 l 517 0 z m 378 300 l 288 585 q 284 598 280 613 q 275 627 271 643 q 266 659 261 675 l 261 675 q 257 660 252 645 q 247 629 243 614 q 238 599 233 585 l 233 585 l 140 300 l 378 300 z m 145 858 l 145 858 q 145 874 153 884 q 160 894 173 894 l 173 894 q 189 894 196 884 q 202 874 202 858 l 202 858 q 202 842 196 833 q 189 823 173 823 l 173 823 q 160 823 153 833 q 145 843 145 858 z m 316 858 l 316 858 q 316 874 324 884 q 331 894 344 894 l 344 894 q 360 894 367 884 q 373 874 373 859 l 373 859 q 373 843 367 833 q 360 823 344 823 l 344 823 q 331 823 324 833 q 316 843 316 858 z"},"À":{"ha":517,"x_min":0,"x_max":517,"o":"m 517 0 l 477 0 l 390 264 l 129 264 l 40 0 l 0 0 l 241 715 l 282 715 l 517 0 z m 378 300 l 288 585 q 284 598 280 613 q 275 627 271 643 q 266 659 261 675 l 261 675 q 257 660 252 645 q 247 629 243 614 q 238 599 233 585 l 233 585 l 140 300 l 378 300 z m 170 950 l 215 950 q 230 927 251 900 q 272 873 295 847 q 318 820 337 800 l 337 800 l 337 791 l 311 791 q 293 806 274 825 q 254 844 235 865 q 216 886 199 906 q 182 925 170 943 l 170 943 l 170 950 z"},"Ā":{"ha":517,"x_min":0,"x_max":517,"o":"m 517 0 l 477 0 l 390 264 l 129 264 l 40 0 l 0 0 l 241 715 l 282 715 l 517 0 z m 378 300 l 288 585 q 284 598 280 613 q 275 627 271 643 q 266 659 261 675 l 261 675 q 257 660 252 645 q 247 629 243 614 q 238 599 233 585 l 233 585 l 140 300 l 378 300 z m 137 832 l 381 832 l 381 799 l 137 799 l 137 832 z"},"Ą":{"ha":517,"x_min":0,"x_max":517,"o":"m 517 0 l 477 0 l 390 264 l 129 264 l 40 0 l 0 0 l 241 715 l 282 715 l 517 0 z m 378 300 l 288 585 q 284 598 280 613 q 275 627 271 643 q 266 659 261 675 l 261 675 q 257 660 252 645 q 247 629 243 614 q 238 599 233 585 l 233 585 l 140 300 l 378 300 z m 422 -129 l 422 -129 q 422 -157 435 -171 q 448 -186 474 -186 l 474 -186 q 487 -186 499 -184 q 510 -182 516 -180 l 516 -180 l 516 -210 q 508 -213 497 -215 q 485 -218 470 -218 l 470 -218 q 432 -218 410 -197 q 387 -176 387 -135 l 387 -135 q 387 -109 398 -84 q 409 -60 430 -36 q 450 -12 480 11 l 480 11 l 504 0 q 469 -31 446 -62 q 422 -94 422 -129 z"},"Å":{"ha":517,"x_min":0,"x_max":517,"o":"m 517 0 l 477 0 l 390 264 l 129 264 l 40 0 l 0 0 l 241 715 l 282 715 l 517 0 z m 378 300 l 288 585 q 284 598 280 613 q 275 627 271 643 q 266 659 261 675 l 261 675 q 257 660 252 645 q 247 629 243 614 q 238 599 233 585 l 233 585 l 140 300 l 378 300 z m 261 691 l 261 691 q 220 691 191 717 q 162 743 162 788 l 162 788 q 162 831 191 858 q 219 884 260 884 l 260 884 q 301 884 330 857 q 358 830 358 788 l 358 788 q 358 744 330 718 q 302 691 261 691 z m 261 720 l 261 720 q 291 720 310 739 q 329 758 329 787 l 329 787 q 329 817 309 837 q 289 856 260 856 l 260 856 q 229 856 211 837 q 192 817 192 788 l 192 788 q 192 759 211 740 q 229 720 261 720 z"},"Ã":{"ha":517,"x_min":0,"x_max":517,"o":"m 517 0 l 477 0 l 390 264 l 129 264 l 40 0 l 0 0 l 241 715 l 282 715 l 517 0 z m 378 300 l 288 585 q 284 598 280 613 q 275 627 271 643 q 266 659 261 675 l 261 675 q 257 660 252 645 q 247 629 243 614 q 238 599 233 585 l 233 585 l 140 300 l 378 300 z m 134 800 l 104 800 q 106 825 113 844 q 120 863 131 876 q 142 888 157 895 q 171 901 189 901 l 189 901 q 212 901 230 891 q 248 880 263 867 q 278 853 294 843 q 310 832 327 832 l 327 832 q 348 832 364 848 q 380 863 384 901 l 384 901 l 413 901 q 410 851 387 826 q 363 800 327 800 l 327 800 q 304 800 286 811 q 268 821 253 834 q 237 847 222 858 q 207 868 188 868 l 188 868 q 169 868 154 854 q 138 839 134 800 l 134 800 z"},"Æ":{"ha":711,"x_min":-1,"x_max":679,"o":"m 679 36 l 679 0 l 330 0 l 330 263 l 141 263 l 42 0 l -1 0 l 273 714 l 679 714 l 679 678 l 368 678 l 368 393 l 662 393 l 662 358 l 368 358 l 368 36 l 679 36 z m 298 678 l 155 299 l 330 299 l 330 678 l 298 678 z"},"B":{"ha":554,"x_min":93,"x_max":505,"o":"m 93 714 l 268 714 q 382 714 435 672 q 487 630 487 544 l 487 544 q 487 501 473 466 q 458 431 430 408 q 402 385 361 377 l 361 377 l 361 375 q 411 366 443 343 q 475 320 490 285 q 505 249 505 201 l 505 201 q 505 134 477 89 q 449 44 399 22 q 349 0 282 0 l 282 0 l 93 0 l 93 714 z m 131 392 l 273 392 q 362 392 405 430 q 447 467 447 541 l 447 541 q 447 613 404 646 q 361 679 263 679 l 263 679 l 131 679 l 131 392 z m 273 357 l 131 357 l 131 35 l 281 35 q 369 35 417 76 q 464 117 464 202 l 464 202 q 464 260 442 294 q 419 328 376 343 q 333 357 273 357 l 273 357 z"},"C":{"ha":546,"x_min":59,"x_max":517,"o":"m 361 688 l 361 688 q 297 688 248 663 q 198 637 166 592 q 133 547 116 487 q 99 427 99 359 l 99 359 q 99 259 129 184 q 158 108 215 67 q 271 26 353 26 l 353 26 q 401 26 439 35 q 476 43 505 54 l 505 54 l 505 19 q 476 6 438 -2 q 399 -10 351 -10 l 351 -10 q 257 -10 192 36 q 127 81 93 164 q 59 247 59 359 l 59 359 q 59 435 79 502 q 98 568 136 618 q 174 668 231 696 q 287 724 361 724 l 361 724 q 404 724 443 716 q 482 707 517 689 l 517 689 l 502 655 q 467 674 432 681 q 396 688 361 688 z"},"Ć":{"ha":546,"x_min":59,"x_max":517,"o":"m 361 688 l 361 688 q 297 688 248 663 q 198 637 166 592 q 133 547 116 487 q 99 427 99 359 l 99 359 q 99 259 129 184 q 158 108 215 67 q 271 26 353 26 l 353 26 q 401 26 439 35 q 476 43 505 54 l 505 54 l 505 19 q 476 6 438 -2 q 399 -10 351 -10 l 351 -10 q 257 -10 192 36 q 127 81 93 164 q 59 247 59 359 l 59 359 q 59 435 79 502 q 98 568 136 618 q 174 668 231 696 q 287 724 361 724 l 361 724 q 404 724 443 716 q 482 707 517 689 l 517 689 l 502 655 q 467 674 432 681 q 396 688 361 688 z m 464 950 l 464 943 q 452 926 435 906 q 418 886 399 866 q 380 845 361 826 q 342 807 324 791 l 324 791 l 298 791 l 298 800 q 320 822 342 849 q 364 875 385 901 q 405 927 419 950 l 419 950 l 464 950 z"},"Č":{"ha":546,"x_min":59,"x_max":517,"o":"m 361 688 l 361 688 q 297 688 248 663 q 198 637 166 592 q 133 547 116 487 q 99 427 99 359 l 99 359 q 99 259 129 184 q 158 108 215 67 q 271 26 353 26 l 353 26 q 401 26 439 35 q 476 43 505 54 l 505 54 l 505 19 q 476 6 438 -2 q 399 -10 351 -10 l 351 -10 q 257 -10 192 36 q 127 81 93 164 q 59 247 59 359 l 59 359 q 59 435 79 502 q 98 568 136 618 q 174 668 231 696 q 287 724 361 724 l 361 724 q 404 724 443 716 q 482 707 517 689 l 517 689 l 502 655 q 467 674 432 681 q 396 688 361 688 z m 360 791 l 325 791 q 313 814 294 842 q 275 869 255 896 q 235 922 219 941 l 219 941 l 219 949 l 245 949 q 270 924 296 892 q 322 860 343 830 l 343 830 q 364 860 390 890 q 415 920 441 949 l 441 949 l 468 949 l 468 941 q 451 921 431 894 q 410 867 392 840 q 373 813 360 791 l 360 791 z"},"Ç":{"ha":546,"x_min":59,"x_max":517,"o":"m 361 688 l 361 688 q 297 688 248 663 q 198 637 166 592 q 133 547 116 487 q 99 427 99 359 l 99 359 q 99 259 129 184 q 158 108 215 67 q 271 26 353 26 l 353 26 q 401 26 439 35 q 476 43 505 54 l 505 54 l 505 19 q 476 6 438 -2 q 399 -10 351 -10 l 351 -10 q 257 -10 192 36 q 127 81 93 164 q 59 247 59 359 l 59 359 q 59 435 79 502 q 98 568 136 618 q 174 668 231 696 q 287 724 361 724 l 361 724 q 404 724 443 716 q 482 707 517 689 l 517 689 l 502 655 q 467 674 432 681 q 396 688 361 688 z m 412 -144 l 412 -144 q 412 -188 380 -214 q 348 -240 295 -240 l 295 -240 q 279 -240 266 -238 q 252 -237 242 -234 l 242 -234 l 242 -204 q 253 -207 266 -208 q 279 -210 294 -210 l 294 -210 q 330 -210 354 -193 q 377 -177 377 -144 l 377 -144 q 377 -113 352 -99 q 327 -85 281 -84 l 281 -84 l 321 0 l 352 0 l 323 -61 q 351 -64 371 -74 q 391 -85 402 -102 q 412 -120 412 -144 z"},"Ċ":{"ha":546,"x_min":59,"x_max":517,"o":"m 361 688 l 361 688 q 297 688 248 663 q 198 637 166 592 q 133 547 116 487 q 99 427 99 359 l 99 359 q 99 259 129 184 q 158 108 215 67 q 271 26 353 26 l 353 26 q 401 26 439 35 q 476 43 505 54 l 505 54 l 505 19 q 476 6 438 -2 q 399 -10 351 -10 l 351 -10 q 257 -10 192 36 q 127 81 93 164 q 59 247 59 359 l 59 359 q 59 435 79 502 q 98 568 136 618 q 174 668 231 696 q 287 724 361 724 l 361 724 q 404 724 443 716 q 482 707 517 689 l 517 689 l 502 655 q 467 674 432 681 q 396 688 361 688 z m 343 910 l 343 910 q 361 910 368 900 q 374 889 374 873 l 374 873 q 374 857 367 847 q 360 836 343 836 l 343 836 q 327 836 320 847 q 313 857 313 873 l 313 873 q 313 889 320 900 q 327 910 343 910 z"},"D":{"ha":620,"x_min":93,"x_max":560,"o":"m 560 364 l 560 364 q 560 244 525 163 q 489 82 418 41 q 347 0 239 0 l 239 0 l 93 0 l 93 714 l 254 714 q 357 714 425 675 q 492 635 526 557 q 560 479 560 364 z m 520 362 l 520 362 q 520 465 492 536 q 463 606 403 643 q 342 679 247 679 l 247 679 l 131 679 l 131 35 l 238 35 q 382 35 451 117 q 520 199 520 362 z"},"Ð":{"ha":622,"x_min":23,"x_max":562,"o":"m 96 714 l 256 714 q 359 714 427 675 q 494 635 528 557 q 562 479 562 364 l 562 364 q 562 244 527 163 q 491 82 420 41 q 349 0 241 0 l 241 0 l 96 0 l 96 344 l 23 344 l 23 379 l 96 379 l 96 714 z m 249 679 l 249 679 l 134 679 l 134 379 l 309 379 l 309 344 l 134 344 l 134 35 l 240 35 q 384 35 453 117 q 522 199 522 362 l 522 362 q 522 465 494 536 q 465 606 405 643 q 345 679 249 679 z"},"Ď":{"ha":620,"x_min":93,"x_max":560,"o":"m 560 364 l 560 364 q 560 244 525 163 q 489 82 418 41 q 347 0 239 0 l 239 0 l 93 0 l 93 714 l 254 714 q 357 714 425 675 q 492 635 526 557 q 560 479 560 364 z m 520 362 l 520 362 q 520 465 492 536 q 463 606 403 643 q 342 679 247 679 l 247 679 l 131 679 l 131 35 l 238 35 q 382 35 451 117 q 520 199 520 362 z m 326 791 l 291 791 q 279 814 260 842 q 241 869 221 896 q 201 922 185 941 l 185 941 l 185 949 l 211 949 q 236 924 262 892 q 288 860 309 830 l 309 830 q 330 860 356 890 q 381 920 407 949 l 407 949 l 434 949 l 434 941 q 417 921 397 894 q 376 867 358 840 q 339 813 326 791 l 326 791 z"},"Đ":{"ha":622,"x_min":23,"x_max":562,"o":"m 96 714 l 256 714 q 359 714 427 675 q 494 635 528 557 q 562 479 562 364 l 562 364 q 562 244 527 163 q 491 82 420 41 q 349 0 241 0 l 241 0 l 96 0 l 96 344 l 23 344 l 23 379 l 96 379 l 96 714 z m 249 679 l 249 679 l 134 679 l 134 379 l 309 379 l 309 344 l 134 344 l 134 35 l 240 35 q 384 35 453 117 q 522 199 522 362 l 522 362 q 522 465 494 536 q 465 606 405 643 q 345 679 249 679 z"},"E":{"ha":490,"x_min":93,"x_max":434,"o":"m 434 36 l 434 0 l 93 0 l 93 714 l 434 714 l 434 678 l 131 678 l 131 393 l 417 393 l 417 358 l 131 358 l 131 36 l 434 36 z"},"É":{"ha":490,"x_min":93,"x_max":434,"o":"m 434 36 l 434 0 l 93 0 l 93 714 l 434 714 l 434 678 l 131 678 l 131 393 l 417 393 l 417 358 l 131 358 l 131 36 l 434 36 z m 393 950 l 393 943 q 381 926 364 906 q 347 886 328 866 q 309 845 290 826 q 271 807 253 791 l 253 791 l 227 791 l 227 800 q 249 822 271 849 q 293 875 314 901 q 334 927 348 950 l 348 950 l 393 950 z"},"Ě":{"ha":490,"x_min":93,"x_max":434,"o":"m 434 36 l 434 0 l 93 0 l 93 714 l 434 714 l 434 678 l 131 678 l 131 393 l 417 393 l 417 358 l 131 358 l 131 36 l 434 36 z m 289 791 l 254 791 q 242 814 223 842 q 204 869 184 896 q 164 922 148 941 l 148 941 l 148 949 l 174 949 q 199 924 225 892 q 251 860 272 830 l 272 830 q 293 860 319 890 q 344 920 370 949 l 370 949 l 397 949 l 397 941 q 380 921 360 894 q 339 867 321 840 q 302 813 289 791 l 289 791 z"},"Ê":{"ha":490,"x_min":93,"x_max":434,"o":"m 434 36 l 434 0 l 93 0 l 93 714 l 434 714 l 434 678 l 131 678 l 131 393 l 417 393 l 417 358 l 131 358 l 131 36 l 434 36 z m 254 949 l 291 949 q 304 927 324 899 q 343 870 363 843 q 383 816 398 798 l 398 798 l 398 791 l 372 791 q 346 816 320 849 q 294 881 273 910 l 273 910 q 251 882 225 849 q 198 816 173 791 l 173 791 l 147 791 l 147 798 q 164 818 184 845 q 204 872 223 900 q 242 928 254 949 l 254 949 z"},"Ë":{"ha":490,"x_min":93,"x_max":434,"o":"m 434 36 l 434 0 l 93 0 l 93 714 l 434 714 l 434 678 l 131 678 l 131 393 l 417 393 l 417 358 l 131 358 l 131 36 l 434 36 z m 158 858 l 158 858 q 158 874 166 884 q 173 894 186 894 l 186 894 q 202 894 209 884 q 215 874 215 858 l 215 858 q 215 842 209 833 q 202 823 186 823 l 186 823 q 173 823 166 833 q 158 843 158 858 z m 329 858 l 329 858 q 329 874 337 884 q 344 894 357 894 l 357 894 q 373 894 380 884 q 386 874 386 859 l 386 859 q 386 843 380 833 q 373 823 357 823 l 357 823 q 344 823 337 833 q 329 843 329 858 z"},"Ė":{"ha":490,"x_min":93,"x_max":434,"o":"m 434 36 l 434 0 l 93 0 l 93 714 l 434 714 l 434 678 l 131 678 l 131 393 l 417 393 l 417 358 l 131 358 l 131 36 l 434 36 z m 272 910 l 272 910 q 290 910 297 900 q 303 889 303 873 l 303 873 q 303 857 296 847 q 289 836 272 836 l 272 836 q 256 836 249 847 q 242 857 242 873 l 242 873 q 242 889 249 900 q 256 910 272 910 z"},"È":{"ha":490,"x_min":93,"x_max":434,"o":"m 434 36 l 434 0 l 93 0 l 93 714 l 434 714 l 434 678 l 131 678 l 131 393 l 417 393 l 417 358 l 131 358 l 131 36 l 434 36 z m 184 950 l 229 950 q 244 927 265 900 q 286 873 309 847 q 332 820 351 800 l 351 800 l 351 791 l 325 791 q 307 806 288 825 q 268 844 249 865 q 230 886 213 906 q 196 925 184 943 l 184 943 l 184 950 z"},"Ē":{"ha":490,"x_min":93,"x_max":434,"o":"m 434 36 l 434 0 l 93 0 l 93 714 l 434 714 l 434 678 l 131 678 l 131 393 l 417 393 l 417 358 l 131 358 l 131 36 l 434 36 z m 151 832 l 395 832 l 395 799 l 151 799 l 151 832 z"},"Ę":{"ha":490,"x_min":93,"x_max":434,"o":"m 434 36 l 434 0 l 93 0 l 93 714 l 434 714 l 434 678 l 131 678 l 131 393 l 417 393 l 417 358 l 131 358 l 131 36 l 434 36 z m 324 -129 l 324 -129 q 324 -157 337 -171 q 350 -186 376 -186 l 376 -186 q 389 -186 401 -184 q 412 -182 418 -180 l 418 -180 l 418 -210 q 410 -213 399 -215 q 387 -218 372 -218 l 372 -218 q 334 -218 312 -197 q 289 -176 289 -135 l 289 -135 q 289 -109 300 -84 q 311 -60 332 -36 q 352 -12 382 11 l 382 11 l 406 0 q 371 -31 348 -62 q 324 -94 324 -129 z"},"F":{"ha":446,"x_min":93,"x_max":435,"o":"m 131 324 l 131 0 l 93 0 l 93 714 l 435 714 l 435 678 l 131 678 l 131 360 l 418 360 l 418 324 l 131 324 z"},"G":{"ha":650,"x_min":59,"x_max":579,"o":"m 348 320 l 348 356 l 579 356 l 579 31 q 533 10 481 0 q 428 -10 375 -10 l 375 -10 q 270 -10 200 35 q 130 79 95 161 q 59 243 59 355 l 59 355 q 59 463 97 547 q 135 630 208 678 q 281 725 385 725 l 385 725 q 435 725 482 715 q 528 704 571 681 l 571 681 l 554 647 q 511 670 469 680 q 426 689 384 689 l 384 689 q 293 689 229 647 q 165 604 132 529 q 99 454 99 356 l 99 356 q 99 249 132 175 q 164 101 227 64 q 289 26 379 26 l 379 26 q 427 26 468 34 q 508 41 541 54 l 541 54 l 541 320 l 348 320 z"},"Ğ":{"ha":650,"x_min":59,"x_max":579,"o":"m 348 320 l 348 356 l 579 356 l 579 31 q 533 10 481 0 q 428 -10 375 -10 l 375 -10 q 270 -10 200 35 q 130 79 95 161 q 59 243 59 355 l 59 355 q 59 463 97 547 q 135 630 208 678 q 281 725 385 725 l 385 725 q 435 725 482 715 q 528 704 571 681 l 571 681 l 554 647 q 511 670 469 680 q 426 689 384 689 l 384 689 q 293 689 229 647 q 165 604 132 529 q 99 454 99 356 l 99 356 q 99 249 132 175 q 164 101 227 64 q 289 26 379 26 l 379 26 q 427 26 468 34 q 508 41 541 54 l 541 54 l 541 320 l 348 320 z m 457 906 l 487 906 q 484 871 469 846 q 454 820 428 806 q 402 792 366 792 l 366 792 q 314 792 283 822 q 251 851 247 906 l 247 906 l 277 906 q 280 881 291 863 q 301 844 321 835 q 340 825 367 825 l 367 825 q 395 825 414 835 q 433 845 444 863 q 454 881 457 906 l 457 906 z"},"Ģ":{"ha":650,"x_min":59,"x_max":579,"o":"m 348 320 l 348 356 l 579 356 l 579 31 q 533 10 481 0 q 428 -10 375 -10 l 375 -10 q 270 -10 200 35 q 130 79 95 161 q 59 243 59 355 l 59 355 q 59 463 97 547 q 135 630 208 678 q 281 725 385 725 l 385 725 q 435 725 482 715 q 528 704 571 681 l 571 681 l 554 647 q 511 670 469 680 q 426 689 384 689 l 384 689 q 293 689 229 647 q 165 604 132 529 q 99 454 99 356 l 99 356 q 99 249 132 175 q 164 101 227 64 q 289 26 379 26 l 379 26 q 427 26 468 34 q 508 41 541 54 l 541 54 l 541 320 l 348 320 z m 403 -61 l 403 -69 q 398 -93 389 -119 q 379 -146 368 -172 q 356 -198 341 -221 l 341 -221 l 319 -221 l 319 -213 q 327 -196 336 -168 q 345 -141 353 -111 q 360 -82 363 -61 l 363 -61 l 403 -61 z"},"Ġ":{"ha":650,"x_min":59,"x_max":579,"o":"m 348 320 l 348 356 l 579 356 l 579 31 q 533 10 481 0 q 428 -10 375 -10 l 375 -10 q 270 -10 200 35 q 130 79 95 161 q 59 243 59 355 l 59 355 q 59 463 97 547 q 135 630 208 678 q 281 725 385 725 l 385 725 q 435 725 482 715 q 528 704 571 681 l 571 681 l 554 647 q 511 670 469 680 q 426 689 384 689 l 384 689 q 293 689 229 647 q 165 604 132 529 q 99 454 99 356 l 99 356 q 99 249 132 175 q 164 101 227 64 q 289 26 379 26 l 379 26 q 427 26 468 34 q 508 41 541 54 l 541 54 l 541 320 l 348 320 z m 366 910 l 366 910 q 384 910 391 900 q 397 889 397 873 l 397 873 q 397 857 390 847 q 383 836 366 836 l 366 836 q 350 836 343 847 q 336 857 336 873 l 336 873 q 336 889 343 900 q 350 910 366 910 z"},"H":{"ha":633,"x_min":93,"x_max":541,"o":"m 541 714 l 541 0 l 502 0 l 502 357 l 131 357 l 131 0 l 93 0 l 93 714 l 131 714 l 131 393 l 502 393 l 502 714 l 541 714 z"},"Ħ":{"ha":635,"x_min":0,"x_max":634,"o":"m 131 0 l 93 0 l 93 543 l 0 543 l 0 577 l 93 577 l 93 714 l 131 714 l 131 577 l 502 577 l 502 714 l 541 714 l 541 577 l 634 577 l 634 543 l 541 543 l 541 0 l 502 0 l 502 357 l 131 357 l 131 0 z m 131 543 l 131 393 l 502 393 l 502 543 l 131 543 z"},"I":{"ha":272,"x_min":50,"x_max":222,"o":"m 222 26 l 222 0 l 50 0 l 50 26 l 117 32 l 117 681 l 50 688 l 50 714 l 222 714 l 222 688 l 155 681 l 155 32 l 222 26 z"},"Ĳ":{"ha":497,"x_min":50,"x_max":408,"o":"m 222 26 l 222 0 l 50 0 l 50 26 l 117 32 l 117 681 l 50 688 l 50 714 l 222 714 l 222 688 l 155 681 l 155 32 l 222 26 z m 269 -178 l 269 -178 q 246 -178 229 -174 q 211 -171 198 -166 l 198 -166 l 198 -129 q 212 -134 230 -137 q 248 -141 268 -141 l 268 -141 q 306 -141 328 -124 q 350 -108 360 -77 q 369 -46 369 -3 l 369 -3 l 369 714 l 408 714 l 408 -6 q 408 -60 394 -98 q 379 -137 349 -157 q 318 -178 269 -178 z"},"Í":{"ha":272,"x_min":50,"x_max":257,"o":"m 222 26 l 222 0 l 50 0 l 50 26 l 117 32 l 117 681 l 50 688 l 50 714 l 222 714 l 222 688 l 155 681 l 155 32 l 222 26 z m 257 950 l 257 943 q 245 926 228 906 q 211 886 192 866 q 173 845 154 826 q 135 807 117 791 l 117 791 l 91 791 l 91 800 q 113 822 135 849 q 157 875 178 901 q 198 927 212 950 l 212 950 l 257 950 z"}}}
